<svg id="Capa_1" data-name="Capa 1" xmlns="http://www.w3.org/2000/svg" viewBox="0 0 400 100"><defs><style>.cls-1{fill:none;stroke:#fff;stroke-miterlimit:10;stroke-width:1.7px;}.cls-2{fill:#d4de36;}.cls-3{fill:#71c6af;}.cls-4{font-size:46px;fill:#fff;font-family:Raleway-Regular, Raleway;}.cls-5{letter-spacing:-0.03em;}.cls-6{letter-spacing:-0.03em;}</style></defs><path class="cls-1" d="M35.81,79.76a3.52,3.52,0,0,1-.43-4.49c1.08-1.41,3.4-1.28,5.25-.91,5.25,1,10.32,2.72,15.6,3.62s11,1,15.79-1.16S80.6,70,80,65.22c-.38-3-2.28-6.41-.31-8.88,1.21-1.52,3.43-2,5.32-2.76s3.8-2.42,3.24-4.22c-.48-1.55-2.59-2.24-4.34-2a24.61,24.61,0,0,0-5,1.73c-1.65.59-3.87,0-4.31-1.52-.71-2.46,1.67-3.1,2.91-5.39.73-1.33,1.47-2.83,1-4.26s-2.4-2.65-3.78-1.18c-1.78,1.89.88,5.29-.28,7.66s-4.57,4-7,2.63a5.65,5.65,0,0,1-2.4-4.3c-.24-1.64-.26-3.36-1.09-4.84s-2.84-2.6-4.5-1.9c-.69,2.13.32,4.46,1.91,6.15a30.7,30.7,0,0,0,5.7,4.19,13.64,13.64,0,0,1,5,4.81,5,5,0,0,1-.92,6.17c-1.82,1.49-5.34,1-6-1.12-.56-1.67.58-3.8-.74-5.08-.9-.88-2.45-.78-3.75-.53s-2.73.59-3.89,0-1.27-2.56,0-2.75c5,1.39,7.71,7.43,5.12,11.58-1.92,3.06-6,4.67-9.84,4.66a23.32,23.32,0,0,1-10.93-3.23c-2.54-1.38-5-3.15-6-5.67s.5-4.22,3.33-5c1,1.65-3-.54-4-1.48a4.78,4.78,0,0,1-1.17-3.62,20,20,0,0,1,4.54-12.32A23.23,23.23,0,0,1,43,28c2-1.31,3.71-1.38,6.18-1.94,3.45-.77,5.71.06,7.36,1.41,2.38,1.94,2.87,6,.13,7.48-2.59,1.43-6-.33-7.78-2.56a13.47,13.47,0,0,1-.6-15.54c3-4.75,8.86-7.81,14.89-8.29A25.7,25.7,0,0,1,80,13.45c1.64,1.19,3.21,2.71,3.49,4.59a3.4,3.4,0,0,1-3.48,3.82,3,3,0,0,1-2.16-4.21C78.77,16,81,15.26,83,15.45a11.67,11.67,0,0,1,5.36,2.25A26.65,26.65,0,0,1,99.15,32.77a13.21,13.21,0,0,1,.31,1.52A5.19,5.19,0,0,1,99.2,37a3.46,3.46,0,0,1-3.61,2.16,2.78,2.78,0,0,1-1.52-4.41c1.2-1.47,3.61-1.8,5.51-1.18A10.85,10.85,0,0,1,104.22,37,27,27,0,0,1,111,55.63a27.38,27.38,0,0,1-8.16,18.18,13.11,13.11,0,0,1-6.15,3.8c-2.44.56-5.37-.11-6.67-2.06a3.57,3.57,0,0,1,2.35-5.39,4.3,4.3,0,0,1,4.4,2.9,7.65,7.65,0,0,1-.55,5.26A22.35,22.35,0,0,1,81.63,90.85c-7.86,2.23-16.35.47-24.36-1.3C49.68,87.88,41.37,85.06,35.81,79.76Z"/><ellipse class="cls-2" cx="77.49" cy="18.23" rx="1.44" ry="1.47"/><ellipse class="cls-3" cx="83.07" cy="19.7" rx="1.44" ry="1.47"/><ellipse class="cls-2" cx="94.07" cy="34.72" rx="1.44" ry="1.47"/><ellipse class="cls-3" cx="98.21" cy="38.14" rx="1.44" ry="1.47"/><ellipse class="cls-2" cx="95.73" cy="71.13" rx="1.75" ry="1.78"/><ellipse class="cls-3" cx="91.42" cy="76.7" rx="1.75" ry="1.78"/><ellipse class="cls-2" cx="50.11" cy="33.35" rx="2.42" ry="2.46"/><ellipse class="cls-3" cx="55.92" cy="27.09" rx="2.42" ry="2.46"/><text class="cls-4" transform="translate(135.66 70.42)"><tspan class="cls-5">P</tspan><tspan x="27.37" y="0" xml:space="preserve"> O S</tspan><tspan class="cls-6" x="113.3" y="0" xml:space="preserve"> T</tspan><tspan x="150.51" y="0" xml:space="preserve"> R E</tspan></text></svg>