<svg id="Capa_1" data-name="Capa 1" xmlns="http://www.w3.org/2000/svg" viewBox="0 0 500 100"><defs><style>.cls-1{fill:none;stroke:#fff;stroke-miterlimit:10;stroke-width:1.7px;}.cls-2{fill:#d4de36;}.cls-3{fill:#71c6af;}.cls-4{font-size:46px;fill:#fff;font-family:Raleway-Regular, Raleway;}.cls-5{letter-spacing:-0.03em;}.cls-6{letter-spacing:-0.03em;}</style></defs><path class="cls-1" d="M30.32,79.49A3.53,3.53,0,0,1,29.88,75c1.09-1.41,3.4-1.28,5.26-.91,5.24,1,10.32,2.72,15.6,3.62s10.94,1,15.78-1.16,8.58-6.78,8-11.6c-.38-3-2.29-6.41-.31-8.88,1.21-1.52,3.42-2,5.31-2.76s3.8-2.42,3.25-4.22c-.48-1.55-2.59-2.24-4.35-2a24.52,24.52,0,0,0-5,1.73c-1.65.59-3.87,0-4.32-1.52-.7-2.46,1.68-3.1,2.92-5.39.72-1.33,1.47-2.83,1-4.26s-2.4-2.65-3.79-1.17c-1.77,1.88.88,5.28-.28,7.65s-4.57,4-7,2.63a5.64,5.64,0,0,1-2.39-4.3c-.25-1.64-.27-3.36-1.1-4.84S55.67,35,54,35.72c-.69,2.13.32,4.46,1.91,6.15a30.62,30.62,0,0,0,5.69,4.19,13.75,13.75,0,0,1,5,4.81A5,5,0,0,1,65.66,57c-1.81,1.5-5.34,1-6-1.12-.56-1.67.58-3.8-.73-5.08-.9-.88-2.46-.78-3.75-.53s-2.73.59-3.89,0-1.28-2.56,0-2.75C56.31,49,59,55,56.39,59.15c-1.91,3.06-6,4.67-9.83,4.67a23.41,23.41,0,0,1-10.94-3.24c-2.53-1.38-5-3.15-6-5.67s.5-4.22,3.33-5c1,1.65-3-.54-4-1.48a4.78,4.78,0,0,1-1.17-3.62A19.92,19.92,0,0,1,32.29,32.5a23,23,0,0,1,5.2-4.77c2-1.31,3.71-1.38,6.18-1.94,3.44-.77,5.71.06,7.36,1.41,2.38,1.94,2.87,6,.13,7.48s-6-.33-7.79-2.56a13.49,13.49,0,0,1-.59-15.54c3-4.75,8.86-7.81,14.89-8.29a25.7,25.7,0,0,1,16.88,4.89c1.64,1.19,3.21,2.71,3.48,4.59a3.39,3.39,0,0,1-3.47,3.82,2.94,2.94,0,0,1-2.16-4.21c.87-1.62,3.08-2.39,5.06-2.2a11.66,11.66,0,0,1,5.37,2.25A26.74,26.74,0,0,1,93.66,32.5,11.34,11.34,0,0,1,94,34a5.3,5.3,0,0,1-.25,2.68,3.46,3.46,0,0,1-3.61,2.16,2.78,2.78,0,0,1-1.53-4.41c1.2-1.47,3.61-1.8,5.52-1.18a11,11,0,0,1,4.64,3.44,27.06,27.06,0,0,1,6.76,18.65,27.43,27.43,0,0,1-8.16,18.18,13.11,13.11,0,0,1-6.15,3.8c-2.44.56-5.37-.11-6.68-2.06a3.57,3.57,0,0,1,2.35-5.39,4.3,4.3,0,0,1,4.41,2.9,7.65,7.65,0,0,1-.56,5.26A22.31,22.31,0,0,1,76.14,90.58c-7.87,2.23-16.36.47-24.36-1.3C44.19,87.61,35.88,84.79,30.32,79.49Z"/><ellipse class="cls-2" cx="71.99" cy="17.96" rx="1.44" ry="1.47"/><ellipse class="cls-3" cx="77.58" cy="19.43" rx="1.44" ry="1.47"/><ellipse class="cls-2" cx="88.57" cy="34.45" rx="1.44" ry="1.47"/><ellipse class="cls-3" cx="92.72" cy="37.87" rx="1.44" ry="1.47"/><ellipse class="cls-2" cx="90.23" cy="70.86" rx="1.75" ry="1.78"/><ellipse class="cls-3" cx="85.93" cy="76.43" rx="1.75" ry="1.78"/><ellipse class="cls-2" cx="44.62" cy="33.08" rx="2.42" ry="2.46"/><ellipse class="cls-3" cx="50.43" cy="26.82" rx="2.42" ry="2.46"/><text class="cls-4" transform="translate(130.16 70.15)"><tspan class="cls-5">P</tspan><tspan x="27.37" y="0" xml:space="preserve"> O S</tspan><tspan class="cls-6" x="113.3" y="0" xml:space="preserve"> T</tspan><tspan x="150.51" y="0" xml:space="preserve"> R E</tspan></text></svg>