<svg id="Capa_1" data-name="Capa 1" xmlns="http://www.w3.org/2000/svg" xmlns:xlink="http://www.w3.org/1999/xlink" viewBox="0 0 300 650"><defs><style>.cls-1{opacity:0.75;}.cls-2{fill:url(#Degradado_sin_nombre_31);}.cls-3{fill:url(#Degradado_sin_nombre_37);}.cls-4{fill:url(#Degradado_sin_nombre_31-2);}.cls-5{fill:url(#Degradado_sin_nombre_37-2);}.cls-6{fill:url(#Degradado_sin_nombre_43);}.cls-7{fill:url(#Degradado_sin_nombre_11);}.cls-8,.cls-93{fill:#477599;}.cls-9{fill:url(#Degradado_sin_nombre_43-2);}.cls-10{fill:url(#Degradado_sin_nombre_11-2);}.cls-11{fill:url(#Degradado_sin_nombre_31-3);}.cls-12{fill:url(#Degradado_sin_nombre_37-3);}.cls-13{fill:url(#Degradado_sin_nombre_40);}.cls-14{fill:url(#Degradado_sin_nombre_44);}.cls-15{fill:url(#Degradado_sin_nombre_43-3);}.cls-16{fill:url(#Degradado_sin_nombre_11-3);}.cls-17{fill:url(#Degradado_sin_nombre_31-4);}.cls-18{fill:url(#Degradado_sin_nombre_37-4);}.cls-19{fill:url(#Degradado_sin_nombre_43-4);}.cls-20{fill:url(#Degradado_sin_nombre_11-4);}.cls-21{fill:url(#Degradado_sin_nombre_40-2);}.cls-22{fill:url(#Degradado_sin_nombre_44-2);}.cls-23{fill:url(#Degradado_sin_nombre_31-5);}.cls-24{fill:url(#Degradado_sin_nombre_37-5);}.cls-25{fill:url(#Degradado_sin_nombre_50);}.cls-26{fill:url(#Degradado_sin_nombre_43-5);}.cls-27{fill:url(#Degradado_sin_nombre_43-6);}.cls-28{fill:url(#Degradado_sin_nombre_11-5);}.cls-29{fill:url(#Degradado_sin_nombre_43-7);}.cls-30{fill:url(#Degradado_sin_nombre_11-6);}.cls-31{fill:url(#Degradado_sin_nombre_31-6);}.cls-32{fill:url(#Degradado_sin_nombre_37-6);}.cls-33{fill:url(#Degradado_sin_nombre_43-8);}.cls-34{fill:url(#Degradado_sin_nombre_43-9);}.cls-35{fill:url(#Degradado_sin_nombre_11-7);}.cls-36{fill:url(#Degradado_sin_nombre_31-7);}.cls-37{fill:url(#Degradado_sin_nombre_37-7);}.cls-38{fill:url(#Degradado_sin_nombre_43-10);}.cls-39{fill:url(#Degradado_sin_nombre_31-8);}.cls-40{fill:url(#Degradado_sin_nombre_37-8);}.cls-41{fill:url(#Degradado_sin_nombre_43-11);}.cls-42{fill:url(#Degradado_sin_nombre_31-9);}.cls-43{fill:url(#Degradado_sin_nombre_37-9);}.cls-44{fill:url(#Degradado_sin_nombre_43-12);}.cls-45{fill:url(#Degradado_sin_nombre_11-8);}.cls-125,.cls-142,.cls-46{fill:#1c3353;}.cls-47{fill:url(#Degradado_sin_nombre_14);}.cls-48{fill:url(#Degradado_sin_nombre_23);}.cls-49{fill:url(#Degradado_sin_nombre_43-13);}.cls-50{fill:url(#Degradado_sin_nombre_11-9);}.cls-51{fill:url(#Degradado_sin_nombre_31-10);}.cls-52{fill:url(#Degradado_sin_nombre_37-10);}.cls-53{fill:url(#Degradado_sin_nombre_31-11);}.cls-54{fill:url(#Degradado_sin_nombre_37-11);}.cls-55{fill:url(#Degradado_sin_nombre_40-3);}.cls-56{fill:url(#Degradado_sin_nombre_44-3);}.cls-57{fill:url(#Degradado_sin_nombre_43-14);}.cls-58{fill:url(#Degradado_sin_nombre_11-10);}.cls-59{fill:url(#Degradado_sin_nombre_31-12);}.cls-60{fill:url(#Degradado_sin_nombre_37-12);}.cls-61{fill:url(#Degradado_sin_nombre_43-15);}.cls-62{fill:url(#Degradado_sin_nombre_11-11);}.cls-63{fill:url(#Degradado_sin_nombre_40-4);}.cls-64{fill:url(#Degradado_sin_nombre_44-4);}.cls-65{fill:url(#Degradado_sin_nombre_31-13);}.cls-66{fill:url(#Degradado_sin_nombre_37-13);}.cls-67{fill:url(#Degradado_sin_nombre_31-14);}.cls-68{fill:url(#Degradado_sin_nombre_37-14);}.cls-69{fill:url(#Degradado_sin_nombre_43-16);}.cls-70{fill:url(#Degradado_sin_nombre_11-12);}.cls-71{fill:url(#Degradado_sin_nombre_43-17);}.cls-72{fill:url(#Degradado_sin_nombre_11-13);}.cls-73{fill:url(#Degradado_sin_nombre_31-15);}.cls-74{fill:url(#Degradado_sin_nombre_37-15);}.cls-75{fill:url(#Degradado_sin_nombre_43-18);}.cls-76{fill:url(#Degradado_sin_nombre_11-14);}.cls-77{fill:url(#Degradado_sin_nombre_31-16);}.cls-78{fill:url(#Degradado_sin_nombre_37-16);}.cls-79{fill:url(#Degradado_sin_nombre_43-19);}.cls-80{fill:url(#Degradado_sin_nombre_11-15);}.cls-81{fill:url(#Degradado_sin_nombre_31-17);}.cls-82{fill:url(#Degradado_sin_nombre_37-17);}.cls-83{fill:#ffae73;}.cls-84{fill:#9ed8db;}.cls-85{fill:#10497e;}.cls-86{fill:#ffa05e;}.cls-87{fill:#0b3563;}.cls-88{fill:#e9fff9;}.cls-89{fill:#0b4d87;}.cls-90{fill:url(#Degradado_sin_nombre_31-18);}.cls-91{opacity:0.3;}.cls-92{fill:#accefc;}.cls-93{opacity:0.29;}.cls-128,.cls-94,.cls-95{fill:none;stroke-miterlimit:10;stroke-width:0.28px;}.cls-94,.cls-95{stroke:#1d3354;}.cls-95{opacity:0.8;}.cls-96{fill:url(#Degradado_sin_nombre_31-19);}.cls-97{fill:url(#Degradado_sin_nombre_31-20);}.cls-98{fill:url(#Degradado_sin_nombre_31-21);}.cls-99{fill:url(#Degradado_sin_nombre_31-22);}.cls-100{fill:url(#Degradado_sin_nombre_31-23);}.cls-101{fill:url(#Degradado_sin_nombre_31-24);}.cls-102{fill:url(#Degradado_sin_nombre_43-20);}.cls-103{fill:url(#Degradado_sin_nombre_43-21);}.cls-104{fill:url(#Degradado_sin_nombre_43-22);}.cls-105{fill:url(#Degradado_sin_nombre_43-23);}.cls-106{fill:url(#Degradado_sin_nombre_43-24);}.cls-107{fill:url(#Degradado_sin_nombre_43-25);}.cls-108{fill:#fff;}.cls-109{opacity:0.54;}.cls-110{fill:#1e3865;}.cls-111{fill:url(#Degradado_sin_nombre_31-25);}.cls-112{fill:url(#Degradado_sin_nombre_40-5);}.cls-113{fill:#10294c;}.cls-114{fill:#f9924f;}.cls-115{fill:url(#Degradado_sin_nombre_40-6);}.cls-116{fill:url(#Degradado_sin_nombre_31-26);}.cls-117{fill:url(#Degradado_sin_nombre_44-5);}.cls-118{fill:url(#Degradado_sin_nombre_43-26);}.cls-119{fill:url(#Degradado_sin_nombre_44-6);}.cls-120{fill:#b3b3b3;}.cls-121{fill:url(#Degradado_sin_nombre_31-27);}.cls-122{fill:url(#Degradado_sin_nombre_37-18);}.cls-123{fill:url(#Degradado_sin_nombre_43-27);}.cls-124{fill:url(#Degradado_sin_nombre_11-16);}.cls-125{font-size:5.55px;font-family:Raleway-Bold, Raleway;font-weight:700;}.cls-126{opacity:0.5;}.cls-127{font-family:Raleway-Thin, Raleway;font-weight:200;}.cls-128{stroke:#d4145a;}.cls-129{fill:#d4145a;}.cls-130{fill:url(#Degradado_sin_nombre_31-28);}.cls-131{fill:url(#Degradado_sin_nombre_31-29);}.cls-132{fill:url(#Degradado_sin_nombre_31-30);}.cls-133{fill:url(#Degradado_sin_nombre_31-31);}.cls-134{fill:url(#Degradado_sin_nombre_31-32);}.cls-135{fill:url(#Degradado_sin_nombre_31-33);}.cls-136{fill:url(#Degradado_sin_nombre_40-7);}.cls-137{fill:url(#Degradado_sin_nombre_40-8);}.cls-138{fill:url(#Degradado_sin_nombre_40-9);}.cls-139{fill:url(#Degradado_sin_nombre_40-10);}.cls-140{fill:url(#Degradado_sin_nombre_40-11);}.cls-141{fill:url(#Degradado_sin_nombre_40-12);}.cls-142{font-size:3.47px;font-family:Raleway-Regular, Raleway;opacity:0.39;}.cls-143{letter-spacing:-0.01em;}.cls-144{letter-spacing:-0.02em;}.cls-145{letter-spacing:-0.01em;}.cls-146{letter-spacing:-0.03em;}.cls-147{fill:url(#Degradado_sin_nombre_43-28);}.cls-148{fill:url(#Degradado_sin_nombre_11-17);}.cls-149{opacity:0.71;}.cls-150{fill:url(#Degradado_sin_nombre_31-34);}.cls-151{fill:url(#Degradado_sin_nombre_37-19);}.cls-152{fill:url(#Degradado_sin_nombre_43-29);}.cls-153{fill:url(#Degradado_sin_nombre_11-18);}.cls-154{fill:url(#Degradado_sin_nombre_43-30);}.cls-155{fill:url(#Degradado_sin_nombre_31-35);}.cls-156{fill:url(#Degradado_sin_nombre_37-20);}.cls-157{opacity:0.69;}.cls-158{fill:url(#Degradado_sin_nombre_31-36);}.cls-159{fill:url(#Degradado_sin_nombre_37-21);}.cls-160{fill:url(#Degradado_sin_nombre_40-13);}.cls-161{fill:url(#Degradado_sin_nombre_44-7);}.cls-162{fill:url(#Degradado_sin_nombre_43-31);}.cls-163{fill:url(#Degradado_sin_nombre_11-19);}.cls-164{fill:url(#Degradado_sin_nombre_31-37);}.cls-165{fill:url(#Degradado_sin_nombre_37-22);}.cls-166{fill:url(#Degradado_sin_nombre_40-14);}.cls-167{fill:url(#Degradado_sin_nombre_44-8);}.cls-168{fill:url(#Degradado_sin_nombre_31-38);}.cls-169{fill:url(#Degradado_sin_nombre_37-23);}.cls-170{fill:url(#Degradado_sin_nombre_31-39);}.cls-171{fill:url(#Degradado_sin_nombre_37-24);}.cls-172{fill:url(#Degradado_sin_nombre_50-2);}.cls-173{fill:url(#Degradado_sin_nombre_43-32);}.cls-174{fill:url(#Degradado_sin_nombre_43-33);}.cls-175{fill:url(#Degradado_sin_nombre_11-20);}.cls-176{fill:url(#Degradado_sin_nombre_43-34);}.cls-177{fill:url(#Degradado_sin_nombre_11-21);}.cls-178{fill:url(#Degradado_sin_nombre_31-40);}.cls-179{fill:url(#Degradado_sin_nombre_37-25);}.cls-180{fill:url(#Degradado_sin_nombre_43-35);}.cls-181{fill:url(#Degradado_sin_nombre_11-22);}.cls-182{fill:url(#Degradado_sin_nombre_43-36);}.cls-183{fill:url(#Degradado_sin_nombre_43-37);}.cls-184{fill:url(#Degradado_sin_nombre_11-23);}.cls-185{fill:url(#Degradado_sin_nombre_31-41);}.cls-186{fill:url(#Degradado_sin_nombre_37-26);}.cls-187{fill:url(#Degradado_sin_nombre_43-38);}.cls-188{fill:url(#Degradado_sin_nombre_31-42);}.cls-189{fill:url(#Degradado_sin_nombre_37-27);}.cls-190{fill:url(#Degradado_sin_nombre_43-39);}.cls-191{fill:url(#Degradado_sin_nombre_11-24);}.cls-192{fill:url(#Degradado_sin_nombre_14-2);}</style><linearGradient id="Degradado_sin_nombre_31" x1="246.63" y1="100.78" x2="268.83" y2="100.78" gradientTransform="matrix(0.93, -0.01, 0.01, 1, 12.07, -31.06)" gradientUnits="userSpaceOnUse"><stop offset="0.01" stop-color="#9ed8da"/><stop offset="0.05" stop-color="#96ced2"/><stop offset="0.29" stop-color="#6b97a5"/><stop offset="0.51" stop-color="#496c82"/><stop offset="0.71" stop-color="#304d68"/><stop offset="0.88" stop-color="#213a59"/><stop offset="1" stop-color="#1c3353"/></linearGradient><linearGradient id="Degradado_sin_nombre_37" x1="228.91" y1="100.77" x2="252.04" y2="100.77" gradientTransform="matrix(0.93, -0.01, 0.01, 1, 12.07, -31.06)" gradientUnits="userSpaceOnUse"><stop offset="0.13" stop-color="#9ed8da"/><stop offset="0.62" stop-color="#c7edec"/><stop offset="1" stop-color="#e9fffa"/></linearGradient><linearGradient id="Degradado_sin_nombre_31-2" x1="241.77" y1="212.88" x2="262.34" y2="212.88" gradientTransform="translate(-0.47 -30.97) rotate(-0.43)" xlink:href="#Degradado_sin_nombre_31"/><linearGradient id="Degradado_sin_nombre_37-2" x1="225.36" y1="212.87" x2="246.78" y2="212.87" gradientTransform="translate(-0.47 -30.97) rotate(-0.43)" xlink:href="#Degradado_sin_nombre_37"/><linearGradient id="Degradado_sin_nombre_43" x1="239.69" y1="349.89" x2="259.36" y2="349.89" gradientTransform="translate(-0.47 -30.97) rotate(-0.43)" gradientUnits="userSpaceOnUse"><stop offset="0.13" stop-color="#1c3353"/><stop offset="0.17" stop-color="#3b3551"/><stop offset="0.21" stop-color="#5f374e"/><stop offset="0.26" stop-color="#7f394b"/><stop offset="0.31" stop-color="#9b3b49"/><stop offset="0.37" stop-color="#b13d47"/><stop offset="0.44" stop-color="#c23e46"/><stop offset="0.53" stop-color="#cd3e45"/><stop offset="0.66" stop-color="#d43f44"/><stop offset="1" stop-color="#d63f44"/></linearGradient><linearGradient id="Degradado_sin_nombre_11" x1="224.63" y1="349.89" x2="244.29" y2="349.89" gradientTransform="translate(-0.47 -30.97) rotate(-0.43)" gradientUnits="userSpaceOnUse"><stop offset="0" stop-color="#477599"/><stop offset="0.1" stop-color="#5585a3"/><stop offset="0.36" stop-color="#74a9bb"/><stop offset="0.61" stop-color="#8bc3cc"/><stop offset="0.83" stop-color="#99d2d6"/><stop offset="1" stop-color="#9ed8da"/></linearGradient><linearGradient id="Degradado_sin_nombre_43-2" x1="274.59" y1="307.8" x2="294.25" y2="307.8" xlink:href="#Degradado_sin_nombre_43"/><linearGradient id="Degradado_sin_nombre_11-2" x1="259.53" y1="307.8" x2="279.19" y2="307.8" xlink:href="#Degradado_sin_nombre_11"/><linearGradient id="Degradado_sin_nombre_31-3" x1="274.14" y1="141.71" x2="294.95" y2="141.71" gradientTransform="translate(-0.47 -30.97) rotate(-0.43)" xlink:href="#Degradado_sin_nombre_31"/><linearGradient id="Degradado_sin_nombre_37-3" x1="257.52" y1="141.7" x2="279.2" y2="141.7" gradientTransform="translate(-0.47 -30.97) rotate(-0.43)" xlink:href="#Degradado_sin_nombre_37"/><linearGradient id="Degradado_sin_nombre_40" x1="974.73" y1="-85.11" x2="1008.24" y2="-85.11" gradientTransform="translate(1243.81 2.68) rotate(179.57)" gradientUnits="userSpaceOnUse"><stop offset="0" stop-color="#d63f44"/><stop offset="0.4" stop-color="#d43f44"/><stop offset="0.54" stop-color="#cd3e45"/><stop offset="0.64" stop-color="#c23e46"/><stop offset="0.72" stop-color="#b13d47"/><stop offset="0.8" stop-color="#9b3b49"/><stop offset="0.86" stop-color="#7f394b"/><stop offset="0.91" stop-color="#5f374e"/><stop offset="0.96" stop-color="#3b3551"/><stop offset="1" stop-color="#1c3353"/></linearGradient><linearGradient id="Degradado_sin_nombre_44" x1="949.06" y1="-85.13" x2="982.57" y2="-85.13" gradientTransform="translate(1243.81 2.68) rotate(179.57)" gradientUnits="userSpaceOnUse"><stop offset="0" stop-color="#477599"/><stop offset="0.01" stop-color="#4a799c"/><stop offset="0.1" stop-color="#6496af"/><stop offset="0.21" stop-color="#79aebf"/><stop offset="0.33" stop-color="#8ac1cb"/><stop offset="0.46" stop-color="#95ced4"/><stop offset="0.64" stop-color="#9cd6d9"/><stop offset="1" stop-color="#9ed8da"/></linearGradient><linearGradient id="Degradado_sin_nombre_43-3" x1="249.68" y1="114.54" x2="283.19" y2="114.54" xlink:href="#Degradado_sin_nombre_43"/><linearGradient id="Degradado_sin_nombre_11-3" x1="224.01" y1="114.53" x2="257.51" y2="114.53" xlink:href="#Degradado_sin_nombre_11"/><linearGradient id="Degradado_sin_nombre_31-4" x1="260.37" y1="184.01" x2="294.96" y2="184.01" gradientTransform="translate(-0.47 -30.97) rotate(-0.43)" xlink:href="#Degradado_sin_nombre_31"/><linearGradient id="Degradado_sin_nombre_37-4" x1="232.76" y1="184" x2="268.8" y2="184" gradientTransform="translate(-0.47 -30.97) rotate(-0.43)" xlink:href="#Degradado_sin_nombre_37"/><linearGradient id="Degradado_sin_nombre_43-4" x1="272.78" y1="169.7" x2="294.96" y2="169.7" xlink:href="#Degradado_sin_nombre_43"/><linearGradient id="Degradado_sin_nombre_11-4" x1="255.8" y1="169.69" x2="277.97" y2="169.69" xlink:href="#Degradado_sin_nombre_11"/><linearGradient id="Degradado_sin_nombre_40-2" x1="987.21" y1="-155.5" x2="1021.7" y2="-155.5" xlink:href="#Degradado_sin_nombre_40"/><linearGradient id="Degradado_sin_nombre_44-2" x1="960.78" y1="-155.51" x2="995.27" y2="-155.51" xlink:href="#Degradado_sin_nombre_44"/><linearGradient id="Degradado_sin_nombre_31-5" x1="241.35" y1="374.73" x2="263.54" y2="374.73" gradientTransform="translate(-0.47 -30.97) rotate(-0.43)" xlink:href="#Degradado_sin_nombre_31"/><linearGradient id="Degradado_sin_nombre_37-5" x1="223.63" y1="374.73" x2="246.75" y2="374.73" gradientTransform="translate(-0.47 -30.97) rotate(-0.43)" xlink:href="#Degradado_sin_nombre_37"/><linearGradient id="Degradado_sin_nombre_50" x1="223.97" y1="382.86" x2="300.69" y2="382.86" gradientUnits="userSpaceOnUse"><stop offset="0.31" stop-color="#477599"/><stop offset="0.4" stop-color="#467397" stop-opacity="0.97"/><stop offset="0.5" stop-color="#436e92" stop-opacity="0.9"/><stop offset="0.59" stop-color="#3d6589" stop-opacity="0.76"/><stop offset="0.69" stop-color="#35597c" stop-opacity="0.58"/><stop offset="0.78" stop-color="#2b4a6b" stop-opacity="0.34"/><stop offset="0.88" stop-color="#1f3757" stop-opacity="0.06"/><stop offset="0.9" stop-color="#1c3353" stop-opacity="0"/></linearGradient><linearGradient id="Degradado_sin_nombre_43-5" x1="222.61" y1="134.1" x2="297.73" y2="134.1" gradientTransform="matrix(1, 0, 0, 1, 0, 0)" xlink:href="#Degradado_sin_nombre_43"/><linearGradient id="Degradado_sin_nombre_43-6" x1="250.26" y1="250.78" x2="286.72" y2="250.78" xlink:href="#Degradado_sin_nombre_43"/><linearGradient id="Degradado_sin_nombre_11-5" x1="222.33" y1="250.77" x2="258.79" y2="250.77" xlink:href="#Degradado_sin_nombre_11"/><linearGradient id="Degradado_sin_nombre_43-7" x1="258.49" y1="264.29" x2="294.95" y2="264.29" xlink:href="#Degradado_sin_nombre_43"/><linearGradient id="Degradado_sin_nombre_11-6" x1="230.55" y1="264.28" x2="267.01" y2="264.28" xlink:href="#Degradado_sin_nombre_11"/><linearGradient id="Degradado_sin_nombre_31-6" x1="242.36" y1="238.01" x2="264.56" y2="238.01" gradientTransform="translate(-0.47 -30.97) rotate(-0.43)" xlink:href="#Degradado_sin_nombre_31"/><linearGradient id="Degradado_sin_nombre_37-6" x1="224.64" y1="238.01" x2="247.77" y2="238.01" gradientTransform="translate(-0.47 -30.97) rotate(-0.43)" xlink:href="#Degradado_sin_nombre_37"/><linearGradient id="Degradado_sin_nombre_43-8" x1="222.74" y1="176.6" x2="297.89" y2="176.6" gradientTransform="matrix(1, 0, 0, 1, 0, 0)" xlink:href="#Degradado_sin_nombre_43"/><linearGradient id="Degradado_sin_nombre_43-9" x1="258.21" y1="321.58" x2="294.67" y2="321.58" xlink:href="#Degradado_sin_nombre_43"/><linearGradient id="Degradado_sin_nombre_11-7" x1="230.28" y1="321.53" x2="266.74" y2="321.53" xlink:href="#Degradado_sin_nombre_11"/><linearGradient id="Degradado_sin_nombre_31-7" x1="162.78" y1="286.04" x2="184.56" y2="286.04" gradientTransform="translate(444.15 529.95) rotate(179.57)" xlink:href="#Degradado_sin_nombre_31"/><linearGradient id="Degradado_sin_nombre_37-7" x1="145.39" y1="286.03" x2="168.08" y2="286.03" gradientTransform="translate(444.15 529.95) rotate(179.57)" xlink:href="#Degradado_sin_nombre_37"/><linearGradient id="Degradado_sin_nombre_43-10" x1="223.49" y1="271.33" x2="298.65" y2="271.33" gradientTransform="matrix(1, 0, 0, 1, 0, 0)" xlink:href="#Degradado_sin_nombre_43"/><linearGradient id="Degradado_sin_nombre_31-8" x1="184.93" y1="228.58" x2="217.6" y2="228.58" gradientTransform="translate(444.15 529.95) rotate(179.57)" xlink:href="#Degradado_sin_nombre_31"/><linearGradient id="Degradado_sin_nombre_37-8" x1="158.86" y1="228.57" x2="192.89" y2="228.57" gradientTransform="translate(444.15 529.95) rotate(179.57)" xlink:href="#Degradado_sin_nombre_37"/><linearGradient id="Degradado_sin_nombre_43-11" x1="223.82" y1="313.06" x2="298.98" y2="313.06" gradientTransform="matrix(1, 0, 0, 1, 0, 0)" xlink:href="#Degradado_sin_nombre_43"/><linearGradient id="Degradado_sin_nombre_31-9" x1="188.05" y1="388.75" x2="210.25" y2="388.75" gradientTransform="matrix(1.62, -0.01, 0.01, 1, -53.61, -30.57)" xlink:href="#Degradado_sin_nombre_31"/><linearGradient id="Degradado_sin_nombre_37-9" x1="170.33" y1="388.75" x2="193.46" y2="388.75" gradientTransform="matrix(1.62, -0.01, 0.01, 1, -53.61, -30.57)" xlink:href="#Degradado_sin_nombre_37"/><linearGradient id="Degradado_sin_nombre_43-12" x1="261.63" y1="402.74" x2="298.09" y2="402.74" gradientTransform="matrix(0.95, -0.01, 0.01, 1, 11.72, -31.06)" xlink:href="#Degradado_sin_nombre_43"/><linearGradient id="Degradado_sin_nombre_11-8" x1="233.69" y1="402.72" x2="270.15" y2="402.72" gradientTransform="matrix(0.95, -0.01, 0.01, 1, 11.72, -31.06)" xlink:href="#Degradado_sin_nombre_11"/><linearGradient id="Degradado_sin_nombre_14" x1="272.24" y1="387.59" x2="239.14" y2="455.06" gradientUnits="userSpaceOnUse"><stop offset="0" stop-color="#d63f44"/><stop offset="0.07" stop-color="#bc3d46" stop-opacity="0.86"/><stop offset="0.19" stop-color="#923b49" stop-opacity="0.63"/><stop offset="0.32" stop-color="#6e384c" stop-opacity="0.44"/><stop offset="0.44" stop-color="#50364f" stop-opacity="0.28"/><stop offset="0.57" stop-color="#393551" stop-opacity="0.16"/><stop offset="0.71" stop-color="#293452" stop-opacity="0.07"/><stop offset="0.84" stop-color="#1f3353" stop-opacity="0.02"/><stop offset="0.99" stop-color="#1c3353" stop-opacity="0"/></linearGradient><linearGradient id="Degradado_sin_nombre_23" x1="91.19" y1="338.1" x2="209.72" y2="338.1" gradientUnits="userSpaceOnUse"><stop offset="0" stop-color="#1c3353"/><stop offset="0.03" stop-color="#1c3353"/><stop offset="0.04" stop-color="#1c3353"/><stop offset="0.1" stop-color="#223b59"/><stop offset="0.19" stop-color="#33506b"/><stop offset="0.3" stop-color="#4f7388"/><stop offset="0.42" stop-color="#75a3af"/><stop offset="0.54" stop-color="#9ed8da"/><stop offset="0.6" stop-color="#8dc2c8"/><stop offset="0.79" stop-color="#507589"/><stop offset="0.93" stop-color="#2b4562"/><stop offset="1" stop-color="#1c3353"/><stop offset="1" stop-color="#1e3555"/><stop offset="1" stop-color="#243d5b"/><stop offset="1" stop-color="#2e4965"/><stop offset="1" stop-color="#3c5c74"/><stop offset="1" stop-color="#4f7388"/><stop offset="1" stop-color="#6691a0"/><stop offset="1" stop-color="#80b2bb"/><stop offset="1" stop-color="#9ed8da"/></linearGradient><linearGradient id="Degradado_sin_nombre_43-13" x1="172.16" y1="408.86" x2="202.54" y2="408.86" xlink:href="#Degradado_sin_nombre_43"/><linearGradient id="Degradado_sin_nombre_11-9" x1="148.89" y1="408.83" x2="179.27" y2="408.83" xlink:href="#Degradado_sin_nombre_11"/><linearGradient id="Degradado_sin_nombre_31-10" x1="171.22" y1="183.56" x2="203.38" y2="183.56" gradientTransform="translate(-0.47 -30.97) rotate(-0.43)" xlink:href="#Degradado_sin_nombre_31"/><linearGradient id="Degradado_sin_nombre_37-10" x1="145.56" y1="183.53" x2="179.06" y2="183.53" gradientTransform="translate(-0.47 -30.97) rotate(-0.43)" xlink:href="#Degradado_sin_nombre_37"/><linearGradient id="Degradado_sin_nombre_31-11" x1="115.71" y1="127.99" x2="150.01" y2="127.99" xlink:href="#Degradado_sin_nombre_31"/><linearGradient id="Degradado_sin_nombre_37-11" x1="88.34" y1="127.96" x2="124.07" y2="127.96" xlink:href="#Degradado_sin_nombre_37"/><linearGradient id="Degradado_sin_nombre_40-3" x1="1080.31" y1="-122.07" x2="1132.08" y2="-122.07" xlink:href="#Degradado_sin_nombre_40"/><linearGradient id="Degradado_sin_nombre_44-3" x1="1040.65" y1="-122.12" x2="1092.42" y2="-122.12" xlink:href="#Degradado_sin_nombre_44"/><linearGradient id="Degradado_sin_nombre_43-14" x1="133.4" y1="146.68" x2="185.17" y2="146.68" xlink:href="#Degradado_sin_nombre_43"/><linearGradient id="Degradado_sin_nombre_11-10" x1="93.74" y1="146.62" x2="145.51" y2="146.62" xlink:href="#Degradado_sin_nombre_11"/><linearGradient id="Degradado_sin_nombre_31-12" x1="150.02" y1="240.93" x2="203.46" y2="240.93" gradientTransform="translate(-0.47 -30.97) rotate(-0.43)" xlink:href="#Degradado_sin_nombre_31"/><linearGradient id="Degradado_sin_nombre_37-12" x1="107.36" y1="240.88" x2="163.04" y2="240.88" gradientTransform="translate(-0.47 -30.97) rotate(-0.43)" xlink:href="#Degradado_sin_nombre_37"/><linearGradient id="Degradado_sin_nombre_43-15" x1="169.18" y1="221.53" x2="203.43" y2="221.53" xlink:href="#Degradado_sin_nombre_43"/><linearGradient id="Degradado_sin_nombre_11-11" x1="142.93" y1="221.5" x2="177.19" y2="221.5" xlink:href="#Degradado_sin_nombre_11"/><linearGradient id="Degradado_sin_nombre_40-4" x1="1099.48" y1="-217.53" x2="1152.77" y2="-217.53" xlink:href="#Degradado_sin_nombre_40"/><linearGradient id="Degradado_sin_nombre_44-4" x1="1058.66" y1="-217.58" x2="1111.94" y2="-217.58" xlink:href="#Degradado_sin_nombre_44"/><linearGradient id="Degradado_sin_nombre_31-13" x1="121.33" y1="280.06" x2="153.11" y2="280.06" gradientTransform="translate(-0.47 -30.97) rotate(-0.43)" xlink:href="#Degradado_sin_nombre_31"/><linearGradient id="Degradado_sin_nombre_37-13" x1="95.97" y1="280.03" x2="129.07" y2="280.03" gradientTransform="translate(-0.47 -30.97) rotate(-0.43)" xlink:href="#Degradado_sin_nombre_37"/><linearGradient id="Degradado_sin_nombre_31-14" x1="120.9" y1="499.61" x2="155.19" y2="499.61" gradientTransform="translate(-0.47 -30.97) rotate(-0.43)" xlink:href="#Degradado_sin_nombre_31"/><linearGradient id="Degradado_sin_nombre_37-14" x1="93.52" y1="499.58" x2="129.25" y2="499.58" gradientTransform="translate(-0.47 -30.97) rotate(-0.43)" xlink:href="#Degradado_sin_nombre_37"/><linearGradient id="Degradado_sin_nombre_43-16" x1="134.5" y1="331.49" x2="190.83" y2="331.49" xlink:href="#Degradado_sin_nombre_43"/><linearGradient id="Degradado_sin_nombre_11-12" x1="91.34" y1="331.44" x2="147.67" y2="331.44" xlink:href="#Degradado_sin_nombre_11"/><linearGradient id="Degradado_sin_nombre_43-17" x1="147.22" y1="349.83" x2="203.55" y2="349.83" xlink:href="#Degradado_sin_nombre_43"/><linearGradient id="Degradado_sin_nombre_11-13" x1="104.06" y1="349.77" x2="160.39" y2="349.77" xlink:href="#Degradado_sin_nombre_11"/><linearGradient id="Degradado_sin_nombre_31-15" x1="122.27" y1="314.15" x2="156.57" y2="314.15" gradientTransform="translate(-0.47 -30.97) rotate(-0.43)" xlink:href="#Degradado_sin_nombre_31"/><linearGradient id="Degradado_sin_nombre_37-15" x1="94.9" y1="314.12" x2="130.63" y2="314.12" gradientTransform="translate(-0.47 -30.97) rotate(-0.43)" xlink:href="#Degradado_sin_nombre_37"/><linearGradient id="Degradado_sin_nombre_43-18" x1="146.88" y1="427.55" x2="203.21" y2="427.55" xlink:href="#Degradado_sin_nombre_43"/><linearGradient id="Degradado_sin_nombre_11-14" x1="103.72" y1="427.44" x2="160.05" y2="427.44" xlink:href="#Degradado_sin_nombre_11"/><linearGradient id="Degradado_sin_nombre_31-16" x1="263.59" y1="195.55" x2="297.24" y2="195.55" gradientTransform="translate(444.15 529.95) rotate(179.57)" xlink:href="#Degradado_sin_nombre_31"/><linearGradient id="Degradado_sin_nombre_37-16" x1="236.74" y1="195.52" x2="271.79" y2="195.52" gradientTransform="translate(444.15 529.95) rotate(179.57)" xlink:href="#Degradado_sin_nombre_37"/><linearGradient id="Degradado_sin_nombre_43-19" x1="118.31" y1="465.91" x2="148.69" y2="465.91" xlink:href="#Degradado_sin_nombre_43"/><linearGradient id="Degradado_sin_nombre_11-15" x1="95.04" y1="465.88" x2="125.42" y2="465.88" xlink:href="#Degradado_sin_nombre_11"/><linearGradient id="Degradado_sin_nombre_31-17" x1="297.74" y1="117.64" x2="348.21" y2="117.64" gradientTransform="translate(444.15 529.95) rotate(179.57)" xlink:href="#Degradado_sin_nombre_31"/><linearGradient id="Degradado_sin_nombre_37-17" x1="257.46" y1="117.59" x2="310.04" y2="117.59" gradientTransform="translate(444.15 529.95) rotate(179.57)" xlink:href="#Degradado_sin_nombre_37"/><linearGradient id="Degradado_sin_nombre_31-18" x1="200.21" y1="382.4" x2="216.96" y2="382.4" gradientTransform="matrix(1, 0, 0, 1, 0, 0)" xlink:href="#Degradado_sin_nombre_31"/><linearGradient id="Degradado_sin_nombre_31-19" x1="73.92" y1="142.03" x2="91.65" y2="142.03" gradientTransform="matrix(1, 0, 0, 1, 0, 0)" xlink:href="#Degradado_sin_nombre_31"/><linearGradient id="Degradado_sin_nombre_31-20" x1="73.92" y1="146.3" x2="88.11" y2="146.3" gradientTransform="matrix(1, 0, 0, 1, 0, 0)" xlink:href="#Degradado_sin_nombre_31"/><linearGradient id="Degradado_sin_nombre_31-21" x1="73.92" y1="148.96" x2="83.18" y2="148.96" gradientTransform="matrix(1, 0, 0, 1, 0, 0)" xlink:href="#Degradado_sin_nombre_31"/><linearGradient id="Degradado_sin_nombre_31-22" x1="84.57" y1="148.96" x2="93.83" y2="148.96" gradientTransform="matrix(1, 0, 0, 1, 0, 0)" xlink:href="#Degradado_sin_nombre_31"/><linearGradient id="Degradado_sin_nombre_31-23" x1="89.55" y1="146.3" x2="98.11" y2="146.3" gradientTransform="matrix(1, 0, 0, 1, 0, 0)" xlink:href="#Degradado_sin_nombre_31"/><linearGradient id="Degradado_sin_nombre_31-24" x1="92.71" y1="142.03" x2="100.93" y2="142.03" gradientTransform="matrix(1, 0, 0, 1, 0, 0)" xlink:href="#Degradado_sin_nombre_31"/><linearGradient id="Degradado_sin_nombre_43-20" x1="50.12" y1="172.33" x2="64.27" y2="172.33" gradientTransform="matrix(1, 0, 0, 1, 0, 0)" xlink:href="#Degradado_sin_nombre_43"/><linearGradient id="Degradado_sin_nombre_43-21" x1="50.12" y1="175.4" x2="61.45" y2="175.4" gradientTransform="matrix(1, 0, 0, 1, 0, 0)" xlink:href="#Degradado_sin_nombre_43"/><linearGradient id="Degradado_sin_nombre_43-22" x1="50.12" y1="177.31" x2="57.51" y2="177.31" gradientTransform="matrix(1, 0, 0, 1, 0, 0)" xlink:href="#Degradado_sin_nombre_43"/><linearGradient id="Degradado_sin_nombre_43-23" x1="58.62" y1="177.31" x2="66.02" y2="177.31" gradientTransform="matrix(1, 0, 0, 1, 0, 0)" xlink:href="#Degradado_sin_nombre_43"/><linearGradient id="Degradado_sin_nombre_43-24" x1="62.6" y1="175.4" x2="69.44" y2="175.4" gradientTransform="matrix(1, 0, 0, 1, 0, 0)" xlink:href="#Degradado_sin_nombre_43"/><linearGradient id="Degradado_sin_nombre_43-25" x1="65.12" y1="172.33" x2="71.69" y2="172.33" gradientTransform="matrix(1, 0, 0, 1, 0, 0)" xlink:href="#Degradado_sin_nombre_43"/><linearGradient id="Degradado_sin_nombre_31-25" x1="98.86" y1="201.25" x2="145.8" y2="201.25" gradientTransform="matrix(1, 0, 0, 1, 0, 0)" xlink:href="#Degradado_sin_nombre_31"/><linearGradient id="Degradado_sin_nombre_40-5" x1="125.27" y1="189.79" x2="146.29" y2="189.79" gradientTransform="matrix(1, 0, 0, 1, 0, 0)" xlink:href="#Degradado_sin_nombre_40"/><linearGradient id="Degradado_sin_nombre_40-6" x1="129.67" y1="175.09" x2="145.87" y2="175.09" gradientTransform="matrix(1, 0, 0, 1, 0, 0)" xlink:href="#Degradado_sin_nombre_40"/><linearGradient id="Degradado_sin_nombre_31-26" x1="116.58" y1="210.17" x2="124.61" y2="210.17" gradientTransform="matrix(1, 0, 0, 1, 0, 0)" xlink:href="#Degradado_sin_nombre_31"/><linearGradient id="Degradado_sin_nombre_44-5" x1="126.74" y1="173.78" x2="134.72" y2="173.78" gradientTransform="matrix(1, 0, 0, 1, 0, 0)" xlink:href="#Degradado_sin_nombre_44"/><linearGradient id="Degradado_sin_nombre_43-26" x1="135.32" y1="182.88" x2="146.26" y2="182.88" gradientTransform="matrix(1, 0, 0, 1, 0, 0)" xlink:href="#Degradado_sin_nombre_43"/><linearGradient id="Degradado_sin_nombre_44-6" x1="136.97" y1="175.29" x2="150.38" y2="175.29" gradientTransform="matrix(1, 0, 0, 1, 0, 0)" xlink:href="#Degradado_sin_nombre_44"/><linearGradient id="Degradado_sin_nombre_31-27" x1="117.3" y1="518.65" x2="151.6" y2="518.65" gradientTransform="matrix(1.62, -0.01, 0.01, 1, -53.61, -30.57)" xlink:href="#Degradado_sin_nombre_31"/><linearGradient id="Degradado_sin_nombre_37-18" x1="89.92" y1="518.61" x2="125.66" y2="518.61" gradientTransform="matrix(1.62, -0.01, 0.01, 1, -53.61, -30.57)" xlink:href="#Degradado_sin_nombre_37"/><linearGradient id="Degradado_sin_nombre_43-27" x1="146.05" y1="537.63" x2="202.38" y2="537.63" gradientTransform="matrix(0.95, -0.01, 0.01, 1, 11.72, -31.06)" xlink:href="#Degradado_sin_nombre_43"/><linearGradient id="Degradado_sin_nombre_11-16" x1="102.89" y1="537.58" x2="159.22" y2="537.58" gradientTransform="matrix(0.95, -0.01, 0.01, 1, 11.72, -31.06)" xlink:href="#Degradado_sin_nombre_11"/><linearGradient id="Degradado_sin_nombre_31-28" x1="202.85" y1="252.34" x2="218.87" y2="252.34" gradientTransform="matrix(1, 0, 0, 1, 0, 0)" xlink:href="#Degradado_sin_nombre_31"/><linearGradient id="Degradado_sin_nombre_31-29" x1="202.85" y1="255.16" x2="215.67" y2="255.16" gradientTransform="matrix(1, 0, 0, 1, 0, 0)" xlink:href="#Degradado_sin_nombre_31"/><linearGradient id="Degradado_sin_nombre_31-30" x1="202.85" y1="256.92" x2="211.22" y2="256.92" gradientTransform="matrix(1, 0, 0, 1, 0, 0)" xlink:href="#Degradado_sin_nombre_31"/><linearGradient id="Degradado_sin_nombre_31-31" x1="212.47" y1="256.92" x2="220.85" y2="256.92" gradientTransform="matrix(1, 0, 0, 1, 0, 0)" xlink:href="#Degradado_sin_nombre_31"/><linearGradient id="Degradado_sin_nombre_31-32" x1="216.98" y1="255.16" x2="224.71" y2="255.16" gradientTransform="matrix(1, 0, 0, 1, 0, 0)" xlink:href="#Degradado_sin_nombre_31"/><linearGradient id="Degradado_sin_nombre_31-33" x1="219.83" y1="252.34" x2="227.26" y2="252.34" gradientTransform="matrix(1, 0, 0, 1, 0, 0)" xlink:href="#Degradado_sin_nombre_31"/><linearGradient id="Degradado_sin_nombre_40-7" x1="203.49" y1="271.08" x2="217.64" y2="271.08" gradientTransform="matrix(1, 0, 0, 1, 0, 0)" xlink:href="#Degradado_sin_nombre_40"/><linearGradient id="Degradado_sin_nombre_40-8" x1="203.49" y1="273.86" x2="214.82" y2="273.86" gradientTransform="matrix(1, 0, 0, 1, 0, 0)" xlink:href="#Degradado_sin_nombre_40"/><linearGradient id="Degradado_sin_nombre_40-9" x1="203.49" y1="275.58" x2="210.88" y2="275.58" gradientTransform="matrix(1, 0, 0, 1, 0, 0)" xlink:href="#Degradado_sin_nombre_40"/><linearGradient id="Degradado_sin_nombre_40-10" x1="211.99" y1="275.58" x2="219.39" y2="275.58" gradientTransform="matrix(1, 0, 0, 1, 0, 0)" xlink:href="#Degradado_sin_nombre_40"/><linearGradient id="Degradado_sin_nombre_40-11" x1="215.97" y1="273.86" x2="222.81" y2="273.86" gradientTransform="matrix(1, 0, 0, 1, 0, 0)" xlink:href="#Degradado_sin_nombre_40"/><linearGradient id="Degradado_sin_nombre_40-12" x1="218.49" y1="271.08" x2="225.06" y2="271.08" gradientTransform="matrix(1, 0, 0, 1, 0, 0)" xlink:href="#Degradado_sin_nombre_40"/><linearGradient id="Degradado_sin_nombre_43-28" x1="56.08" y1="513" x2="75.74" y2="513" xlink:href="#Degradado_sin_nombre_43"/><linearGradient id="Degradado_sin_nombre_11-17" x1="41.01" y1="512.99" x2="60.67" y2="512.99" xlink:href="#Degradado_sin_nombre_11"/><linearGradient id="Degradado_sin_nombre_31-34" x1="55.62" y1="346.91" x2="76.43" y2="346.91" gradientTransform="translate(-0.47 -30.97) rotate(-0.43)" xlink:href="#Degradado_sin_nombre_31"/><linearGradient id="Degradado_sin_nombre_37-19" x1="39.01" y1="346.9" x2="60.69" y2="346.9" gradientTransform="translate(-0.47 -30.97) rotate(-0.43)" xlink:href="#Degradado_sin_nombre_37"/><linearGradient id="Degradado_sin_nombre_43-29" x1="54.27" y1="374.9" x2="76.44" y2="374.9" xlink:href="#Degradado_sin_nombre_43"/><linearGradient id="Degradado_sin_nombre_11-18" x1="37.28" y1="374.89" x2="59.45" y2="374.89" xlink:href="#Degradado_sin_nombre_11"/><linearGradient id="Degradado_sin_nombre_43-30" x1="39.7" y1="526.78" x2="76.16" y2="526.78" xlink:href="#Degradado_sin_nombre_43"/><linearGradient id="Degradado_sin_nombre_31-35" x1="381.29" y1="80.84" x2="403.07" y2="80.84" gradientTransform="translate(444.15 529.95) rotate(179.57)" xlink:href="#Degradado_sin_nombre_31"/><linearGradient id="Degradado_sin_nombre_37-20" x1="363.91" y1="80.83" x2="386.6" y2="80.83" gradientTransform="translate(444.15 529.95) rotate(179.57)" xlink:href="#Degradado_sin_nombre_37"/><linearGradient id="Degradado_sin_nombre_31-36" x1="10.5" y1="305.98" x2="32.69" y2="305.98" xlink:href="#Degradado_sin_nombre_31"/><linearGradient id="Degradado_sin_nombre_37-21" x1="-7.22" y1="305.97" x2="15.9" y2="305.97" xlink:href="#Degradado_sin_nombre_37"/><linearGradient id="Degradado_sin_nombre_40-13" x1="1193.25" y1="-290.31" x2="1226.75" y2="-290.31" xlink:href="#Degradado_sin_nombre_40"/><linearGradient id="Degradado_sin_nombre_44-7" x1="1167.58" y1="-290.32" x2="1201.08" y2="-290.32" xlink:href="#Degradado_sin_nombre_44"/><linearGradient id="Degradado_sin_nombre_43-31" x1="31.17" y1="319.74" x2="64.67" y2="319.74" xlink:href="#Degradado_sin_nombre_43"/><linearGradient id="Degradado_sin_nombre_11-19" x1="5.49" y1="319.72" x2="39" y2="319.72" xlink:href="#Degradado_sin_nombre_11"/><linearGradient id="Degradado_sin_nombre_31-37" x1="41.85" y1="389.21" x2="76.45" y2="389.21" gradientTransform="translate(-0.47 -30.97) rotate(-0.43)" xlink:href="#Degradado_sin_nombre_31"/><linearGradient id="Degradado_sin_nombre_37-22" x1="14.24" y1="389.2" x2="50.28" y2="389.2" gradientTransform="translate(-0.47 -30.97) rotate(-0.43)" xlink:href="#Degradado_sin_nombre_37"/><linearGradient id="Degradado_sin_nombre_40-14" x1="1205.72" y1="-360.69" x2="1240.21" y2="-360.69" xlink:href="#Degradado_sin_nombre_40"/><linearGradient id="Degradado_sin_nombre_44-8" x1="1179.29" y1="-360.7" x2="1213.78" y2="-360.7" xlink:href="#Degradado_sin_nombre_44"/><linearGradient id="Degradado_sin_nombre_31-38" x1="23.26" y1="418.08" x2="43.83" y2="418.08" gradientTransform="translate(-0.47 -30.97) rotate(-0.43)" xlink:href="#Degradado_sin_nombre_31"/><linearGradient id="Degradado_sin_nombre_37-23" x1="6.84" y1="418.07" x2="28.27" y2="418.07" gradientTransform="translate(-0.47 -30.97) rotate(-0.43)" xlink:href="#Degradado_sin_nombre_37"/><linearGradient id="Degradado_sin_nombre_31-39" x1="22.83" y1="579.93" x2="45.03" y2="579.93" gradientTransform="translate(-0.47 -30.97) rotate(-0.43)" xlink:href="#Degradado_sin_nombre_31"/><linearGradient id="Degradado_sin_nombre_37-24" x1="5.11" y1="579.93" x2="28.24" y2="579.93" gradientTransform="translate(-0.47 -30.97) rotate(-0.43)" xlink:href="#Degradado_sin_nombre_37"/><linearGradient id="Degradado_sin_nombre_50-2" x1="7" y1="589.69" x2="83.73" y2="589.69" xlink:href="#Degradado_sin_nombre_50"/><linearGradient id="Degradado_sin_nombre_43-32" x1="5.64" y1="340.94" x2="80.77" y2="340.94" gradientTransform="matrix(1, 0, 0, 1, 0, 0)" xlink:href="#Degradado_sin_nombre_43"/><linearGradient id="Degradado_sin_nombre_43-33" x1="31.75" y1="455.98" x2="68.21" y2="455.98" xlink:href="#Degradado_sin_nombre_43"/><linearGradient id="Degradado_sin_nombre_11-20" x1="3.81" y1="455.97" x2="40.27" y2="455.97" xlink:href="#Degradado_sin_nombre_11"/><linearGradient id="Degradado_sin_nombre_43-34" x1="39.97" y1="469.49" x2="76.43" y2="469.49" xlink:href="#Degradado_sin_nombre_43"/><linearGradient id="Degradado_sin_nombre_11-21" x1="12.03" y1="469.47" x2="48.5" y2="469.47" xlink:href="#Degradado_sin_nombre_11"/><linearGradient id="Degradado_sin_nombre_31-40" x1="23.84" y1="443.21" x2="46.04" y2="443.21" gradientTransform="translate(-0.47 -30.97) rotate(-0.43)" xlink:href="#Degradado_sin_nombre_31"/><linearGradient id="Degradado_sin_nombre_37-25" x1="6.13" y1="443.21" x2="29.25" y2="443.21" gradientTransform="translate(-0.47 -30.97) rotate(-0.43)" xlink:href="#Degradado_sin_nombre_37"/><linearGradient id="Degradado_sin_nombre_43-35" x1="5.77" y1="383.43" x2="80.93" y2="383.43" gradientTransform="matrix(1, 0, 0, 1, 0, 0)" xlink:href="#Degradado_sin_nombre_43"/><linearGradient id="Degradado_sin_nombre_11-22" x1="11.76" y1="526.73" x2="48.22" y2="526.73" xlink:href="#Degradado_sin_nombre_11"/><linearGradient id="Degradado_sin_nombre_43-36" x1="6.52" y1="478.16" x2="81.68" y2="478.16" gradientTransform="matrix(1, 0, 0, 1, 0, 0)" xlink:href="#Degradado_sin_nombre_43"/><linearGradient id="Degradado_sin_nombre_43-37" x1="21.18" y1="555.09" x2="40.84" y2="555.09" xlink:href="#Degradado_sin_nombre_43"/><linearGradient id="Degradado_sin_nombre_11-23" x1="6.12" y1="555.09" x2="25.78" y2="555.09" xlink:href="#Degradado_sin_nombre_11"/><linearGradient id="Degradado_sin_nombre_31-41" x1="403.45" y1="23.38" x2="436.11" y2="23.38" gradientTransform="translate(444.15 529.95) rotate(179.57)" xlink:href="#Degradado_sin_nombre_31"/><linearGradient id="Degradado_sin_nombre_37-26" x1="377.37" y1="23.37" x2="411.41" y2="23.37" gradientTransform="translate(444.15 529.95) rotate(179.57)" xlink:href="#Degradado_sin_nombre_37"/><linearGradient id="Degradado_sin_nombre_43-38" x1="6.85" y1="519.9" x2="82.01" y2="519.9" gradientTransform="matrix(1, 0, 0, 1, 0, 0)" xlink:href="#Degradado_sin_nombre_43"/><linearGradient id="Degradado_sin_nombre_31-42" x1="53.3" y1="593.95" x2="75.49" y2="593.95" gradientTransform="matrix(1.62, -0.01, 0.01, 1, -53.61, -30.57)" xlink:href="#Degradado_sin_nombre_31"/><linearGradient id="Degradado_sin_nombre_37-27" x1="35.58" y1="593.95" x2="58.7" y2="593.95" gradientTransform="matrix(1.62, -0.01, 0.01, 1, -53.61, -30.57)" xlink:href="#Degradado_sin_nombre_37"/><linearGradient id="Degradado_sin_nombre_43-39" x1="31.65" y1="607.93" x2="68.11" y2="607.93" gradientTransform="matrix(0.95, -0.01, 0.01, 1, 11.72, -31.06)" xlink:href="#Degradado_sin_nombre_43"/><linearGradient id="Degradado_sin_nombre_11-24" x1="3.71" y1="607.92" x2="40.17" y2="607.92" gradientTransform="matrix(0.95, -0.01, 0.01, 1, 11.72, -31.06)" xlink:href="#Degradado_sin_nombre_11"/><linearGradient id="Degradado_sin_nombre_14-2" x1="55.27" y1="594.42" x2="22.17" y2="661.9" xlink:href="#Degradado_sin_nombre_14"/></defs><g class="cls-1"><path class="cls-2" d="M260.14,70.54l-17.61.12a1.48,1.48,0,0,1-1.48-1.48V66.82a1.48,1.48,0,0,1,1.45-1.51l17.61-.12a1.48,1.48,0,0,1,1.48,1.48V69A1.47,1.47,0,0,1,260.14,70.54Z"/><path class="cls-3" d="M244.61,70.65l-18.48.13a1.48,1.48,0,0,1-1.47-1.49l0-2.36a1.47,1.47,0,0,1,1.45-1.5l18.47-.13A1.48,1.48,0,0,1,246,66.78l0,2.36A1.49,1.49,0,0,1,244.61,70.65Z"/><path class="cls-4" d="M261.9,182.63l-17.41.12a1.54,1.54,0,0,1-1.59-1.48l0-2.37a1.55,1.55,0,0,1,1.57-1.5l17.41-.12a1.53,1.53,0,0,1,1.59,1.48l0,2.36A1.54,1.54,0,0,1,261.9,182.63Z"/><path class="cls-5" d="M246.34,182.74l-18.26.13a1.55,1.55,0,0,1-1.6-1.49V179a1.52,1.52,0,0,1,1.56-1.5l18.27-.13a1.53,1.53,0,0,1,1.59,1.48l0,2.36A1.54,1.54,0,0,1,246.34,182.74Z"/><path class="cls-6" d="M259.94,319.66l-16.5.12a1.55,1.55,0,0,1-1.59-1.49l0-2.36a1.54,1.54,0,0,1,1.57-1.5l16.5-.12a1.53,1.53,0,0,1,1.59,1.48l0,2.36A1.54,1.54,0,0,1,259.94,319.66Z"/><path class="cls-7" d="M244.88,319.77l-16.5.11a1.53,1.53,0,0,1-1.59-1.48l0-2.36a1.54,1.54,0,0,1,1.57-1.51l16.5-.11a1.53,1.53,0,0,1,1.59,1.48l0,2.36A1.55,1.55,0,0,1,244.88,319.77Z"/><path class="cls-8" d="M272.33,110.6c-6.21-3.29-32.43-14.69-38.11-19.74-5.16-4.59-10.41-7.26-12.14-17.44a3.22,3.22,0,0,1-.22.64,9.32,9.32,0,0,1-.15,1.06c.48,4.9,1.38,10.94,2.79,13.72,2.73,5.43,4.42,6.93,10.68,12.44,6.72,5.89,43.88,23,49.64,26.75,5.18,3.33,8.88,6.61,10.69,12.85l1.82,6.24C302.39,122.8,277.56,113.38,272.33,110.6Z"/><path class="cls-8" d="M273.37,248.26c-6.2-3.29-32.42-14.69-38.1-19.74s-11.35-7.71-12.52-20.35l0-.15c0,1.13,0,2.27-.1,3.4.44,5.08,1.37,12,2.91,15.08,2.74,5.43,4.42,6.92,10.69,12.43,6.71,5.9,43.87,23,49.64,26.75,5.18,3.34,8.88,6.61,10.69,12.85l1.81,6.25C303.44,260.45,278.61,251,273.37,248.26Z"/><path class="cls-9" d="M294.52,277.3l-16.5.12a1.54,1.54,0,0,1-1.59-1.48l0-2.36a1.55,1.55,0,0,1,1.57-1.51l16.5-.12a1.55,1.55,0,0,1,1.59,1.49l0,2.36A1.53,1.53,0,0,1,294.52,277.3Z"/><path class="cls-10" d="M279.46,277.41l-16.5.12a1.53,1.53,0,0,1-1.59-1.48l0-2.37a1.53,1.53,0,0,1,1.57-1.5l16.5-.12a1.54,1.54,0,0,1,1.59,1.48l0,2.37A1.54,1.54,0,0,1,279.46,277.41Z"/><path class="cls-8" d="M273.08,205c-6.21-3.29-32.43-14.69-38.11-19.74-5.51-4.9-11.12-7.62-12.44-19.63,0,.43-.07.85-.09,1.28a10.52,10.52,0,0,1,.11,1.51,3.82,3.82,0,0,1-.11.9c.48,4.93,1.38,11.1,2.81,13.92,2.73,5.43,4.41,6.92,10.68,12.43,6.72,5.9,43.87,23,49.64,26.75,5.18,3.34,8.88,6.61,10.69,12.86l1.82,6.24C303.14,217.17,278.31,207.76,273.08,205Z"/><path class="cls-8" d="M297,104.23c5.06-24.33-19.77-33.74-25-36.52C265.78,64.42,239.56,53,233.88,48s-11.35-7.71-12.52-20.35c-1-10.41-.34,12.1,2.79,18.33,2.74,5.43,4.42,6.92,10.69,12.43,6.71,5.9,43.87,23,49.64,26.75,5.18,3.34,8.88,6.61,10.69,12.85Z"/><path class="cls-11" d="M294,111.21l-17.65.13a1.53,1.53,0,0,1-1.59-1.48l0-2.37a1.53,1.53,0,0,1,1.57-1.5l17.65-.13a1.55,1.55,0,0,1,1.59,1.49l0,2.36A1.54,1.54,0,0,1,294,111.21Z"/><path class="cls-12" d="M278.23,111.33l-18.52.13a1.54,1.54,0,0,1-1.59-1.48l0-2.37a1.53,1.53,0,0,1,1.57-1.5l18.52-.13a1.53,1.53,0,0,1,1.59,1.48l0,2.36A1.55,1.55,0,0,1,278.23,111.33Z"/><path class="cls-13" d="M237.8,92.68l30.35-.22A1.55,1.55,0,0,1,269.74,94l0,2.36a1.54,1.54,0,0,1-1.57,1.5L237.84,98a1.54,1.54,0,0,1-1.59-1.48V94.18A1.52,1.52,0,0,1,237.8,92.68Z"/><path class="cls-14" d="M263.47,92.5l30.35-.22a1.54,1.54,0,0,1,1.59,1.48l0,2.37a1.54,1.54,0,0,1-1.57,1.5l-30.34.22a1.54,1.54,0,0,1-1.59-1.49l0-2.36A1.52,1.52,0,0,1,263.47,92.5Z"/><path class="cls-15" d="M282,84.13l-30.35.22a1.55,1.55,0,0,1-1.59-1.48l0-2.37a1.53,1.53,0,0,1,1.57-1.5L282,78.78a1.54,1.54,0,0,1,1.59,1.48l0,2.37A1.52,1.52,0,0,1,282,84.13Z"/><path class="cls-16" d="M256.33,84.31,226,84.53a1.53,1.53,0,0,1-1.59-1.48l0-2.37a1.53,1.53,0,0,1,1.57-1.5L256.29,79a1.54,1.54,0,0,1,1.59,1.49l0,2.36A1.53,1.53,0,0,1,256.33,84.31Z"/><path class="cls-17" d="M294.3,153.51l-31.43.23a1.55,1.55,0,0,1-1.59-1.49l0-2.36a1.54,1.54,0,0,1,1.57-1.5l31.43-.23a1.54,1.54,0,0,1,1.59,1.49l0,2.36A1.53,1.53,0,0,1,294.3,153.51Z"/><path class="cls-18" d="M268.14,153.7l-32.88.23a1.53,1.53,0,0,1-1.59-1.48l0-2.36a1.54,1.54,0,0,1,1.57-1.51l32.88-.23a1.54,1.54,0,0,1,1.59,1.48l0,2.36A1.55,1.55,0,0,1,268.14,153.7Z"/><path class="cls-19" d="M294.19,139.2l-19,.14a1.54,1.54,0,0,1-1.59-1.48l0-2.37a1.53,1.53,0,0,1,1.57-1.5l19-.14a1.55,1.55,0,0,1,1.59,1.48l0,2.37A1.53,1.53,0,0,1,294.19,139.2Z"/><path class="cls-20" d="M277.2,139.32l-19,.14A1.54,1.54,0,0,1,256.6,138l0-2.37a1.53,1.53,0,0,1,1.57-1.5l19-.14a1.55,1.55,0,0,1,1.59,1.49l0,2.36A1.53,1.53,0,0,1,277.2,139.32Z"/><path class="cls-21" d="M224.87,163.16l31.33-.22a1.52,1.52,0,0,1,1.59,1.48l0,2.36a1.53,1.53,0,0,1-1.56,1.51l-31.33.22a1.54,1.54,0,0,1-1.6-1.48v-2.37A1.52,1.52,0,0,1,224.87,163.16Z"/><path class="cls-22" d="M251.3,163l31.33-.22a1.54,1.54,0,0,1,1.59,1.48l0,2.36a1.54,1.54,0,0,1-1.57,1.51l-31.33.22a1.54,1.54,0,0,1-1.59-1.48l0-2.36A1.55,1.55,0,0,1,251.3,163Z"/><path class="cls-8" d="M274.67,342.37c-6.21-3.29-32.43-14.69-38.11-19.75s-11.35-7.71-12.52-20.34c-.1-1.1-.19-1.83-.25-2.26a.14.14,0,0,0,0,.06h0v.05c0,.17-.06.34-.08.52s0,.36,0,.46c.15,4.14,1.12,15.37,3.19,19.49,2.74,5.43,4.42,6.92,10.69,12.43,6.71,5.9,43.87,23,49.64,26.75,5.18,3.34,8.88,6.61,10.69,12.85l1.82,6.24C304.73,354.56,279.9,345.14,274.67,342.37Z"/><path class="cls-23" d="M264.32,344.47l-19,.13a1.54,1.54,0,0,1-1.59-1.48l0-2.36a1.54,1.54,0,0,1,1.57-1.51l19-.13a1.53,1.53,0,0,1,1.59,1.48l0,2.36A1.55,1.55,0,0,1,264.32,344.47Z"/><path class="cls-24" d="M247.53,344.59l-20,.14a1.55,1.55,0,0,1-1.59-1.48l0-2.37a1.54,1.54,0,0,1,1.57-1.5l20-.14a1.53,1.53,0,0,1,1.59,1.48l0,2.36A1.55,1.55,0,0,1,247.53,344.59Z"/><path class="cls-25" d="M300,422.51c5.07-24.32-19.76-33.74-25-36.51-6.2-3.29-32.42-14.69-38.1-19.75s-11.35-7.71-12.52-20.34c-1-10.42-.35,12.1,2.79,18.33,2.74,5.43,4.42,6.92,10.69,12.43,6.71,5.9,43.87,23,49.64,26.75,5.18,3.34,8.88,6.61,10.69,12.85Z"/><path class="cls-26" d="M297.63,94.54a1.67,1.67,0,0,1-.08-.2c-.05.43-.1,1-.17,1.87-1,12.64-6.61,15.44-12.12,20.51S253.79,133.63,247.67,137c-5.16,2.86-29.71,12.62-24.28,36.87l1.7-6.27c1.71-6.26,5.33-9.59,10.43-13,5.68-3.79,42.36-21.46,48.94-27.45,6.15-5.6,7.8-7.11,10.44-12.58,1.84-3.84,2.66-13.75,2.83-18.48a.61.61,0,0,0,0-.14A3.38,3.38,0,0,1,297.63,94.54Z"/><path class="cls-27" d="M286.57,220.35l-33.3.23a1.53,1.53,0,0,1-1.59-1.48l0-2.36a1.53,1.53,0,0,1,1.56-1.51l33.31-.23a1.53,1.53,0,0,1,1.59,1.48l0,2.36A1.55,1.55,0,0,1,286.57,220.35Z"/><path class="cls-28" d="M258.63,220.55l-33.3.23a1.53,1.53,0,0,1-1.59-1.48l0-2.36a1.54,1.54,0,0,1,1.57-1.51l33.3-.23a1.53,1.53,0,0,1,1.59,1.48l0,2.36A1.54,1.54,0,0,1,258.63,220.55Z"/><path class="cls-29" d="M294.89,233.79l-33.3.24a1.55,1.55,0,0,1-1.59-1.49l0-2.36a1.54,1.54,0,0,1,1.57-1.5l33.3-.24a1.54,1.54,0,0,1,1.59,1.48l0,2.37A1.54,1.54,0,0,1,294.89,233.79Z"/><path class="cls-30" d="M267,234l-33.3.24a1.55,1.55,0,0,1-1.6-1.49v-2.36a1.52,1.52,0,0,1,1.56-1.5l33.3-.24a1.53,1.53,0,0,1,1.59,1.48l0,2.36A1.53,1.53,0,0,1,267,234Z"/><path class="cls-31" d="M264.31,207.74l-19,.14a1.54,1.54,0,0,1-1.59-1.48l0-2.37a1.53,1.53,0,0,1,1.57-1.5l19-.14a1.54,1.54,0,0,1,1.59,1.49l0,2.36A1.52,1.52,0,0,1,264.31,207.74Z"/><path class="cls-32" d="M247.52,207.86l-20,.14a1.53,1.53,0,0,1-1.59-1.48l0-2.36a1.54,1.54,0,0,1,1.57-1.51l20-.14a1.54,1.54,0,0,1,1.59,1.48l0,2.37A1.52,1.52,0,0,1,247.52,207.86Z"/><path class="cls-33" d="M223.51,216.79c-5.42-24.25,19.13-34,24.29-36.87,6.12-3.38,32-15.15,37.58-20.28s11.17-7.87,12.13-20.52c.79-10.43.53,12.09-2.49,18.37-2.63,5.46-4.28,7-10.43,12.58-6.58,6-43.27,23.66-48.94,27.45-5.1,3.41-8.73,6.73-10.43,13Z"/><path class="cls-34" d="M295.05,291.09l-33.3.23a1.53,1.53,0,0,1-1.59-1.48l0-2.36a1.54,1.54,0,0,1,1.57-1.51l33.3-.23a1.53,1.53,0,0,1,1.59,1.48l0,2.36A1.55,1.55,0,0,1,295.05,291.09Z"/><path class="cls-35" d="M267.11,291.29l-33.3.23a1.54,1.54,0,0,1-1.59-1.48l0-2.44a1.55,1.55,0,0,1,1.57-1.51l33.3-.23a1.53,1.53,0,0,1,1.59,1.48l0,2.44A1.54,1.54,0,0,1,267.11,291.29Z"/><path class="cls-36" d="M259,242.61l18.62-.13a1.55,1.55,0,0,1,1.59,1.48l0,2.37a1.54,1.54,0,0,1-1.57,1.5l-18.62.14a1.55,1.55,0,0,1-1.59-1.49l0-2.36A1.55,1.55,0,0,1,259,242.61Z"/><path class="cls-37" d="M275.48,242.5l19.53-.14a1.53,1.53,0,0,1,1.59,1.48l0,2.36a1.54,1.54,0,0,1-1.57,1.51l-19.53.14a1.55,1.55,0,0,1-1.59-1.48l0-2.37A1.54,1.54,0,0,1,275.48,242.5Z"/><path class="cls-38" d="M298.26,233.85c-1,12.65-6.62,15.44-12.12,20.52s-31.47,16.9-37.59,20.28c-4.15,2.3-20.87,9.08-24.4,24.28,0,0,0,.06,0,.08a28,28,0,0,0,.14,12.51l1.7-6.27c1.71-6.27,5.33-9.59,10.43-13,5.68-3.79,42.36-21.46,48.94-27.45,6.15-5.6,7.8-7.12,10.43-12.58C298.8,245.94,299.06,223.42,298.26,233.85Z"/><path class="cls-39" d="M226.4,300.32l29.5-.21a1.54,1.54,0,0,1,1.6,1.48V304a1.53,1.53,0,0,1-1.56,1.51l-29.51.21a1.54,1.54,0,0,1-1.59-1.48l0-2.37A1.53,1.53,0,0,1,226.4,300.32Z"/><path class="cls-40" d="M251.11,300.14l30.87-.22a1.55,1.55,0,0,1,1.59,1.49l0,2.36a1.53,1.53,0,0,1-1.57,1.5l-30.87.22a1.53,1.53,0,0,1-1.59-1.48l0-2.36A1.54,1.54,0,0,1,251.11,300.14Z"/><path class="cls-41" d="M224.6,353.25c-5.42-24.24,19.12-34,24.28-36.86,6.12-3.38,32-15.15,37.59-20.29s11.16-7.86,12.12-20.51c.8-10.43.54,12.09-2.48,18.36-2.64,5.47-4.29,7-10.44,12.58-6.58,6-43.26,23.66-48.94,27.46-5.1,3.41-8.72,6.73-10.43,13Z"/><path class="cls-42" d="M287.7,358.3l-30.87.24c-1.41,0-2.57-.65-2.57-1.48l0-2.36c0-.83,1.13-1.5,2.54-1.52l30.87-.23c1.42,0,2.57.65,2.58,1.47l0,2.37C290.26,357.61,289.12,358.29,287.7,358.3Z"/><path class="cls-43" d="M260.47,358.51l-32.37.25c-1.42,0-2.57-.65-2.58-1.48l0-2.36c0-.83,1.14-1.5,2.55-1.52l32.38-.24c1.41,0,2.56.65,2.57,1.47l0,2.36C263,357.82,261.89,358.5,260.47,358.51Z"/><path class="cls-44" d="M296.49,372.23l-31.65.22a1.5,1.5,0,0,1-1.51-1.48l0-2.36a1.5,1.5,0,0,1,1.49-1.51l31.64-.22a1.51,1.51,0,0,1,1.52,1.48v2.37A1.49,1.49,0,0,1,296.49,372.23Z"/><path class="cls-45" d="M269.94,372.42l-31.64.22a1.49,1.49,0,0,1-1.51-1.48l0-2.36a1.5,1.5,0,0,1,1.49-1.51l31.64-.22a1.49,1.49,0,0,1,1.51,1.48l0,2.36A1.5,1.5,0,0,1,269.94,372.42Z"/><path class="cls-46" d="M296.7,4.72c-1,12.65-6.62,15.44-12.12,20.52S253.11,42.14,247,45.52c-4.34,2.4-22.44,9.71-24.8,26.44v.59a3.66,3.66,0,0,1-.19,1.16,29.79,29.79,0,0,0,.71,8.67l1.7-6.26c1.71-6.27,5.33-9.59,10.43-13,5.68-3.8,42.36-21.46,48.94-27.45,6.15-5.6,7.8-7.12,10.44-12.59C297.24,16.81,297.5-5.71,296.7,4.72Z"/><path class="cls-47" d="M300.7,366.65c-1,12.65-6.62,15.45-12.13,20.52s-31.46,16.9-37.58,20.28c-4.16,2.3-20.87,9.08-24.4,24.29a.19.19,0,0,0,0,.07,28,28,0,0,0,.13,12.51l1.71-6.27c1.7-6.26,5.33-9.59,10.43-13,5.67-3.79,42.36-21.46,48.94-27.45,6.15-5.6,7.8-7.11,10.43-12.58C301.23,378.74,301.49,356.22,300.7,366.65Z"/></g><path class="cls-8" d="M168.43,153.9c-9.58-4.47-50.09-19.93-58.87-26.79-8-6.22-16.08-9.84-18.75-23.65a3.68,3.68,0,0,1-.35.87,11.48,11.48,0,0,1-.22,1.43c.74,6.65,2.13,14.84,4.3,18.62,4.22,7.37,6.82,9.39,16.51,16.87,10.37,8,67.78,31.25,76.68,36.28,8,4.53,13.72,9,16.52,17.43l2.81,8.47C214.88,170.44,176.52,157.66,168.43,153.9Z"/><path class="cls-48" d="M170.05,340.63c-9.59-4.47-50.09-19.93-58.88-26.78s-17.52-10.46-19.33-27.6l0-.21c0,1.54-.08,3.08-.15,4.61.68,6.9,2.12,16.32,4.49,20.46,4.23,7.37,6.83,9.39,16.52,16.87,10.36,8,67.77,31.25,76.68,36.28,8,4.53,13.71,9,16.52,17.43l2.8,8.47C216.49,357.17,178.13,344.39,170.05,340.63Z"/><path class="cls-49" d="M202.72,380l-25.49.16a2.28,2.28,0,0,1-2.46-2l0-3.2a2.26,2.26,0,0,1,2.42-2l25.49-.16a2.27,2.27,0,0,1,2.46,2l0,3.2A2.26,2.26,0,0,1,202.72,380Z"/><path class="cls-50" d="M179.45,380.17l-25.49.16a2.27,2.27,0,0,1-2.46-2l0-3.21a2.26,2.26,0,0,1,2.42-2l25.49-.16a2.27,2.27,0,0,1,2.46,2l0,3.21A2.25,2.25,0,0,1,179.45,380.17Z"/><path class="cls-8" d="M169.59,281.92C160,277.45,119.5,262,110.72,255.14c-8.51-6.65-17.18-10.33-19.22-26.63-.06.58-.1,1.16-.14,1.74a13.72,13.72,0,0,1,.17,2.05,4.78,4.78,0,0,1-.16,1.21c.73,6.69,2.13,15.06,4.32,18.89,4.23,7.37,6.83,9.39,16.52,16.87,10.37,8,67.77,31.25,76.68,36.29,8,4.52,13.72,9,16.52,17.43l2.8,8.46C216,298.46,177.67,285.69,169.59,281.92Z"/><path class="cls-8" d="M206.53,145.25c7.82-33-30.54-45.77-38.63-49.54-9.58-4.46-50.09-19.92-58.87-26.78S91.5,58.47,89.69,41.34C88.2,27.2,89.16,57.74,94,66.2c4.22,7.36,6.83,9.39,16.51,16.86,10.37,8,67.78,31.25,76.69,36.29,8,4.52,13.71,9,16.52,17.43Z"/><path class="cls-51" d="M201.87,154.73l-27.27.17a2.27,2.27,0,0,1-2.46-2l0-3.21a2.26,2.26,0,0,1,2.42-2l27.27-.17a2.27,2.27,0,0,1,2.46,2l0,3.2A2.26,2.26,0,0,1,201.87,154.73Z"/><path class="cls-52" d="M177.55,154.88l-28.61.18a2.27,2.27,0,0,1-2.46-2l0-3.21a2.25,2.25,0,0,1,2.42-2l28.61-.18a2.27,2.27,0,0,1,2.46,2l0,3.21A2.25,2.25,0,0,1,177.55,154.88Z"/><path class="cls-53" d="M149.61,99.55l-27.22.17a2.15,2.15,0,0,1-2.27-2l0-3.21a2.14,2.14,0,0,1,2.24-2l27.22-.17a2.17,2.17,0,0,1,2.27,2l0,3.2A2.14,2.14,0,0,1,149.61,99.55Z"/><path class="cls-54" d="M125.61,99.7l-28.55.17a2.15,2.15,0,0,1-2.27-2l0-3.2a2.14,2.14,0,0,1,2.24-2l28.54-.18a2.16,2.16,0,0,1,2.28,2l0,3.21A2.15,2.15,0,0,1,125.61,99.7Z"/><path class="cls-55" d="M115.09,129.58l46.88-.29a2.27,2.27,0,0,1,2.46,2l0,3.21a2.25,2.25,0,0,1-2.42,2l-46.88.29a2.27,2.27,0,0,1-2.46-2l0-3.2A2.26,2.26,0,0,1,115.09,129.58Z"/><path class="cls-56" d="M154.75,129.34l46.88-.3a2.27,2.27,0,0,1,2.46,2l0,3.21a2.25,2.25,0,0,1-2.42,2l-46.88.29a2.27,2.27,0,0,1-2.46-2l0-3.2A2.25,2.25,0,0,1,154.75,129.34Z"/><path class="cls-57" d="M183.38,118l-46.88.29a2.26,2.26,0,0,1-2.45-2l0-3.2a2.26,2.26,0,0,1,2.42-2l46.88-.29a2.26,2.26,0,0,1,2.45,2l0,3.21A2.25,2.25,0,0,1,183.38,118Z"/><path class="cls-58" d="M143.72,118.24l-46.88.29a2.26,2.26,0,0,1-2.45-2l0-3.21a2.25,2.25,0,0,1,2.42-2l46.88-.29a2.27,2.27,0,0,1,2.46,2l0,3.21A2.26,2.26,0,0,1,143.72,118.24Z"/><path class="cls-59" d="M202.38,212.1l-48.56.31a2.26,2.26,0,0,1-2.45-2l0-3.21a2.25,2.25,0,0,1,2.42-2l48.56-.3a2.27,2.27,0,0,1,2.46,2l0,3.2A2.25,2.25,0,0,1,202.38,212.1Z"/><path class="cls-60" d="M162,212.36l-50.8.31a2.26,2.26,0,0,1-2.45-2l0-3.2a2.24,2.24,0,0,1,2.42-2l50.79-.32a2.27,2.27,0,0,1,2.46,2l0,3.21A2.26,2.26,0,0,1,162,212.36Z"/><path class="cls-61" d="M202.21,192.69l-29.37.19a2.28,2.28,0,0,1-2.46-2l0-3.21a2.25,2.25,0,0,1,2.42-2l29.37-.19a2.28,2.28,0,0,1,2.46,2l0,3.2A2.25,2.25,0,0,1,202.21,192.69Z"/><path class="cls-62" d="M176,192.86l-29.37.18a2.27,2.27,0,0,1-2.46-2l0-3.21a2.26,2.26,0,0,1,2.43-2l29.37-.18a2.27,2.27,0,0,1,2.46,2l0,3.21A2.27,2.27,0,0,1,176,192.86Z"/><path class="cls-63" d="M95.12,225.19l48.4-.3a2.27,2.27,0,0,1,2.46,2l0,3.2a2.25,2.25,0,0,1-2.42,2l-48.4.31a2.27,2.27,0,0,1-2.46-2l0-3.21A2.25,2.25,0,0,1,95.12,225.19Z"/><path class="cls-64" d="M136,224.93l48.4-.3a2.27,2.27,0,0,1,2.46,2l0,3.21a2.25,2.25,0,0,1-2.42,2l-48.4.3a2.27,2.27,0,0,1-2.46-2l0-3.2A2.27,2.27,0,0,1,136,224.93Z"/><path class="cls-65" d="M152.32,251.6l-26.89.16a2.27,2.27,0,0,1-2.46-2l0-3.2a2.25,2.25,0,0,1,2.43-2l26.89-.17a2.27,2.27,0,0,1,2.46,2l0,3.2A2.27,2.27,0,0,1,152.32,251.6Z"/><path class="cls-66" d="M128.29,251.75l-28.22.17a2.27,2.27,0,0,1-2.46-2l0-3.2a2.26,2.26,0,0,1,2.42-2.05l28.22-.17a2.27,2.27,0,0,1,2.46,2l0,3.2A2.26,2.26,0,0,1,128.29,251.75Z"/><path class="cls-8" d="M172,468.28c-9.58-4.46-50.09-19.92-58.87-26.78S95.64,431,93.83,413.91c-.15-1.5-.28-2.49-.38-3.06l0,.07h0s0,0,0,.07c0,.23-.1.47-.13.7s0,.5,0,.64c.22,5.6,1.73,20.84,4.93,26.43,4.22,7.36,6.83,9.39,16.51,16.86,10.37,8,67.78,31.25,76.69,36.29,8,4.52,13.71,9,16.52,17.43l2.8,8.47C218.49,484.82,180.13,472.05,172,468.28Z"/><path class="cls-67" d="M156.06,471.13l-29.41.19a2.28,2.28,0,0,1-2.46-2l0-3.2a2.26,2.26,0,0,1,2.42-2l29.41-.19a2.27,2.27,0,0,1,2.46,2l0,3.21A2.25,2.25,0,0,1,156.06,471.13Z"/><path class="cls-68" d="M130.12,471.29l-30.85.2a2.28,2.28,0,0,1-2.45-2l0-3.2a2.25,2.25,0,0,1,2.42-2l30.84-.19a2.27,2.27,0,0,1,2.46,2l0,3.2A2.24,2.24,0,0,1,130.12,471.29Z"/><path class="cls-8" d="M211.21,577c7.82-33-30.54-45.77-38.63-49.53-9.58-4.47-50.09-19.93-58.87-26.79s-17.53-10.45-19.34-27.59C92.88,459,93.84,489.5,98.69,498c4.22,7.37,6.82,9.39,16.51,16.87,10.37,8,67.77,31.25,76.68,36.28,8,4.53,13.72,9,16.52,17.43Z"/><path class="cls-46" d="M207.52,132.11c0-.1-.09-.18-.12-.28-.08.59-.16,1.42-.26,2.54-1.49,17.15-10.22,20.95-18.73,27.83s-48.62,22.93-58.07,27.51c-8,3.87-45.89,17.12-37.52,50l2.64-8.5c2.63-8.5,8.23-13,16.11-17.64,8.77-5.14,65.44-29.11,75.61-37.23,9.5-7.6,12-9.65,16.12-17.07,2.85-5.21,4.11-18.65,4.38-25.08,0-.06,0-.12,0-.18A4,4,0,0,1,207.52,132.11Z"/><path class="cls-69" d="M190.43,302.76l-51.44.33a2.28,2.28,0,0,1-2.46-2l0-3.2a2.25,2.25,0,0,1,2.42-2l51.45-.32a2.26,2.26,0,0,1,2.45,2l0,3.2A2.24,2.24,0,0,1,190.43,302.76Z"/><path class="cls-70" d="M147.27,303l-51.44.32a2.27,2.27,0,0,1-2.46-2l0-3.2a2.24,2.24,0,0,1,2.42-2l51.45-.32a2.27,2.27,0,0,1,2.46,2l0,3.2A2.25,2.25,0,0,1,147.27,303Z"/><path class="cls-71" d="M203.29,321l-51.44.32a2.27,2.27,0,0,1-2.46-2l0-3.21a2.26,2.26,0,0,1,2.42-2l51.45-.32a2.28,2.28,0,0,1,2.46,2l0,3.21A2.25,2.25,0,0,1,203.29,321Z"/><path class="cls-72" d="M160.13,321.27l-51.44.32a2.27,2.27,0,0,1-2.46-2l0-3.21a2.25,2.25,0,0,1,2.42-2l51.45-.32a2.27,2.27,0,0,1,2.46,2l0,3.21A2.26,2.26,0,0,1,160.13,321.27Z"/><path class="cls-73" d="M156,285.67l-29.41.18a2.27,2.27,0,0,1-2.46-2l0-3.21a2.25,2.25,0,0,1,2.42-2l29.41-.18a2.27,2.27,0,0,1,2.46,2l0,3.21A2.26,2.26,0,0,1,156,285.67Z"/><path class="cls-74" d="M130.1,285.83,99.25,286a2.26,2.26,0,0,1-2.45-2l0-3.2a2.26,2.26,0,0,1,2.42-2.05l30.84-.19a2.27,2.27,0,0,1,2.46,2l0,3.21A2.25,2.25,0,0,1,130.1,285.83Z"/><path class="cls-46" d="M93,297.94c-8.38-32.9,29.54-46.15,37.52-50,9.45-4.59,49.45-20.55,58.06-27.52s17.25-10.67,18.74-27.83c1.22-14.15.82,16.4-3.85,24.91-4.07,7.42-6.62,9.48-16.12,17.07-10.16,8.13-66.83,32.09-75.6,37.24-7.88,4.63-13.48,9.13-16.12,17.64Z"/><path class="cls-75" d="M203.53,398.72l-51.44.32a2.27,2.27,0,0,1-2.46-2l0-3.2a2.26,2.26,0,0,1,2.42-2.05l51.45-.32a2.27,2.27,0,0,1,2.46,2l0,3.21A2.26,2.26,0,0,1,203.53,398.72Z"/><path class="cls-76" d="M160.38,399l-51.45.32a2.27,2.27,0,0,1-2.46-2l0-3.31a2.25,2.25,0,0,1,2.42-2l51.45-.33a2.28,2.28,0,0,1,2.46,2l0,3.31A2.26,2.26,0,0,1,160.38,399Z"/><path class="cls-77" d="M147.86,333l28.76-.18a2.27,2.27,0,0,1,2.46,2l0,3.21a2.26,2.26,0,0,1-2.42,2l-28.77.18a2.27,2.27,0,0,1-2.46-2l0-3.21A2.25,2.25,0,0,1,147.86,333Z"/><path class="cls-78" d="M173.31,332.81l30.16-.19a2.27,2.27,0,0,1,2.46,2l0,3.21a2.25,2.25,0,0,1-2.42,2l-30.17.19a2.27,2.27,0,0,1-2.46-2l0-3.21A2.26,2.26,0,0,1,173.31,332.81Z"/><path class="cls-46" d="M208.5,321.08C207,338.24,198.27,342,189.76,348.91s-48.61,22.93-58.06,27.52c-6.42,3.11-32.24,12.31-37.7,32.94l0,.1a33.57,33.57,0,0,0,.21,17l2.64-8.5c2.63-8.5,8.23-13,16.11-17.63,8.77-5.15,65.44-29.11,75.61-37.24,9.49-7.59,12.05-9.65,16.12-17.07C209.32,337.48,209.73,306.93,208.5,321.08Z"/><path class="cls-79" d="M149.3,437.48l-25.49.16a2.27,2.27,0,0,1-2.46-2l0-3.21a2.26,2.26,0,0,1,2.42-2l25.5-.16a2.26,2.26,0,0,1,2.45,2l0,3.21A2.25,2.25,0,0,1,149.3,437.48Z"/><path class="cls-80" d="M126,437.62l-25.49.16a2.27,2.27,0,0,1-2.46-2l0-3.2a2.25,2.25,0,0,1,2.42-2l25.49-.16a2.27,2.27,0,0,1,2.46,2l0,3.2A2.24,2.24,0,0,1,126,437.62Z"/><path class="cls-81" d="M97.48,411.24l45.58-.28a2.27,2.27,0,0,1,2.46,2l0,3.21a2.26,2.26,0,0,1-2.43,2l-45.58.28a2.27,2.27,0,0,1-2.46-2l0-3.2A2.27,2.27,0,0,1,97.48,411.24Z"/><path class="cls-82" d="M135.65,411l47.69-.3a2.27,2.27,0,0,1,2.46,2l0,3.21a2.26,2.26,0,0,1-2.42,2l-47.7.29a2.26,2.26,0,0,1-2.45-2l0-3.2A2.24,2.24,0,0,1,135.65,411Z"/><path class="cls-46" d="M94.69,483.05c-8.37-32.89,29.55-46.14,37.52-50,9.45-4.58,49.46-20.55,58.07-27.51S207.52,394.85,209,377.7c1.23-14.15.83,16.39-3.84,24.91-4.07,7.42-6.62,9.47-16.12,17.07-10.17,8.12-66.84,32.09-75.61,37.23-7.88,4.63-13.48,9.14-16.11,17.64Z"/><path class="cls-83" d="M196.26,350.59s-.41-.93-.68-1.37-1.41-1.72-1.61-1.43-1,2.25-.56,2.8,0,1.5,2,2.08Z"/><path class="cls-84" d="M219.17,344.74s-10.55,8.76-14.66,7.95a80.12,80.12,0,0,1-8.16-2.32l-1,2.52s4.43,6,9,6A26.4,26.4,0,0,0,217,355.79Z"/><path class="cls-85" d="M237.68,437.21s-.3,4.92-1.26,5h-4.85l-6,0a2,2,0,0,1,1.81-1.75c1.76-.3,4.71-1.54,5.77-3.85S237.68,437.21,237.68,437.21Z"/><path class="cls-8" d="M238,437.55a12.59,12.59,0,0,1-3.26.61,12.11,12.11,0,0,1-3.05-.43,81.85,81.85,0,0,0-2.24-10.64c-1-3.83-2.42-8.76-4.44-14.89-5.59-16.93-7.29-26.84-7.45-27.78a.32.32,0,0,1,0-.07h0l17.19-7.51s-2.13,23.34.59,32.3a40,40,0,0,1,1,4.29C238.07,423.15,238,437.55,238,437.55Z"/><path class="cls-46" d="M229.48,427.09c-1-3.83-2.42-8.76-4.44-14.89-5.59-16.93-7.29-26.84-7.45-27.78a.25.25,0,0,1,0-.08l17.19-7.51s-2.13,23.34.59,32.3C235.75,410.38,229.48,427.09,229.48,427.09Z"/><path class="cls-85" d="M224.26,437.21s-.31,4.92-1.27,5h-4.85l-6,0a2,2,0,0,1,1.8-1.75c1.76-.3,4.71-1.54,5.78-3.85S224.26,437.21,224.26,437.21Z"/><path class="cls-8" d="M214.51,377.38a242.69,242.69,0,0,0,2.41,33.69c2.62,18.57,1.73,26.45,1.73,26.45a18.24,18.24,0,0,0,2.54.64,11.59,11.59,0,0,0,3.76-.43s3.76-18.58,2.68-27.87S232.79,378,232.79,378Z"/><path class="cls-83" d="M226.82,340.86l-2.35,3-4.92.27c0-.4-.1-2-.17-3.53a2.17,2.17,0,0,0,0-.26c-.05-1.27-.07-2.66-.07-2.66l3.9-2.7,1.47-1.12s.23,1.37.23,1.57C224.92,339.31,226.82,340.86,226.82,340.86Z"/><path class="cls-84" d="M213.51,378c.07,8,.6,26.65,1,27,4.18,4,22.56-1.1,23.53-5.52s-3.7-56.69-10.84-58.78c-1.48-.43-9.39,2.12-9.39,2.12a50.14,50.14,0,0,0-2.06,7.35c-.3,1.52-1.29,12.41-1.86,19.68-.15,1.94-.28,3.63-.35,4.81C213.5,375.21,213.49,376.4,213.51,378Z"/><path class="cls-86" d="M224.58,335.58c-.57,1.87-3.82,4.15-5.2,5a2.17,2.17,0,0,0,0-.26c-.05-1.27-.1-3.83-.1-3.83L223.2,335C224.17,334.74,224.82,334.82,224.58,335.58Z"/><path class="cls-83" d="M218,337s7.3,2.27,8.65-2.28,3.19-7.31-1.41-8.94-6-.18-6.84,1.23S216.12,336.27,218,337Z"/><path class="cls-87" d="M218.66,326.54s.47,5.29,1.57,5.06,2.55-.27,2.39,1.33,1.35,4.29,2.36,4.29c3.39,0,7.14-9.12,6.21-10.76C228.5,321.71,214.79,320.75,218.66,326.54Z"/><path class="cls-88" d="M219.74,340.89c.09,0,5.43-2.42,6-2.22s1.4,2.1,1.4,2.1l-9.39,2.12A4.64,4.64,0,0,1,219.74,340.89Z"/><path class="cls-89" d="M185.17,361.63l27.43,29a1.45,1.45,0,0,0,2,0l1.87-1.74a1.43,1.43,0,0,0,.1-2l-27.49-29.05c-.53-.56-1-.12-1.58.43L185.67,360C185.08,360.56,184.64,361.07,185.17,361.63Z"/><path class="cls-90" d="M200.21,377.51l12.35,13.07a1.47,1.47,0,0,0,2.07.06l1.87-1.74a1.46,1.46,0,0,0,.06-2.06l-12.35-13.07Z"/><path class="cls-87" d="M153.88,359.21a23.53,23.53,0,0,0,33.15,1,23.26,23.26,0,0,0,1-33,23.53,23.53,0,0,0-33.15-1l-.36.35A23.25,23.25,0,0,0,153.88,359.21Zm2-31.92a21.86,21.86,0,1,1-.94,30.93A21.88,21.88,0,0,1,155.89,327.29Z"/><g class="cls-91"><path class="cls-92" d="M155,358.22a21.94,21.94,0,1,0,12.24-36.55,22.43,22.43,0,0,0-3.58.93A21.86,21.86,0,0,0,155,358.22Z"/></g><path class="cls-46" d="M213.51,378c17.43-11.75,16-27.91,16-27.91-6.8,3.81-13.54,12.85-15.64,19.79-.15,1.94-.28,3.63-.35,4.81C213.5,375.21,213.49,376.4,213.51,378Z"/><path class="cls-83" d="M198.14,372.09a4.43,4.43,0,0,1-2.1-1.3s-.5,0,.08,1.09c0,.09.15.31.23.47a.1.1,0,0,1-.08.15,11,11,0,0,0-2.64.06c-.18,0-.23.46-.22.64a1.65,1.65,0,0,0,.34,1.12,5.73,5.73,0,0,0,2.09,1.08,6.3,6.3,0,0,0,3.22-.4l1.05-.48-.32-2-.27.06C199.1,372.71,198.58,372.2,198.14,372.09Z"/><path class="cls-84" d="M224.41,342.89s14.81,2.8-4.36,24.15c-3.07,3.41-19.63,7.86-19.63,7.86s-1.68-1.43-.83-2.58c0,0,11.4-8.24,13.91-9.55,1.13-.59,4.38-13.15,6.22-16.18A8.31,8.31,0,0,1,224.41,342.89Z"/><path class="cls-83" d="M195.86,350.85a7.79,7.79,0,0,1-.58-1.41,7.72,7.72,0,0,0-.95-2.15c-.1-.1-.44,0-.47.46a2.47,2.47,0,0,0,.23.93,10.83,10.83,0,0,1,.32,1.85C194.64,351.27,195.86,350.85,195.86,350.85Z"/><rect class="cls-93" x="34.44" y="133.75" width="84.56" height="55.7" rx="27.85"/><path class="cls-94" d="M61.08,142.67s1.94-1.58,5.45.58A4.1,4.1,0,0,1,68.76,146a3.82,3.82,0,0,0,.62,1.43,4.64,4.64,0,0,1,.88,2.43,4.51,4.51,0,0,0,.46,1.67,5.59,5.59,0,0,1,.51,3s1.12,1.35.49,4.34a4.64,4.64,0,0,1-.65,3.56s.29,2.16-1.39,2.89a4.06,4.06,0,0,1-3.52,2.38,3.12,3.12,0,0,0-1.11.27,3.88,3.88,0,0,1-2.7.06c-2.1-.61-1.89-2-1.89-2V143Z"/><path class="cls-94" d="M60,142.67s-1.94-1.58-5.45.58a4.06,4.06,0,0,0-2.26,2.87,2.59,2.59,0,0,1-.52,1.17,4.73,4.73,0,0,0-1,2.75,2.79,2.79,0,0,1-.36,1.3,5.2,5.2,0,0,0-.62,2.5,2.83,2.83,0,0,1-.25,1.15,6.16,6.16,0,0,0-.21,3.85,4.71,4.71,0,0,0,.3,3,4,4,0,0,1,.34,1.28,2.62,2.62,0,0,0,.93,1.94,3.48,3.48,0,0,1,.78.84,4,4,0,0,0,3.05,1.8,4.23,4.23,0,0,1,1.35.32,4,4,0,0,0,2.61,0c2.11-.61,1.89-2,1.89-2V143Z"/><path class="cls-95" d="M58.44,157A3.22,3.22,0,0,1,56,155h0a1.23,1.23,0,0,1,.35-1.55.81.81,0,0,0,.23-.22,4.36,4.36,0,0,1-2.26-.4,3.48,3.48,0,0,1-1.21-1,2.41,2.41,0,0,0,.67,1.36,2.2,2.2,0,0,0,.88.48c.31.07.44.41.55.73a5.76,5.76,0,0,0,.38.87,4.52,4.52,0,0,0,.94,1.28,2.84,2.84,0,0,0-1.28,1.28,3,3,0,0,0-.31,1,4,4,0,0,1,.79-1.08,2.31,2.31,0,0,1,1.74-.67A3.87,3.87,0,0,0,58.44,157Z"/><path class="cls-95" d="M54.76,161h-.14A2.15,2.15,0,0,1,53,160a2.38,2.38,0,0,1-.26-2.34h0c.1-.23.15.19.14.43a2.76,2.76,0,0,0,.82,1.79,3.12,3.12,0,0,0,2.08.52c.25,0,.46,0,.23.19A2.17,2.17,0,0,1,54.76,161Z"/><path class="cls-95" d="M57.73,152.21l-.1-.05a1.94,1.94,0,0,1-.59-2.95h0c.12-.14.06.18,0,.36a2.22,2.22,0,0,0,.18,1.53,2.63,2.63,0,0,0,1.39,1c.18.08.33.15.13.21A1.76,1.76,0,0,1,57.73,152.21Z"/><path class="cls-95" d="M53.41,163.79a.45.45,0,0,1-.64-.19,11.4,11.4,0,0,0-1.88-2.45h0a6.21,6.21,0,0,1,2.52,2.64Z"/><path class="cls-95" d="M58.8,162.67a1.6,1.6,0,0,1-.42-1.24,6.38,6.38,0,0,1,.16-1.19,2.1,2.1,0,0,0-.46,2.23c-.66,0-1,.81-1,.81a2.61,2.61,0,0,1,.47-.2,1.4,1.4,0,0,1,.93,0,1.24,1.24,0,0,1,.7.8A1.13,1.13,0,0,0,58.8,162.67Z"/><path class="cls-95" d="M53.93,149.12a1.34,1.34,0,0,1,1.08-.6,4.66,4.66,0,0,1,1.1,0,1.7,1.7,0,0,0-2.09-.22,1.4,1.4,0,0,0-.86-1,2.5,2.5,0,0,1,.24.48,1.88,1.88,0,0,1,.13,1,1.27,1.27,0,0,1-.63.86A.9.9,0,0,0,53.93,149.12Z"/><path class="cls-95" d="M51.24,156.58a1.36,1.36,0,0,1,1.07-.6,5,5,0,0,1,1.1,0,1.7,1.7,0,0,0-2.08-.23,1.41,1.41,0,0,0-.87-1,3,3,0,0,1,.24.48,1.92,1.92,0,0,1,.14,1,1.31,1.31,0,0,1-.64.86A.93.93,0,0,0,51.24,156.58Z"/><path class="cls-95" d="M57.25,146.05a2,2,0,0,0,.52-1.54,8.14,8.14,0,0,0-.2-1.49,2.64,2.64,0,0,1,.57,2.79c.83,0,1.31,1,1.31,1a2.87,2.87,0,0,0-.58-.25,1.85,1.85,0,0,0-1.17,0,1.61,1.61,0,0,0-.87,1A1.4,1.4,0,0,1,57.25,146.05Z"/><path class="cls-95" d="M54.59,165.16a1.84,1.84,0,0,0,.48-1.45,6.92,6.92,0,0,0-.18-1.39,2.49,2.49,0,0,1,.54,2.61c.77,0,1.22.94,1.22.94a3.62,3.62,0,0,0-.55-.23,1.71,1.71,0,0,0-1.08,0,1.51,1.51,0,0,0-.82.93A1.3,1.3,0,0,1,54.59,165.16Z"/><path class="cls-95" d="M62.57,157A3.22,3.22,0,0,0,65,155h0a1.23,1.23,0,0,0-.35-1.55,1,1,0,0,1-.24-.22,4.35,4.35,0,0,0,2.26-.4,3.45,3.45,0,0,0,1.22-1,2.49,2.49,0,0,1-.67,1.36,2.27,2.27,0,0,1-.88.48c-.31.07-.44.41-.55.73a7,7,0,0,1-.38.87,4.72,4.72,0,0,1-.94,1.28,2.84,2.84,0,0,1,1.28,1.28,3,3,0,0,1,.31,1,4,4,0,0,0-.79-1.08,2.33,2.33,0,0,0-1.75-.67A3.84,3.84,0,0,1,62.57,157Z"/><path class="cls-95" d="M66.24,161h.15A2.15,2.15,0,0,0,68,160a2.35,2.35,0,0,0,.25-2.34h0c-.1-.23-.15.19-.14.43a2.76,2.76,0,0,1-.82,1.79,3.12,3.12,0,0,1-2.08.52c-.25,0-.46,0-.24.19A2.21,2.21,0,0,0,66.24,161Z"/><path class="cls-95" d="M63.28,152.21l.1-.05a1.94,1.94,0,0,0,.59-2.95h0c-.12-.14-.06.18,0,.36a2.15,2.15,0,0,1-.17,1.53,2.63,2.63,0,0,1-1.39,1c-.18.08-.33.15-.13.21A1.76,1.76,0,0,0,63.28,152.21Z"/><path class="cls-95" d="M67.31,162.93a.46.46,0,0,0,.67,0,10.27,10.27,0,0,1,2.5-1.67h0a5.79,5.79,0,0,0-3.17,1.62Z"/><path class="cls-95" d="M62.21,162.67a1.64,1.64,0,0,0,.42-1.24,6.38,6.38,0,0,0-.16-1.19,2.1,2.1,0,0,1,.46,2.23c.66,0,1,.81,1,.81a2,2,0,0,0-.46-.2,1.4,1.4,0,0,0-.93,0,1.21,1.21,0,0,0-.7.8A1.11,1.11,0,0,1,62.21,162.67Z"/><path class="cls-95" d="M67.07,149.12a1.32,1.32,0,0,0-1.07-.6,4.66,4.66,0,0,0-1.1,0,1.7,1.7,0,0,1,2.09-.22,1.38,1.38,0,0,1,.86-1,2.5,2.5,0,0,0-.24.48,1.88,1.88,0,0,0-.14,1,1.29,1.29,0,0,0,.64.86A.92.92,0,0,1,67.07,149.12Z"/><path class="cls-95" d="M69.77,156.58a1.36,1.36,0,0,0-1.07-.6,5,5,0,0,0-1.1,0,1.7,1.7,0,0,1,2.08-.23,1.41,1.41,0,0,1,.87-1,3,3,0,0,0-.24.48,1.82,1.82,0,0,0-.14,1,1.31,1.31,0,0,0,.64.86A.93.93,0,0,1,69.77,156.58Z"/><path class="cls-95" d="M63.76,146.05a1.93,1.93,0,0,1-.52-1.54,8.14,8.14,0,0,1,.2-1.49,2.61,2.61,0,0,0-.58,2.79c-.82,0-1.3,1-1.3,1a2.58,2.58,0,0,1,.58-.25,1.85,1.85,0,0,1,1.17,0,1.61,1.61,0,0,1,.87,1A1.4,1.4,0,0,0,63.76,146.05Z"/><path class="cls-95" d="M66.41,165.16a1.87,1.87,0,0,1-.48-1.45,7.43,7.43,0,0,1,.19-1.39,2.46,2.46,0,0,0-.54,2.61c-.77,0-1.22.94-1.22.94a3.14,3.14,0,0,1,.55-.23,1.71,1.71,0,0,1,1.08,0,1.51,1.51,0,0,1,.82.93A1.29,1.29,0,0,0,66.41,165.16Z"/><rect class="cls-95" x="48.81" y="154.51" width="23.46" height="0.47" transform="translate(-94.37 214.88) rotate(-89.85)"/><rect class="cls-96" x="73.92" y="141.04" width="17.73" height="1.97"/><rect class="cls-97" x="73.92" y="145.81" width="14.19" height="0.99"/><rect class="cls-98" x="73.92" y="148.47" width="9.26" height="0.99"/><rect class="cls-99" x="84.57" y="148.47" width="9.26" height="0.99"/><rect class="cls-100" x="89.55" y="145.81" width="8.56" height="0.99"/><rect class="cls-101" x="92.71" y="141.04" width="8.23" height="1.97"/><rect class="cls-102" x="50.12" y="171.62" width="14.16" height="1.42"/><rect class="cls-103" x="50.12" y="175.05" width="11.33" height="0.71"/><rect class="cls-104" x="50.12" y="176.95" width="7.4" height="0.71"/><rect class="cls-105" x="58.62" y="176.95" width="7.4" height="0.71"/><rect class="cls-106" x="62.6" y="175.05" width="6.83" height="0.71"/><rect class="cls-107" x="65.12" y="171.62" width="6.57" height="1.42"/><path class="cls-108" d="M91.74,155a1.26,1.26,0,0,1,0,1.66,1,1,0,0,1-1.51,0,1.25,1.25,0,0,1,0-1.66A1,1,0,0,1,91.74,155Z"/><path class="cls-108" d="M87.46,159.93a1.37,1.37,0,0,1,0,1.83,1.11,1.11,0,0,1-1.68,0,1.39,1.39,0,0,1,0-1.84A1.11,1.11,0,0,1,87.46,159.93Z"/><path class="cls-108" d="M82.18,157.34a1.19,1.19,0,0,1,0,1.57,1,1,0,0,1-1.43,0,1.19,1.19,0,0,1,0-1.57A1,1,0,0,1,82.18,157.34Z"/><path class="cls-108" d="M77.37,160.35a1.19,1.19,0,0,1,0,1.57,1,1,0,0,1-1.44,0,1.19,1.19,0,0,1,0-1.57A1,1,0,0,1,77.37,160.35Z"/><polygon class="cls-108" points="76.61 161.05 81.46 158.02 86.6 160.73 90.92 155.77 91.05 155.9 86.64 160.97 81.47 158.24 76.7 161.22 76.61 161.05"/><path class="cls-108" d="M93.28,163.75a1,1,0,0,1-.21-1.35.84.84,0,0,1,1.24-.23,1,1,0,0,1,.21,1.35A.84.84,0,0,1,93.28,163.75Z"/><path class="cls-108" d="M96.17,159.09a1.14,1.14,0,0,1-.24-1.5.93.93,0,0,1,1.37-.27,1.14,1.14,0,0,1,.24,1.51A.94.94,0,0,1,96.17,159.09Z"/><path class="cls-108" d="M100.81,160.41a1,1,0,0,1-.2-1.28.8.8,0,0,1,1.17-.22,1,1,0,0,1,.2,1.28A.78.78,0,0,1,100.81,160.41Z"/><path class="cls-108" d="M104.36,157.23a1,1,0,0,1-.2-1.28.8.8,0,0,1,1.17-.22,1,1,0,0,1,.2,1.28A.78.78,0,0,1,104.36,157.23Z"/><polygon class="cls-108" points="104.89 156.54 101.31 159.75 96.77 158.3 93.86 163.01 93.73 162.91 96.7 158.11 101.28 159.57 104.8 156.42 104.89 156.54"/><g class="cls-109"><path class="cls-108" d="M105.93,180.54H75.54V168.1h30.39Zm-30.19-.19h30V168.29h-30Z"/></g><path class="cls-83" d="M128.28,224.64a1,1,0,0,1,.16,1.05h0A6.5,6.5,0,0,1,126.5,228l-.31.28-.07.07-.06,0c-.85.84-.53,1-2.06,2.74-1.75,1.95-3,2-3.3,1.81s.3-1.19,1-2.35l.1-.17L122,230c.76-1.4.57-2.06.38-4.14-.14-1.69-2.45-9.44-2.45-9.44l3.35-.62s1,6.18,2.12,7.13c.6.5,1.26.51,1.83.89l.12.08A4.06,4.06,0,0,1,128.28,224.64Z"/><path class="cls-110" d="M128.28,224.64a1,1,0,0,1,.16,1.05h0a7.39,7.39,0,0,1-2,2.27l-.3.29-.07.07-.06,0c-.85.84-.53,1-2.06,2.74-1.75,1.95-3,2-3.3,1.81s.3-1.19,1-2.35a7.46,7.46,0,0,0,3.12-2.46c1-1.38,1.7-3.15,2.39-4.23l.2,0A4.06,4.06,0,0,1,128.28,224.64Z"/><path class="cls-83" d="M101.26,222.39c-.21,1.11-1.69.93-3.33.5s-1.26.08-3.6-.2-3.06-1.21-3.13-1.59,1.09-.45,2.34-.6l.47-.06c1.4-.19,2.43-1.16,3.7-1.95s3-3.83,3-3.83l3.22.27s-1.69,2.75-2.34,3.94a4.36,4.36,0,0,0-.32,2.35A4.58,4.58,0,0,1,101.26,222.39Z"/><path class="cls-110" d="M97.93,222.89c-1.65-.44-1.26.08-3.6-.2s-3.06-1.21-3.13-1.59,1.09-.45,2.34-.6v0a6.34,6.34,0,0,0,3.36,1.11c1.59.05,3.27-.44,4.37-.42a4.58,4.58,0,0,1,0,1.17C101.05,223.5,99.57,223.32,97.93,222.89Z"/><path class="cls-110" d="M113.58,200.38l3,8.66,3.93,11.31a5.85,5.85,0,0,0,2.08-.21,8.85,8.85,0,0,0,2-1S123.52,207,121.49,200a12.83,12.83,0,0,0-1.75-4C116.59,191.94,113.58,200.38,113.58,200.38Z"/><path class="cls-111" d="M116.63,186.62c1.71-.59,6.18,0,11,.93a3.19,3.19,0,0,0,3.39-1.64h0l12.19-1s4.85,10.34,1.23,15.59c-2.11,3.06-9.24,2.62-11.4,2.15-5.94-1.3-12.69-5.08-13.56-5.27-1.43-.31-2,2.76-3.44,6s-13.46,14.27-13.46,14.27a9.88,9.88,0,0,1-2.62-.29,2.57,2.57,0,0,1-1.12-.76S112.19,188.16,116.63,186.62Z"/><path class="cls-112" d="M146.29,193.88c0,7.5-1.86,10.94-1.86,10.94-15.69-2.25-19.16-17.7-19.16-17.7a5.56,5.56,0,0,0,4.59-2.23l13.21-9,.8-.55.83-.56s.24,1.43.55,3.73c.39,3.07.89,7.69,1,12.53C146.29,192,146.3,192.92,146.29,193.88Z"/><path class="cls-113" d="M131.11,167.94c4.34,2.56,13.15,7.87,13.19,7.83s3.24,1.31,5.07,0c3.06-2.17,4.7-8-.89-13.07-2.79-2.51-4.77-3.12-5.07-7.14-.17-2.18-3-9.42-7.62-8.69a6,6,0,0,1-1.12.08,4,4,0,0,0-2.33.65C129.72,149.26,124.61,167,131.11,167.94Z"/><path class="cls-83" d="M134.75,165.77a5.39,5.39,0,0,0,3.58.11c1.35-.64,2.38-3,2.36-3-.62,0-1.32-1.08-1.82-4.39l-.26.1-4.41,1.7s.32,1.52.52,3C134.9,164.43,135,165.59,134.75,165.77Z"/><path class="cls-114" d="M134.2,160.26s.17.82.43,2.35a5.17,5.17,0,0,0,4-4.05Z"/><path class="cls-83" d="M133.54,161.77s6-.87,5.48-4.89-.17-6.84-4-6.45-4.42,2-4.53,3.42S132,161.89,133.54,161.77Z"/><path class="cls-113" d="M130.67,151.65s3.86,3.57,6.49,3.86,3.63-.62,3.63-.62a11,11,0,0,1-2.49-3.6,1.84,1.84,0,0,0-1.52-1.17C134.9,150,131.34,149.87,130.67,151.65Z"/><path class="cls-113" d="M133.08,151.33a10.24,10.24,0,0,0-1.7,2.33,8.46,8.46,0,0,0-.2,4.17s-2-4.2-.87-6.24S133.08,151.33,133.08,151.33Z"/><path class="cls-115" d="M129.67,175.29c.18,13.09.05,10.35,1.38,11.6a5.07,5.07,0,0,0,2.42.56c3.75.26,10.34-.4,10.59-1.14.87-2.57.26-3.36,1-7.29.07-.42.17-.87.27-1.36.61-2.7,1.19-3.62-.94-8-1.94-3.92-3.91-7.14-4.09-7-5.11,3.24-5.55.54-5.55.54S129.58,168.91,129.67,175.29Z"/><path class="cls-116" d="M116.58,209l3.93,11.31a5.85,5.85,0,0,0,2.08-.21,8.85,8.85,0,0,0,2-1S123.52,207,121.49,200Z"/><path class="cls-117" d="M134.72,163.22s-4.63.73-5.29,3.46c-.58,2.43-2.69,16.2-2.69,16.2s1,2.39,2.18,1.06,3.89-13.75,3.89-13.75Z"/><path class="cls-83" d="M133.3,185.47a7.38,7.38,0,0,1-1,1.19.73.73,0,0,1-.42.1l.52-1Z"/><path class="cls-83" d="M133.47,184.36l-2.25,1.18a.41.41,0,0,0,.37.15,4.8,4.8,0,0,0,1-.29Z"/><path class="cls-118" d="M146.26,191c-3.48-.29-12.27-3.46-10.77-5.7.7-1,5.35-1.5,7.76-4.78.64-.89-.09-3.3-.18-4.67,0-.59,0-1,.18-1.11s.39.16.62.56a21.63,21.63,0,0,1,1.26,3.2l.12,0C145.64,181.56,146.14,186.18,146.26,191Z"/><path class="cls-83" d="M137.77,184.89s-3.7-.88-4.3-.53a9.2,9.2,0,0,0-2.23,2.08c-.19.45,1.32-.34,1.82-.48a4.18,4.18,0,0,1,1.57.37,4.89,4.89,0,0,0,2.81.3Z"/><path class="cls-119" d="M140.28,162.68s4.93.35,6.65,2.92c2.42,3.61,5,19.06,2.26,21.11-3.09,2.32-11.89.56-11.89.56s-.83-2.62.14-2.72c2.62-.27,7.75-1.44,7.7-2.66-.08-1.86-3.3-8-3.3-9.27S140.28,162.68,140.28,162.68Z"/><polygon class="cls-120" points="114.24 187.12 137.77 187.12 137.77 187.67 114.45 187.67 114.24 187.12"/><polygon class="cls-120" points="132.27 187.67 114.45 187.67 109.09 173.4 126.88 173.4 132.27 187.67"/><path class="cls-120" d="M119,180.54a.65.65,0,0,1,.6-.91,1.23,1.23,0,0,1,1.09.91.65.65,0,0,1-.6.91A1.23,1.23,0,0,1,119,180.54Z"/><rect class="cls-93" x="168.7" y="236.57" width="74.3" height="46.67" rx="23.33"/><path class="cls-121" d="M192.18,489.89l-47.69.32c-2.18,0-4-.88-4-2l0-3.2c0-1.12,1.75-2,3.94-2.05l47.69-.32c2.19,0,4,.88,4,2l0,3.2C196.13,489,194.37,489.88,192.18,489.89Z"/><path class="cls-122" d="M150.12,490.18l-50,.33c-2.18,0-4-.88-4-2l0-3.2c0-1.12,1.75-2,3.94-2.05l50-.34c2.18,0,4,.88,4,2l0,3.2C154.07,489.24,152.3,490.16,150.12,490.18Z"/><path class="cls-123" d="M205.75,508.79l-48.88.31a2.21,2.21,0,0,1-2.34-2l0-3.2a2.18,2.18,0,0,1,2.3-2l48.88-.3a2.19,2.19,0,0,1,2.33,2l0,3.2A2.17,2.17,0,0,1,205.75,508.79Z"/><path class="cls-124" d="M164.75,509.05l-48.89.3a2.19,2.19,0,0,1-2.33-2l0-3.21a2.18,2.18,0,0,1,2.3-2l48.88-.3a2.19,2.19,0,0,1,2.34,2l0,3.21A2.18,2.18,0,0,1,164.75,509.05Z"/><path class="cls-46" d="M189.91,261.75c-1.38-2.19.74-3.3,1.65-5.39a6.52,6.52,0,0,0,.56-3.6c-.13-1-2.4-.93-2.34.09a9.06,9.06,0,0,1,.14,1.89c-.25,1.53-1.32,3.19-1.24,4.69a2.52,2.52,0,0,0-.74.55,2.23,2.23,0,0,0-.82-.72c.09-1.68-1-3.54-1.23-5.25a12.3,12.3,0,0,1,.14-2.11c.06-1.13-2.19-1.22-2.32-.09a8.16,8.16,0,0,0,.56,4c.91,2.33,3,3.57,1.64,6s-4,4.65-3.14,7.5c.27.88,1.34,2.63,2.57,1.3.4-.43.1-3.26.45-4.13.47-1.21.54-2.44,1.08-3.73a19.59,19.59,0,0,1,1-1.74,16.64,16.64,0,0,1,1,1.55c.54,1.16.61,2.26,1.09,3.34.35.78.05,3.31.45,3.7,1.24,1.19,2.32-.37,2.59-1.16C194,265.92,191.3,264,189.91,261.75Z"/><text class="cls-125" transform="translate(189.77 248.67)"><tspan class="cls-126">chr6: </tspan><tspan class="cls-127" x="14.71" y="0">10355280</tspan></text><path class="cls-128" d="M184.2,254.73a9.84,9.84,0,0,1,2-.13l10.32-3.71"/><path class="cls-129" d="M198.09,250.31a8.42,8.42,0,0,0-1.83,2.09V251l-.92-1.1A8.6,8.6,0,0,0,198.09,250.31Z"/><text class="cls-125" transform="translate(199.68 267.36)"><tspan class="cls-126">chr6: </tspan><tspan class="cls-127" x="14.71" y="0">99103873</tspan></text><rect class="cls-130" x="202.85" y="251.68" width="16.02" height="1.31"/><rect class="cls-131" x="202.85" y="254.84" width="12.82" height="0.65"/><rect class="cls-132" x="202.85" y="256.6" width="8.37" height="0.65"/><rect class="cls-133" x="212.47" y="256.6" width="8.37" height="0.65"/><rect class="cls-134" x="216.98" y="254.84" width="7.73" height="0.65"/><rect class="cls-135" x="219.83" y="251.68" width="7.44" height="1.31"/><rect class="cls-136" x="203.49" y="270.44" width="14.16" height="1.28"/><rect class="cls-137" x="203.49" y="273.54" width="11.33" height="0.64"/><rect class="cls-138" x="203.49" y="275.26" width="7.4" height="0.64"/><rect class="cls-139" x="211.99" y="275.26" width="7.4" height="0.64"/><rect class="cls-140" x="215.97" y="273.54" width="6.83" height="0.64"/><rect class="cls-141" x="218.49" y="270.44" width="6.57" height="1.28"/><path class="cls-128" d="M183,265.43c.65,0,1.31.05,2,.05l10.23,1.28"/><path class="cls-129" d="M196.92,267a8.63,8.63,0,0,0-2.58,1l.65-1.28-.31-1.4A8.2,8.2,0,0,0,196.92,267Z"/><path class="cls-46" d="M206.09,10.26c-1.49,17.16-10.23,21-18.73,27.84S138.74,61,129.29,65.61C122.58,68.87,94.62,78.78,91,101.47v.81a4.66,4.66,0,0,1-.29,1.58,35.77,35.77,0,0,0,1.09,11.76l2.64-8.5c2.63-8.5,8.23-13,16.11-17.64,8.77-5.14,65.44-29.11,75.61-37.23,9.5-7.6,12.05-9.66,16.12-17.07C206.92,26.66,207.32-3.88,206.09,10.26Z"/><text class="cls-142" transform="translate(78.33 173.29)">D<tspan class="cls-143" x="2.48" y="0">e</tspan><tspan class="cls-144" x="4.47" y="0">v</tspan><tspan x="6.26" y="0">elopme</tspan><tspan class="cls-145" x="18.67" y="0">n</tspan><tspan x="20.68" y="0">ta</tspan><tspan class="cls-146" x="23.73" y="0">l</tspan><tspan x="7.82" y="4.16">stage</tspan></text><path class="cls-147" d="M77.56,484.14l-16.5.12a1.55,1.55,0,0,1-1.6-1.49v-2.36a1.52,1.52,0,0,1,1.56-1.5l16.5-.12a1.53,1.53,0,0,1,1.59,1.48l0,2.36A1.53,1.53,0,0,1,77.56,484.14Z"/><path class="cls-148" d="M62.49,484.25l-16.5.11a1.53,1.53,0,0,1-1.59-1.48l0-2.36A1.55,1.55,0,0,1,46,479l16.5-.11A1.53,1.53,0,0,1,64,480.38l0,2.36A1.54,1.54,0,0,1,62.49,484.25Z"/><g class="cls-149"><path class="cls-150" d="M77,318.05l-17.65.12a1.53,1.53,0,0,1-1.59-1.48l0-2.36a1.55,1.55,0,0,1,1.57-1.51L77,312.7a1.54,1.54,0,0,1,1.59,1.48l0,2.36A1.54,1.54,0,0,1,77,318.05Z"/><path class="cls-151" d="M61.26,318.16l-18.52.13a1.54,1.54,0,0,1-1.59-1.48l0-2.36a1.55,1.55,0,0,1,1.57-1.51l18.52-.13a1.54,1.54,0,0,1,1.59,1.48l0,2.37A1.54,1.54,0,0,1,61.26,318.16Z"/></g><path class="cls-152" d="M77.22,346l-19,.13a1.53,1.53,0,0,1-1.59-1.48l0-2.36a1.55,1.55,0,0,1,1.57-1.51l19-.13a1.53,1.53,0,0,1,1.59,1.48l0,2.36A1.54,1.54,0,0,1,77.22,346Z"/><path class="cls-153" d="M60.24,346.16l-19,.13a1.53,1.53,0,0,1-1.59-1.48l0-2.36a1.55,1.55,0,0,1,1.57-1.51l19-.13a1.53,1.53,0,0,1,1.59,1.48l0,2.36A1.53,1.53,0,0,1,60.24,346.16Z"/><path class="cls-154" d="M78.08,497.92l-33.3.24a1.55,1.55,0,0,1-1.59-1.48l0-2.37a1.54,1.54,0,0,1,1.57-1.5l33.3-.24a1.54,1.54,0,0,1,1.59,1.48l0,2.37A1.54,1.54,0,0,1,78.08,497.92Z"/><path class="cls-155" d="M42,449.45l18.62-.13a1.53,1.53,0,0,1,1.59,1.48l0,2.36a1.54,1.54,0,0,1-1.57,1.51l-18.61.13a1.54,1.54,0,0,1-1.6-1.48V451A1.52,1.52,0,0,1,42,449.45Z"/><path class="cls-156" d="M58.52,449.33,78,449.19a1.55,1.55,0,0,1,1.6,1.49V453a1.52,1.52,0,0,1-1.56,1.5l-19.53.14A1.53,1.53,0,0,1,57,453.2l0-2.36A1.54,1.54,0,0,1,58.52,449.33Z"/><g class="cls-157"><path class="cls-8" d="M55.36,317.44c-6.2-3.29-32.42-14.69-38.11-19.75-5.15-4.58-10.4-7.25-12.13-17.43a4,4,0,0,1-.23.64c0,.35-.08.7-.14,1.05.48,4.9,1.38,10.94,2.78,13.73,2.73,5.43,4.42,6.92,10.69,12.43,6.71,5.9,43.87,23,49.63,26.75,5.19,3.34,8.88,6.61,10.7,12.85L80.36,354C85.43,329.63,60.59,320.21,55.36,317.44Z"/><path class="cls-8" d="M56.41,455.09C50.2,451.8,24,440.4,18.3,435.35S7,427.64,5.78,415v-.16c0,1.14-.06,2.27-.1,3.4.44,5.08,1.37,12,2.9,15.08,2.74,5.43,4.42,6.93,10.69,12.44,6.71,5.9,43.87,23,49.64,26.75,5.18,3.33,8.88,6.61,10.69,12.85l1.82,6.24C86.47,467.29,61.64,457.87,56.41,455.09Z"/><path class="cls-8" d="M56.11,411.82c-6.2-3.3-32.42-14.69-38.11-19.75-5.51-4.9-11.12-7.61-12.44-19.63l-.09,1.28a10.77,10.77,0,0,1,.11,1.52,4.26,4.26,0,0,1-.1.89c.47,4.93,1.38,11.1,2.8,13.93C11,395.49,12.7,397,19,402.49c6.71,5.9,43.87,23,49.63,26.75,5.19,3.34,8.88,6.61,10.7,12.85l1.81,6.24C86.18,424,61.34,414.59,56.11,411.82Z"/><path class="cls-8" d="M80,311.06c5.07-24.32-19.77-33.74-25-36.52-6.2-3.29-32.42-14.69-38.11-19.74S5.57,247.09,4.39,234.46c-1-10.42-.34,12.09,2.8,18.32,2.73,5.43,4.42,6.93,10.69,12.44,6.71,5.89,43.87,23,49.63,26.75,5.19,3.33,8.88,6.61,10.7,12.85Z"/><path class="cls-158" d="M43.18,277.37l-17.62.13A1.48,1.48,0,0,1,24.09,276l0-2.36a1.47,1.47,0,0,1,1.45-1.5L43.14,272a1.49,1.49,0,0,1,1.47,1.49l0,2.36A1.48,1.48,0,0,1,43.18,277.37Z"/><path class="cls-159" d="M27.64,277.48l-18.48.13a1.48,1.48,0,0,1-1.47-1.48l0-2.36a1.48,1.48,0,0,1,1.45-1.51l18.48-.13a1.48,1.48,0,0,1,1.47,1.49l0,2.36A1.47,1.47,0,0,1,27.64,277.48Z"/><path class="cls-160" d="M20.84,299.51l30.34-.21a1.54,1.54,0,0,1,1.59,1.48l0,2.36a1.54,1.54,0,0,1-1.57,1.51l-30.34.21a1.53,1.53,0,0,1-1.59-1.48l0-2.36A1.54,1.54,0,0,1,20.84,299.51Z"/><path class="cls-161" d="M46.51,299.33l30.34-.22a1.54,1.54,0,0,1,1.59,1.49l0,2.36a1.54,1.54,0,0,1-1.57,1.51l-30.34.21A1.53,1.53,0,0,1,45,303.2l0-2.36A1.54,1.54,0,0,1,46.51,299.33Z"/><path class="cls-162" d="M65,291l-30.35.21a1.54,1.54,0,0,1-1.59-1.48l0-2.36a1.55,1.55,0,0,1,1.57-1.51L65,285.62a1.53,1.53,0,0,1,1.59,1.48l0,2.36A1.55,1.55,0,0,1,65,291Z"/><path class="cls-163" d="M39.37,291.15,9,291.36a1.53,1.53,0,0,1-1.59-1.48l0-2.36A1.55,1.55,0,0,1,9,286l30.34-.21a1.54,1.54,0,0,1,1.6,1.48v2.36A1.53,1.53,0,0,1,39.37,291.15Z"/><path class="cls-164" d="M77.34,360.35l-31.44.22a1.54,1.54,0,0,1-1.59-1.48v-2.36a1.53,1.53,0,0,1,1.56-1.51L77.3,355a1.53,1.53,0,0,1,1.59,1.48l0,2.36A1.55,1.55,0,0,1,77.34,360.35Z"/><path class="cls-165" d="M51.17,360.53l-32.88.24a1.55,1.55,0,0,1-1.59-1.49l0-2.36a1.53,1.53,0,0,1,1.57-1.5l32.88-.24a1.55,1.55,0,0,1,1.59,1.49l0,2.36A1.54,1.54,0,0,1,51.17,360.53Z"/><path class="cls-166" d="M7.91,370l31.33-.22a1.54,1.54,0,0,1,1.59,1.48l0,2.37a1.55,1.55,0,0,1-1.57,1.5L8,375.34a1.53,1.53,0,0,1-1.59-1.48l0-2.36A1.54,1.54,0,0,1,7.91,370Z"/><path class="cls-167" d="M34.33,369.81l31.33-.23a1.54,1.54,0,0,1,1.59,1.49l0,2.36a1.52,1.52,0,0,1-1.56,1.5l-31.33.23a1.55,1.55,0,0,1-1.6-1.49v-2.36A1.52,1.52,0,0,1,34.33,369.81Z"/><path class="cls-168" d="M44.93,389.46l-17.4.12a1.52,1.52,0,0,1-1.59-1.48l0-2.36a1.53,1.53,0,0,1,1.56-1.51l17.41-.12a1.53,1.53,0,0,1,1.59,1.48l0,2.37A1.53,1.53,0,0,1,44.93,389.46Z"/><path class="cls-169" d="M29.38,389.57l-18.27.13a1.53,1.53,0,0,1-1.59-1.48l0-2.36a1.54,1.54,0,0,1,1.57-1.51l18.26-.13a1.54,1.54,0,0,1,1.6,1.48v2.37A1.53,1.53,0,0,1,29.38,389.57Z"/><path class="cls-8" d="M82.9,584.58C87,561.11,62.85,551.93,57.7,549.2c-6.2-3.29-32.42-14.69-38.11-19.74S8.25,521.75,7.07,509.12c-.1-1.11-.18-1.84-.25-2.26a.14.14,0,0,1,0,.06h0V507c0,.17-.06.35-.08.52s0,.37,0,.47c.14,4.13,1.11,15.36,3.19,19.48,2.73,5.43,4.42,6.93,10.69,12.44,6.71,5.89,43.87,23,49.63,26.75,5.19,3.33,8.88,6.6,10.7,12.85l1.81,6.24c0-.22.07-.43.11-.64A4.37,4.37,0,0,1,82.9,584.58Z"/><path class="cls-170" d="M47.35,551.3l-19,.14A1.55,1.55,0,0,1,26.72,550l0-2.36a1.54,1.54,0,0,1,1.57-1.5l19-.14a1.53,1.53,0,0,1,1.59,1.48l0,2.37A1.53,1.53,0,0,1,47.35,551.3Z"/><path class="cls-171" d="M30.56,551.42l-20,.14A1.54,1.54,0,0,1,9,550.08v-2.36a1.53,1.53,0,0,1,1.56-1.51l20-.14a1.54,1.54,0,0,1,1.59,1.48l0,2.37A1.54,1.54,0,0,1,30.56,551.42Z"/><path class="cls-172" d="M83.05,629.35c5.06-24.32-19.77-33.74-25-36.52-6.21-3.29-32.43-14.69-38.11-19.74S8.59,565.38,7.42,552.75c-1-10.42-.34,12.09,2.79,18.32C13,576.5,14.63,578,20.9,583.51c6.71,5.89,43.87,23,49.64,26.75,5.18,3.33,8.88,6.6,10.69,12.85Z"/><path class="cls-173" d="M80.66,301.37l-.08-.2c0,.44-.1,1-.16,1.87-1,12.65-6.62,15.44-12.13,20.52s-31.47,16.9-37.58,20.28C25.54,346.69,1,356.46,6.42,380.71l1.71-6.27c1.7-6.27,5.32-9.59,10.43-13C24.23,357.65,60.92,340,67.5,334c6.14-5.6,7.8-7.12,10.43-12.59,1.85-3.83,2.66-13.74,2.84-18.48a.66.66,0,0,1,0-.14A3.22,3.22,0,0,1,80.66,301.37Z"/><path class="cls-174" d="M69.6,427.18l-33.3.24a1.55,1.55,0,0,1-1.59-1.48l0-2.37a1.53,1.53,0,0,1,1.57-1.5l33.3-.24a1.54,1.54,0,0,1,1.59,1.48l0,2.37A1.53,1.53,0,0,1,69.6,427.18Z"/><path class="cls-175" d="M41.67,427.38l-33.31.24a1.55,1.55,0,0,1-1.59-1.49l0-2.36a1.54,1.54,0,0,1,1.57-1.5l33.3-.24a1.53,1.53,0,0,1,1.59,1.48l0,2.37A1.53,1.53,0,0,1,41.67,427.38Z"/><path class="cls-176" d="M77.93,440.63l-33.3.23a1.54,1.54,0,0,1-1.6-1.48V437a1.53,1.53,0,0,1,1.56-1.51l33.3-.24a1.54,1.54,0,0,1,1.59,1.49l0,2.36A1.54,1.54,0,0,1,77.93,440.63Z"/><path class="cls-177" d="M50,440.82l-33.3.24a1.53,1.53,0,0,1-1.59-1.48l0-2.37a1.53,1.53,0,0,1,1.57-1.5l33.3-.24A1.55,1.55,0,0,1,51.54,437l0,2.36A1.54,1.54,0,0,1,50,440.82Z"/><path class="cls-178" d="M47.34,414.58l-19,.13a1.53,1.53,0,0,1-1.59-1.48l0-2.36a1.54,1.54,0,0,1,1.57-1.51l19-.13a1.53,1.53,0,0,1,1.59,1.48l0,2.36A1.55,1.55,0,0,1,47.34,414.58Z"/><path class="cls-179" d="M30.55,414.7l-20,.14A1.54,1.54,0,0,1,9,413.36L9,411a1.54,1.54,0,0,1,1.57-1.5l20-.14a1.53,1.53,0,0,1,1.59,1.48l0,2.36A1.55,1.55,0,0,1,30.55,414.7Z"/><path class="cls-180" d="M6.55,423.62c-5.43-24.25,19.12-34,24.28-36.86,6.12-3.38,32-15.15,37.59-20.29S79.58,358.6,80.54,346c.8-10.43.54,12.08-2.48,18.36-2.64,5.47-4.29,7-10.44,12.58-6.58,6-43.26,23.66-48.94,27.46-5.1,3.4-8.72,6.73-10.43,13Z"/><path class="cls-181" d="M50.15,498.12l-33.3.24a1.55,1.55,0,0,1-1.6-1.49v-2.44a1.52,1.52,0,0,1,1.56-1.5l33.3-.24a1.53,1.53,0,0,1,1.59,1.48l0,2.44A1.53,1.53,0,0,1,50.15,498.12Z"/><path class="cls-182" d="M81.3,440.69c-1,12.64-6.62,15.44-12.13,20.51S37.7,478.11,31.58,481.48c-4.15,2.3-20.87,9.08-24.4,24.29a.31.31,0,0,1,0,.08,28.12,28.12,0,0,0,.14,12.5L9,512.08c1.71-6.26,5.33-9.59,10.44-13,5.67-3.79,42.35-21.46,48.93-27.45,6.15-5.6,7.8-7.11,10.44-12.58C81.83,452.77,82.09,430.26,81.3,440.69Z"/><path class="cls-183" d="M43,526.49l-16.5.12a1.53,1.53,0,0,1-1.59-1.48l0-2.37a1.53,1.53,0,0,1,1.56-1.5l16.51-.12a1.55,1.55,0,0,1,1.59,1.49V525A1.52,1.52,0,0,1,43,526.49Z"/><path class="cls-184" d="M27.91,526.6l-16.5.12a1.55,1.55,0,0,1-1.59-1.48l0-2.37a1.54,1.54,0,0,1,1.57-1.5l16.5-.12a1.53,1.53,0,0,1,1.59,1.48l0,2.37A1.53,1.53,0,0,1,27.91,526.6Z"/><path class="cls-185" d="M9.43,507.15l29.51-.21a1.55,1.55,0,0,1,1.59,1.49l0,2.36a1.54,1.54,0,0,1-1.57,1.5l-29.51.21A1.53,1.53,0,0,1,7.88,511l0-2.36A1.55,1.55,0,0,1,9.43,507.15Z"/><path class="cls-186" d="M34.14,507,65,506.76a1.53,1.53,0,0,1,1.59,1.48l0,2.36a1.54,1.54,0,0,1-1.57,1.51l-30.87.22a1.55,1.55,0,0,1-1.59-1.48l0-2.37A1.54,1.54,0,0,1,34.14,507Z"/><path class="cls-187" d="M7.63,560.09c-5.42-24.25,19.13-34,24.29-36.87,6.11-3.38,32-15.15,37.58-20.28s11.16-7.87,12.13-20.52c.79-10.43.53,12.09-2.49,18.37-2.63,5.46-4.29,7-10.43,12.58-6.58,6-43.27,23.66-48.94,27.45-5.11,3.41-8.73,6.73-10.43,13Z"/><path class="cls-188" d="M70.74,565.13l-30.88.24c-1.41,0-2.56-.65-2.57-1.47l0-2.37c0-.82,1.13-1.5,2.55-1.51l30.87-.24c1.41,0,2.56.65,2.57,1.48l0,2.36C73.29,564.44,72.15,565.12,70.74,565.13Z"/><path class="cls-189" d="M43.51,565.34l-32.38.25c-1.41,0-2.57-.65-2.57-1.47l0-2.37c0-.82,1.13-1.5,2.54-1.51L43.46,560c1.42,0,2.57.65,2.57,1.48l0,2.36C46.06,564.65,44.92,565.33,43.51,565.34Z"/><path class="cls-190" d="M79.52,579.07l-31.64.22a1.49,1.49,0,0,1-1.51-1.48l0-2.37a1.49,1.49,0,0,1,1.49-1.5l31.64-.22A1.49,1.49,0,0,1,81,575.2l0,2.36A1.5,1.5,0,0,1,79.52,579.07Z"/><path class="cls-191" d="M53,579.25l-31.64.23A1.51,1.51,0,0,1,19.82,578l0-2.36a1.49,1.49,0,0,1,1.49-1.5l31.64-.23a1.5,1.5,0,0,1,1.51,1.49l0,2.36A1.49,1.49,0,0,1,53,579.25Z"/><path class="cls-46" d="M79.74,211.55c-1,12.65-6.62,15.45-12.13,20.52S36.14,249,30,252.35c-4.35,2.4-22.45,9.71-24.81,26.44v.59A3.77,3.77,0,0,1,5,280.55a29.82,29.82,0,0,0,.71,8.67L7.45,283c1.7-6.27,5.32-9.59,10.43-13,5.67-3.79,42.35-21.46,48.93-27.45,6.15-5.6,7.81-7.12,10.44-12.58C80.27,223.64,80.53,201.12,79.74,211.55Z"/><path class="cls-192" d="M83,584.31c.17-.65.3-1.31.41-2s.14-1.18.2-1.77a27.89,27.89,0,0,0-.1-4.66C82,586.52,76.74,589.27,71.61,594,66,599.14,40.14,610.91,34,614.29c-4.15,2.29-20.87,9.07-24.4,24.28l0,.08a28,28,0,0,0,.14,12.5l1.7-6.26c1.71-6.27,5.33-9.59,10.43-13,5.68-3.8,42.36-21.46,48.94-27.45,6.15-5.6,7.8-7.12,10.43-12.59a23.73,23.73,0,0,0,1.57-5.69A4.82,4.82,0,0,1,83,584.31Z"/></g></svg>