<svg id="Capa_1" data-name="Capa 1" xmlns="http://www.w3.org/2000/svg" xmlns:xlink="http://www.w3.org/1999/xlink" viewBox="0 0 1366 1621"><defs><style>.cls-1,.cls-103,.cls-105,.cls-123,.cls-126,.cls-127,.cls-130,.cls-133,.cls-24,.cls-35,.cls-38,.cls-50,.cls-54,.cls-61,.cls-7{fill:none;}.cls-1,.cls-127{stroke:#d2e0eb;}.cls-1,.cls-103,.cls-105,.cls-123,.cls-126,.cls-127,.cls-130,.cls-133,.cls-156,.cls-24,.cls-30,.cls-34,.cls-35,.cls-38,.cls-50,.cls-54,.cls-61,.cls-7{stroke-miterlimit:10;}.cls-1,.cls-126,.cls-127,.cls-7{stroke-width:5.67px;}.cls-11,.cls-2,.cls-39,.cls-9{font-size:23px;}.cls-102,.cls-106,.cls-111,.cls-124,.cls-153,.cls-16,.cls-17,.cls-18,.cls-19,.cls-2,.cls-20,.cls-21,.cls-22,.cls-23,.cls-46,.cls-77,.cls-97{fill:#0c3c61;}.cls-102,.cls-106,.cls-112,.cls-113,.cls-114,.cls-115,.cls-116,.cls-117,.cls-118,.cls-119,.cls-141,.cls-142,.cls-16,.cls-17,.cls-18,.cls-19,.cls-2,.cls-20,.cls-21,.cls-22,.cls-23,.cls-46,.cls-62,.cls-84,.cls-9{font-family:Raleway-Bold, Raleway;font-weight:700;}.cls-14,.cls-2,.cls-39,.cls-9{letter-spacing:0.04em;}.cls-11,.cls-23,.cls-3{letter-spacing:0.04em;}.cls-17,.cls-4{letter-spacing:0.04em;}.cls-18,.cls-5{letter-spacing:0.03em;}.cls-6{letter-spacing:0.01em;}.cls-126,.cls-7{stroke:#d1e989;}.cls-131,.cls-8{fill:#1d3353;}.cls-156,.cls-9{fill:#76941c;}.cls-10{letter-spacing:0.01em;}.cls-11,.cls-111,.cls-128,.cls-26,.cls-32,.cls-36,.cls-39,.cls-47,.cls-49,.cls-66,.cls-69,.cls-82,.cls-90,.cls-91{font-family:Raleway-Thin, Raleway;}.cls-11,.cls-111,.cls-128,.cls-26,.cls-32,.cls-36,.cls-39,.cls-47,.cls-49,.cls-66,.cls-69,.cls-77,.cls-82,.cls-90,.cls-91{font-weight:200;}.cls-12,.cls-46{letter-spacing:0.04em;}.cls-13,.cls-16,.cls-49{letter-spacing:0.04em;}.cls-15,.cls-20{letter-spacing:0.01em;}.cls-19,.cls-45{letter-spacing:0.01em;}.cls-21,.cls-44{letter-spacing:0.03em;}.cls-24{stroke:#38739b;stroke-width:2.83px;}.cls-25,.cls-26,.cls-69,.cls-82{fill:#38739b;}.cls-111,.cls-128,.cls-26,.cls-36,.cls-69,.cls-82{font-size:18px;}.cls-146,.cls-26,.cls-36,.cls-73,.cls-84{letter-spacing:0.04em;}.cls-27{letter-spacing:0.02em;}.cls-28{letter-spacing:0.03em;}.cls-29{letter-spacing:0.01em;}.cls-30,.cls-31,.cls-62{fill:#313d50;}.cls-30{stroke:#081323;}.cls-30,.cls-34{stroke-width:1.7px;}.cls-32{font-size:9px;}.cls-32,.cls-34{fill:#fff;}.cls-114,.cls-144,.cls-32,.cls-70{letter-spacing:0.04em;}.cls-33{letter-spacing:0.01em;}.cls-34,.cls-35{stroke:#fff;}.cls-35{stroke-width:1.42px;}.cls-128,.cls-36,.cls-66{fill:#c1272d;}.cls-115,.cls-37,.cls-91{letter-spacing:0.04em;}.cls-133,.cls-38{stroke:#c1272d;}.cls-40{letter-spacing:0.03em;}.cls-41{letter-spacing:0.01em;}.cls-42{letter-spacing:0.03em;}.cls-43{letter-spacing:0.01em;}.cls-47,.cls-49{fill:#000;}.cls-48{letter-spacing:0.04em;}.cls-130,.cls-50{stroke:#004c55;}.cls-50{stroke-width:0.85px;}.cls-51{fill:#6ea3c9;}.cls-52{fill:#c3e700;opacity:0.49;}.cls-53{fill:#3f9481;}.cls-54,.cls-61{stroke:#000;}.cls-54{stroke-dasharray:8;}.cls-55{font-size:9.3px;}.cls-124,.cls-131,.cls-143,.cls-144,.cls-145,.cls-146,.cls-147,.cls-148,.cls-149,.cls-150,.cls-153,.cls-55{font-family:Raleway-Regular, Raleway;}.cls-56{letter-spacing:-0.07em;}.cls-57{letter-spacing:-0.03em;}.cls-58{letter-spacing:-0.07em;}.cls-59{letter-spacing:0em;}.cls-60{letter-spacing:-0.03em;}.cls-62{font-size:13.05px;}.cls-63{letter-spacing:-0.01em;}.cls-64{letter-spacing:0em;}.cls-65{letter-spacing:-0.03em;}.cls-131,.cls-66{font-size:14px;letter-spacing:0.04em;}.cls-67{letter-spacing:0.04em;}.cls-68{letter-spacing:0.04em;}.cls-120,.cls-69{letter-spacing:0.03em;}.cls-118,.cls-71{letter-spacing:0.03em;}.cls-113,.cls-72{letter-spacing:0.01em;}.cls-74{letter-spacing:0.03em;}.cls-119,.cls-75{letter-spacing:0.02em;}.cls-147,.cls-76{letter-spacing:0.04em;}.cls-102,.cls-77{font-size:16px;letter-spacing:0.05em;}.cls-77{font-family:Raleway-ThinItalic, Raleway;font-style:italic;}.cls-78{letter-spacing:0.04em;}.cls-79{letter-spacing:0.06em;}.cls-80{letter-spacing:0.03em;}.cls-81{letter-spacing:0.05em;}.cls-111,.cls-82,.cls-87{letter-spacing:0.04em;}.cls-83{letter-spacing:0.03em;}.cls-141,.cls-85{letter-spacing:0.03em;}.cls-145,.cls-86{letter-spacing:0.01em;}.cls-88{letter-spacing:0.03em;}.cls-89{letter-spacing:0.02em;}.cls-92{letter-spacing:0.04em;}.cls-93{fill:url(#Degradado_sin_nombre_26);}.cls-94{fill:url(#Degradado_sin_nombre_29);}.cls-95{fill:url(#Degradado_sin_nombre_26-2);}.cls-96{fill:url(#Degradado_sin_nombre_42);}.cls-98{fill:url(#Degradado_sin_nombre_9);}.cls-99{fill:url(#Degradado_sin_nombre_10);}.cls-100{fill:url(#Degradado_sin_nombre_8);}.cls-101{fill:url(#Degradado_sin_nombre_29-2);}.cls-103{stroke:#b1df29;}.cls-103,.cls-156{stroke-width:1.7px;}.cls-104{fill:#b1df29;}.cls-105,.cls-123{stroke:#6ea3c9;}.cls-106,.cls-124,.cls-153{font-size:15px;}.cls-106,.cls-124{letter-spacing:0.12em;}.cls-107,.cls-153{letter-spacing:0.11em;}.cls-108{letter-spacing:0.12em;}.cls-109{letter-spacing:0.11em;}.cls-110{letter-spacing:0em;}.cls-112,.cls-122{letter-spacing:0.02em;}.cls-116{letter-spacing:0.03em;}.cls-117{letter-spacing:0.02em;}.cls-121{letter-spacing:0.01em;}.cls-123{stroke-width:1px;}.cls-125{letter-spacing:0.09em;}.cls-126{stroke-dasharray:12.13 12.13;}.cls-127{stroke-dasharray:11.93 11.93;}.cls-128{letter-spacing:-0.07em;}.cls-129,.cls-150{letter-spacing:0.01em;}.cls-130{stroke-width:1.42px;}.cls-132{letter-spacing:0.02em;}.cls-133{stroke-width:1.98px;}.cls-134{letter-spacing:-0.03em;}.cls-135{letter-spacing:0em;}.cls-136{letter-spacing:0em;}.cls-137{letter-spacing:0.01em;}.cls-138{fill:url(#Degradado_sin_nombre_40);}.cls-139{fill:#d2e0eb;}.cls-140{fill:url(#Degradado_sin_nombre_46);}.cls-142{letter-spacing:0.02em;}.cls-143,.cls-144,.cls-145,.cls-146,.cls-147,.cls-148,.cls-149,.cls-150{font-weight:400;}.cls-143{letter-spacing:0.02em;}.cls-148{letter-spacing:0.03em;}.cls-149{letter-spacing:0.02em;}.cls-151{letter-spacing:0.03em;}.cls-152{letter-spacing:0.02em;}.cls-154{letter-spacing:0.11em;}.cls-155{letter-spacing:0.09em;}.cls-156{stroke:#8cc63f;}</style><linearGradient id="Degradado_sin_nombre_26" x1="1045.14" y1="363.43" x2="1041.61" y2="277.71" gradientUnits="userSpaceOnUse"><stop offset="0.08" stop-color="#fff"/><stop offset="0.1" stop-color="#eef4f9"/><stop offset="0.17" stop-color="#ccdfec"/><stop offset="0.25" stop-color="#afcce1"/><stop offset="0.33" stop-color="#97bdd8"/><stop offset="0.43" stop-color="#85b1d1"/><stop offset="0.54" stop-color="#78a9cd"/><stop offset="0.69" stop-color="#70a4ca"/><stop offset="1" stop-color="#6ea3c9"/></linearGradient><linearGradient id="Degradado_sin_nombre_29" x1="1044.19" y1="360.38" x2="1042.71" y2="282.56" gradientUnits="userSpaceOnUse"><stop offset="0.08" stop-color="#fff"/><stop offset="0.11" stop-color="#d2dbe2"/><stop offset="0.15" stop-color="#a9bac7"/><stop offset="0.2" stop-color="#839cae"/><stop offset="0.25" stop-color="#638299"/><stop offset="0.3" stop-color="#476c88"/><stop offset="0.37" stop-color="#315a79"/><stop offset="0.44" stop-color="#214c6e"/><stop offset="0.53" stop-color="#154367"/><stop offset="0.65" stop-color="#0e3e62"/><stop offset="1" stop-color="#0c3c61"/></linearGradient><linearGradient id="Degradado_sin_nombre_26-2" x1="1152.89" y1="358.71" x2="1152.53" y2="266.07" xlink:href="#Degradado_sin_nombre_26"/><linearGradient id="Degradado_sin_nombre_42" x1="1177.81" y1="357.41" x2="1176.92" y2="328.46" gradientUnits="userSpaceOnUse"><stop offset="0.17" stop-color="#fff"/><stop offset="0.22" stop-color="#e6ebef"/><stop offset="0.44" stop-color="#728ea3"/><stop offset="0.6" stop-color="#295374"/><stop offset="0.67" stop-color="#0c3c61"/></linearGradient><linearGradient id="Degradado_sin_nombre_9" x1="1265.03" y1="354.57" x2="1261.63" y2="257.59" gradientUnits="userSpaceOnUse"><stop offset="0.01" stop-color="#fff"/><stop offset="0.04" stop-color="#eef4f9"/><stop offset="0.1" stop-color="#ccdfec"/><stop offset="0.17" stop-color="#afcce1"/><stop offset="0.24" stop-color="#97bdd8"/><stop offset="0.32" stop-color="#85b1d1"/><stop offset="0.42" stop-color="#78a9cd"/><stop offset="0.55" stop-color="#70a4ca"/><stop offset="0.82" stop-color="#6ea3c9"/></linearGradient><linearGradient id="Degradado_sin_nombre_10" x1="1280.82" y1="349.28" x2="1279.68" y2="334.31" gradientUnits="userSpaceOnUse"><stop offset="0.05" stop-color="#fff"/><stop offset="0.08" stop-color="#d2dbe2"/><stop offset="0.11" stop-color="#a9bac7"/><stop offset="0.14" stop-color="#839cae"/><stop offset="0.18" stop-color="#638299"/><stop offset="0.22" stop-color="#476c88"/><stop offset="0.27" stop-color="#315a79"/><stop offset="0.32" stop-color="#204c6e"/><stop offset="0.38" stop-color="#154367"/><stop offset="0.48" stop-color="#0e3e62"/><stop offset="0.73" stop-color="#0c3c61"/></linearGradient><linearGradient id="Degradado_sin_nombre_8" x1="1280.03" y1="323.7" x2="1279.5" y2="316.69" gradientUnits="userSpaceOnUse"><stop offset="0" stop-color="#fff"/><stop offset="0.03" stop-color="#d2dbe2"/><stop offset="0.06" stop-color="#a9bac7"/><stop offset="0.09" stop-color="#839cae"/><stop offset="0.12" stop-color="#638299"/><stop offset="0.16" stop-color="#476c88"/><stop offset="0.21" stop-color="#315a79"/><stop offset="0.26" stop-color="#204c6e"/><stop offset="0.33" stop-color="#154367"/><stop offset="0.42" stop-color="#0e3e62"/><stop offset="0.67" stop-color="#0c3c61"/></linearGradient><linearGradient id="Degradado_sin_nombre_29-2" x1="1257.35" y1="329.54" x2="1256.33" y2="309.87" xlink:href="#Degradado_sin_nombre_29"/><linearGradient id="Degradado_sin_nombre_40" x1="1050.76" y1="916.85" x2="1049.78" y2="983.05" gradientUnits="userSpaceOnUse"><stop offset="0" stop-color="#d2e0eb"/><stop offset="0.48" stop-color="#6ea3c9"/><stop offset="0.58" stop-color="#6ca0c5"/><stop offset="0.67" stop-color="#6495bb"/><stop offset="0.76" stop-color="#5884a9"/><stop offset="0.84" stop-color="#466c8f"/><stop offset="0.92" stop-color="#304d6f"/><stop offset="0.97" stop-color="#1d3353"/></linearGradient><linearGradient id="Degradado_sin_nombre_46" x1="1263.64" y1="934.46" x2="1302.99" y2="995.47" gradientUnits="userSpaceOnUse"><stop offset="0" stop-color="#d2e0eb"/><stop offset="1" stop-color="#6ea3c9"/></linearGradient></defs><rect class="cls-1" x="450" y="63" width="883" height="1523" rx="33.6"/><text class="cls-2" transform="translate(779.54 49.33)">PO<tspan class="cls-3" x="33.56" y="0">S</tspan><tspan class="cls-4" x="48.46" y="0">TRE FUN</tspan><tspan class="cls-5" x="151.77" y="0">C</tspan><tspan x="168.31" y="0">TIONALIT</tspan><tspan class="cls-6" x="281.13" y="0">Y</tspan></text><rect class="cls-7" x="30" y="63" width="388" height="1523" rx="33.6"/><path class="cls-8" d="M263.16,447.53c.76-10.41-3.86-28.3-6.64-34.64s.77-28.31,0-38.48c-.37-4.86-2.42-7.83-4.72-9.64-3.24-3.43-7.73-2.83-10.86-3.53l-.09,0a15.81,15.81,0,0,1-5.15-12.76c.32-5.06,1.28-19.31-2.92-23.55-1.88-4.23-7.68-3.59-9.87-3.74l-.21,0h0l-.41,0H222l-.41,0h-.05l-.21,0c-2.41.17-9,1-10.3,5.16,0,0-3.65,6.82-1.88,14.07,1.28,5.22,1.54,13.67-4.15,20.24a8.74,8.74,0,0,1-1.7.6c-3.12.7-7.62.1-10.86,3.53-2.3,1.81-4.35,4.78-4.72,9.64-.77,10.17,2.78,32.14,0,38.48s-7.4,24.23-6.64,34.64-1.26,13.81-.76,16.07a13.87,13.87,0,0,0,3.5,8.62l1.1.86s.67,0,.07-1a26.53,26.53,0,0,1-1.34-2.71,10.31,10.31,0,0,1-.3-1.4c-.07-.37,2.16,3,3,3.67s1.12.74,1.27.57a1,1,0,0,0,0-1.1c-.3-.54,1,.33.74-.2a8.43,8.43,0,0,0-.67-1.47,16,16,0,0,1-1.49-2.51,8.92,8.92,0,0,0-.15-1.77c-.15-.23,1.23.67,1.83,1.24s1.12,1,1.56.73,0-.7-.56-1.37a30.65,30.65,0,0,0-2-2.5c-.6-.54-1.27.12-.79-2.49,0,0,1.28-2.31.22-6.13,0,0-1.12-1.31-.78-2.21,1.4-3.77,7.69-24.36,10.09-31.26,2.35-6.73,2.74-13.27,3.16-18s1-6,1-6l1.18-3.61.25.36c3.1,4.06,3.93,16.46,1.56,20.68a57.39,57.39,0,0,0-4.47,10.12c-.75,2.68-3.91,15.81-3.73,20.75s-.74,17.48.84,23.84,3.54,13.13,4,17.06.46,6.61.65,11.62a109.64,109.64,0,0,1-.09,11.22c-.19,3-.47,11.46.18,15.39s1,9.37,2,12.8,1.67,12.12,1.95,15.47a80.88,80.88,0,0,1,.56,10.29v.25s-.56,6.11-1.86,8.28-3.82,7.7-2.05,9,10.15,2,11.37.75,1.11-2.68.83-4.6.28-3.43.19-6.69,1.4-4.94.84-6.78a53.22,53.22,0,0,1-1.59-7.44,77.56,77.56,0,0,1,.94-9.54c.55-4.18-.38-7.27,1.11-11.62s1.73-12.61,0-19.75c-1.24-5.14-.83-5.18-.55-5.93s1.59-9.76,2.42-15.06a59.42,59.42,0,0,0,1-9.22A58.68,58.68,0,0,1,218.48,474s2.28-16.71,3.28-26.54l.75,0c1.05,10.5,3.28,26.57,3.28,26.57A58.68,58.68,0,0,1,227,484.86a59.42,59.42,0,0,0,1,9.22c.83,5.3,2.14,14.31,2.42,15.06s.69.79-.55,5.93c-1.73,7.14-1.49,15.39,0,19.75s.56,7.44,1.12,11.62a79,79,0,0,1,.93,9.54,53.22,53.22,0,0,1-1.59,7.44c-.55,1.84.94,3.52.84,6.78s.47,4.76.19,6.69-.37,3.35.84,4.6,9.59.59,11.36-.75-.74-6.86-2.05-9-1.86-8.28-1.86-8.28v-.25a80.88,80.88,0,0,1,.56-10.29c.28-3.35,1-12,2-15.47s1.3-8.87,2-12.8.37-12.38.19-15.39a106.32,106.32,0,0,1-.1-11.22c.19-5,.19-7.69.66-11.62s2.42-10.71,4-17.06.65-18.91.84-23.84-3-18.07-3.72-20.75a58.21,58.21,0,0,0-4.48-10.12c-2.37-4.22-1.54-16.62,1.56-20.68l.25-.36c.7,2.11,1.18,3.61,1.18,3.61s.58,1.34,1,6,.8,11.23,3.15,18c2.4,6.9,8.69,27.49,10.09,31.26.34.9-.63,2.35-.63,2.35-1.44,4.17.07,6,.07,6,.49,2.61-.19,1.95-.78,2.49a28.67,28.67,0,0,0-2,2.5c-.56.67-1,1.14-.56,1.37s1-.17,1.57-.73,2-1.47,1.82-1.24a8.92,8.92,0,0,0-.15,1.77,15.24,15.24,0,0,1-1.49,2.51,8.43,8.43,0,0,0-.67,1.47c-.3.53,1.05-.34.75.2a1,1,0,0,0,0,1.1c.15.17.45.1,1.27-.57s3.06-4,3-3.67a9,9,0,0,1-.3,1.4,24.54,24.54,0,0,1-1.34,2.71c-.6,1,.07,1,.07,1l1.1-.86a13.87,13.87,0,0,0,3.5-8.62C264.42,461.34,262.4,457.94,263.16,447.53Z"/><text class="cls-9" transform="translate(140.21 52.63)">PO<tspan class="cls-3" x="33.56" y="0">S</tspan><tspan class="cls-4" x="48.46" y="0">TRE INPU</tspan><tspan class="cls-10" x="160.4" y="0">T</tspan></text><text class="cls-11" transform="translate(107.79 139.65)">P<tspan class="cls-12" x="15.04" y="0">a</tspan><tspan class="cls-13" x="27.92" y="0">tie</tspan><tspan x="55.04" y="0">n</tspan><tspan class="cls-14" x="68.84" y="0">t</tspan><tspan class="cls-15" x="76.54" y="0"> </tspan><tspan class="cls-4" x="82.84" y="0">with </tspan><tspan class="cls-16" x="135.81" y="0">disease</tspan><tspan class="cls-14"><tspan x="0" y="27.6">and </tspan><tspan class="cls-17" x="48.62" y="27.6">structu</tspan><tspan class="cls-18" x="134.46" y="27.6">r</tspan><tspan class="cls-17" x="144.12" y="27.6">a</tspan><tspan class="cls-19" x="158.24" y="27.6">l</tspan><tspan class="cls-20" x="165.74" y="27.6"> </tspan><tspan class="cls-21" x="171.55" y="27.6">v</tspan><tspan class="cls-22" x="184.8" y="27.6">aria</tspan><tspan class="cls-23" x="229.65" y="27.6">n</tspan><tspan class="cls-17" x="244.35" y="27.6">t</tspan></tspan></text><circle class="cls-24" cx="222" cy="339" r="26"/><circle class="cls-25" cx="133.5" cy="281.5" r="4.5"/><line class="cls-25" x1="133.5" y1="281.5" x2="196" y2="333.64"/><text class="cls-26" transform="translate(147.71 288.68)">Cogniti<tspan class="cls-27" x="61.24" y="0">v</tspan><tspan x="70.99" y="0">e anoma</tspan><tspan class="cls-28" x="147.02" y="0">l</tspan><tspan class="cls-29" x="151.83" y="0">y</tspan></text><path class="cls-30" d="M82,656H358.05"/><rect class="cls-31" x="281" y="649" width="63" height="13"/><rect class="cls-31" x="100" y="650" width="63" height="13"/><text class="cls-32" transform="translate(115.17 659.94)">GENE<tspan class="cls-33" x="26.01" y="0" xml:space="preserve"> A</tspan></text><text class="cls-32" transform="translate(295.07 658.75)">GENE B</text><line class="cls-30" x1="200" y1="647" x2="190.14" y2="663.81"/><line class="cls-30" x1="265.03" y1="647.71" x2="255.18" y2="664.52"/><rect class="cls-34" x="203" y="654" width="5" height="5"/><rect class="cls-34" x="218" y="654" width="5" height="5"/><rect class="cls-34" x="233" y="653" width="5" height="5"/><rect class="cls-34" x="247" y="653" width="5" height="5"/><path class="cls-35" d="M216,413.05c-.89,8.72,15,13.63,13.93,22.95"/><path class="cls-35" d="M229,413c.8,8.72-13.5,13.64-12.53,22.95"/><line class="cls-35" x1="216.48" y1="432.88" x2="229.68" y2="432.88"/><line class="cls-35" x1="216.48" y1="415.41" x2="228.75" y2="415.41"/><line class="cls-35" x1="217.94" y1="418.78" x2="227.21" y2="418.78"/><line class="cls-35" x1="218.43" y1="429.23" x2="227.69" y2="429.23"/><circle class="cls-24" cx="222.5" cy="424.5" r="22"/><circle class="cls-25" cx="183.5" cy="624.5" r="4.5"/><text class="cls-36" transform="translate(195.1 629.95)">Del<tspan class="cls-37" x="29.61" y="0">e</tspan><tspan x="40.63" y="0">tion</tspan></text><rect class="cls-38" x="189.5" y="642.5" width="78" height="27"/><text class="cls-39" transform="translate(489.06 111.71)">D<tspan class="cls-12" x="17.27" y="0">e</tspan><tspan class="cls-40" x="31.35" y="0">t</tspan><tspan class="cls-4" x="38.75" y="0">ermining:</tspan><tspan class="cls-22"><tspan x="0" y="27.6" xml:space="preserve">  </tspan><tspan class="cls-41" x="12.88" y="27.6"> </tspan><tspan class="cls-42" x="18.61" y="27.6">A</tspan><tspan class="cls-43" x="34.71" y="27.6">ff</tspan><tspan x="49.79" y="27.6">ec</tspan><tspan class="cls-44" x="78.38" y="27.6">t</tspan><tspan x="87.84" y="27.6">ed gene</tspan><tspan x="0" y="55.2" xml:space="preserve">   </tspan><tspan class="cls-3" x="19.32" y="55.2">P</tspan><tspan class="cls-12" x="34.45" y="55.2">a</tspan><tspan class="cls-4" x="48.48" y="55.2">thologica</tspan><tspan class="cls-45" x="161.27" y="55.2">l</tspan><tspan class="cls-4" x="168.77" y="55.2" xml:space="preserve"> mechanisms</tspan></tspan></text><text class="cls-39" transform="translate(1001.19 138.25)">An<tspan class="cls-5" x="30.34" y="0">o</tspan><tspan x="44.57" y="0">t</tspan><tspan class="cls-12" x="52.28" y="0">a</tspan><tspan class="cls-13" x="65.16" y="0">ting </tspan><tspan class="cls-17" x="113.73" y="0">p</tspan><tspan class="cls-46" x="129.24" y="0">a</tspan><tspan class="cls-22" x="143.27" y="0">thogenic </tspan><tspan class="cls-17"><tspan x="0" y="27.6">s</tspan><tspan class="cls-3" x="12.35" y="27.6">c</tspan><tspan x="26.13" y="27.6">enario</tspan><tspan class="cls-47" x="101.22" y="27.6" xml:space="preserve"> in </tspan><tspan x="134.23" y="27.6">spa</tspan><tspan class="cls-48" x="176.2" y="27.6">c</tspan><tspan x="189.98" y="27.6">e</tspan><tspan class="cls-49" x="204.67" y="27.6" xml:space="preserve"> and </tspan><tspan class="cls-14" x="260.22" y="27.6">time</tspan></tspan></text><line class="cls-50" x1="483" y1="362.8" x2="945" y2="362.43"/><polygon class="cls-51" points="613.63 258.84 509.23 361.9 718.02 361.9 613.63 258.84"/><polygon class="cls-52" points="821.61 258.84 717.21 361.9 926.01 361.9 821.61 258.84"/><ellipse class="cls-53" cx="735.4" cy="362.01" rx="5.22" ry="2.81"/><ellipse class="cls-53" cx="753.04" cy="362.01" rx="5.22" ry="2.81"/><ellipse class="cls-53" cx="777.01" cy="362.01" rx="5.22" ry="2.81"/><ellipse class="cls-53" cx="796.9" cy="362.01" rx="5.22" ry="2.81"/><line class="cls-54" x1="716.98" y1="307.19" x2="716.98" y2="362.01"/><text class="cls-55" transform="translate(504.65 285.52) scale(0.86 1)"><tspan class="cls-56">T</tspan><tspan x="5.02" y="0">AD </tspan><tspan x="-10.62" y="11.16">Boundar</tspan><tspan class="cls-57" x="26.16" y="11.16">y</tspan></text><text class="cls-55" transform="translate(708.89 284.21) scale(0.86 1)"><tspan class="cls-58">T<tspan class="cls-59" x="5.02" y="0">AD </tspan></tspan><tspan x="-10.62" y="11.16">Boundar</tspan><tspan class="cls-60" x="26.16" y="11.16">y</tspan></text><text class="cls-55" transform="translate(915.47 292.05) scale(0.86 1)"><tspan class="cls-58">T<tspan class="cls-59" x="5.02" y="0">AD </tspan></tspan><tspan x="-10.62" y="11.16">Boundar</tspan><tspan class="cls-60" x="26.16" y="11.16">y</tspan></text><rect class="cls-31" x="545.78" y="359.21" width="20.24" height="5.61"/><path class="cls-61" d="M764,352.32c0-14.91,26-27,58-27,27.57,0,50.65,9,56.53,21"/><polygon points="876.09 345.51 880 352.32 880.02 344.46 876.09 345.51"/><path class="cls-61" d="M730,353.32h72"/><text class="cls-62" transform="translate(736.86 378.65) scale(0.86 1)"> <tspan class="cls-63" x="3.13" y="0">E</tspan><tspan x="10.89" y="0">nhan</tspan><tspan class="cls-64" x="42.02" y="0">c</tspan><tspan x="49.31" y="0">ers</tspan></text><line class="cls-54" x1="925.91" y1="307.83" x2="925.91" y2="362.65"/><line class="cls-54" x1="512.89" y1="309.44" x2="512.89" y2="364.26"/><text class="cls-62" transform="translate(536.51 378.39) scale(0.88 1)">Gene<tspan class="cls-65" x="32.97" y="0" xml:space="preserve"> A</tspan></text><rect class="cls-31" x="869.76" y="358.6" width="20.24" height="5.61"/><text class="cls-62" transform="translate(858.54 378.77) scale(0.88 1)">Gene B</text><rect class="cls-38" x="725.5" y="356.5" width="78" height="27"/><text class="cls-66" transform="translate(737.13 397.62)">Del<tspan class="cls-67" x="23.03" y="0">e</tspan><tspan class="cls-68" x="31.6" y="0">tion</tspan></text><circle class="cls-24" cx="555.5" cy="369.5" r="26"/><line class="cls-25" x1="556.55" y1="395.86" x2="557" y2="436"/><circle class="cls-25" cx="556.5" cy="431.5" r="4.5"/><text class="cls-69" transform="translate(468.22 455.56)">N<tspan class="cls-70" x="14.56" y="0">o </tspan><tspan class="cls-71" x="31.25" y="0">e</tspan><tspan class="cls-72" x="42.25" y="0">ff</tspan><tspan class="cls-73" x="52.16" y="0">ect on Gene</tspan><tspan class="cls-33" x="159.42" y="0" xml:space="preserve"> A</tspan></text><circle class="cls-24" cx="878.5" cy="368.5" r="26"/><line class="cls-25" x1="877.81" y1="395.89" x2="878.26" y2="436"/><circle class="cls-25" cx="878.5" cy="431.5" r="4.5"/><text class="cls-26" transform="translate(805.66 455.94)">Gene B <tspan class="cls-37" x="70.09" y="0">a</tspan><tspan class="cls-72" x="80.17" y="0">ff</tspan><tspan x="90.09" y="0">ec</tspan><tspan class="cls-74" x="111.58" y="0">t</tspan><tspan class="cls-70" x="117.38" y="0">ed </tspan><tspan x="0" y="21.6">th</tspan><tspan class="cls-72" x="16.92" y="21.6">r</tspan><tspan class="cls-70" x="22.99" y="21.6">ough </tspan><tspan x="0" y="43.2">enhan</tspan><tspan class="cls-71" x="53.91" y="43.2">c</tspan><tspan x="64.22" y="43.2">e</tspan><tspan class="cls-75" x="75.31" y="43.2">r</tspan><tspan x="81.41" y="43.2" xml:space="preserve"> del</tspan><tspan class="cls-76" x="114.51" y="43.2">e</tspan><tspan x="125.53" y="43.2">tion</tspan></text><line class="cls-25" x1="222" y1="447" x2="184" y2="629"/><text class="cls-77" transform="translate(1094.92 241.76)">Ges<tspan class="cls-78" x="29.18" y="0">t</tspan><tspan class="cls-79" x="34.35" y="0">ation</tspan><tspan class="cls-80" x="73.05" y="0"> </tspan><tspan class="cls-81" x="77.57" y="0">w</tspan><tspan x="89.92" y="0">eeks</tspan></text><text class="cls-82" transform="translate(1033.04 455.06)">P<tspan class="cls-37" x="11.77" y="0">a</tspan><tspan class="cls-73" x="21.85" y="0">thogenic </tspan><tspan class="cls-83" x="103.52" y="0">e</tspan><tspan class="cls-27" x="114.35" y="0">v</tspan><tspan class="cls-73" x="124.11" y="0">e</tspan><tspan class="cls-71" x="135.2" y="0">n</tspan><tspan class="cls-73" x="146" y="0">t in the</tspan><tspan class="cls-84" x="205.86" y="0"> </tspan><tspan class="cls-84"><tspan x="0" y="21.6">b</tspan><tspan class="cls-85" x="12.13" y="21.6">r</tspan><tspan x="19.69" y="21.6">ain p</tspan><tspan class="cls-86" x="64.82" y="21.6">r</tspan><tspan class="cls-87" x="72.03" y="21.6">e</tspan><tspan x="83.45" y="21.6">f</tspan><tspan class="cls-72" x="90.83" y="21.6">r</tspan><tspan x="98.04" y="21.6">o</tspan><tspan class="cls-71" x="109.67" y="21.6">n</tspan><tspan x="121.17" y="21.6">ta</tspan><tspan class="cls-33" x="139.86" y="21.6">l</tspan><tspan x="145.73" y="21.6"> </tspan><tspan class="cls-71" x="150.77" y="21.6">c</tspan><tspan x="161.55" y="21.6">or</tspan><tspan class="cls-88" x="180.86" y="21.6">t</tspan><tspan class="cls-89" x="188.26" y="21.6">e</tspan><tspan x="199.42" y="21.6">x</tspan><tspan class="cls-90" x="209.7" y="21.6"> </tspan><tspan class="cls-91" x="215.11" y="21.6">a</tspan><tspan class="cls-90" x="225.19" y="21.6">t </tspan><tspan x="0" y="43.2">gest</tspan><tspan class="cls-92" x="40.93" y="43.2">a</tspan><tspan class="cls-70" x="51.91" y="43.2">tion</tspan><tspan class="cls-29" x="88.07" y="43.2"> </tspan><tspan class="cls-89" x="92.63" y="43.2">w</tspan><tspan x="108.11" y="43.2">eek 14</tspan></tspan></text><path class="cls-93" d="M1083.23,355.87c5.45-.87,3.6-38.56.55-44.2-3.25-6-9.51-8.78-14.9-12.29a123.79,123.79,0,0,1-16.16-13.09c-10-9.33-26.66-15.22-39-6-6,4.52-9.12,13.47-10.73,20.18-1.77,7.35-2.1,17.06-2.09,25,0,5,.2,8.82,2.43,13.25,3.82,7.57,9.81,6.11,13.16,6.23,9.66.34,20.93-3.29,22.57-14.31-1.73,2.41-1.47,7.34,2.21,8.05,4.18.81,5.47-5.35,6.91-8.32-1.16,2.15-2.88,5.24-1.33,7.16,2.51,3.1,7.89.55,11.34-1.05-1.77.44-5.18,1.09-4.72,2.67.38,1.29,2.75,1,4.35.81-12.35,2.85-30.49,1.73-30.14,20.26,1.19.36,4-.09,5.37-.33,3-.5,5.91-.94,8.92-1.24,7-.68,13.8-1.5,20.81-1.49,4.85,0,9.6-.4,14.44-.21,2,.08,5,.3,6.54-1C1083,355.68,1083.59,356.59,1083.23,355.87Z"/><path class="cls-94" d="M1076.9,354.49c-3.38-.18-6.36,1.68-9.39-.38,1-6,9.29-23.83,1.12-27.67-7.31-3.43-15.36,7.36-24.24,1.49-6.92-4.58-3.05-12.64-7.45-18.46-4.86-6.42-13.94,1.65-9.31,6.64,2.51,2.7,5.39,1.37,6.42,5.95.54,2.37,1.57,6.36-.53,7.67-.68.41-2.76-.7-3.15-.91,5.88,4.64-9.67,7.55-12.49,8.94-4.81,2.36-8.8,4-11.9-2.2-1.87-3.75-1.22-11.75,2.36-14.46s11.82,3.2,12.36,1c-4.14-5.64-10.07.12-13.77-2.64-8.15-6,6.72-22.85,11.66-26.26,7.7-5.33,13.82-6.28,20.7.6,5.34-3.08,12.13-.48,13.13,5.87.93,5.91-5.86,12.07-3.8,17.33,4.31,2.21,9.6-4.11,13.72-5.16,8.61-2.2,19.17,4,19.89,13.54.74,9.75-1.53,19.73-4.61,29.11C1077.26,354.39,1077.15,354.74,1076.9,354.49Z"/><path class="cls-95" d="M1199.09,350c-4.07-14.36,1.52-28.69-2.06-42.79a60.54,60.54,0,0,0-9.15-20.49c-4.19-6.15-5.64-13.58-11.82-18.3-14.5-11.05-30.23-11.57-45-1.12-13.67,9.64-30.18,28-22.71,46.33a21.69,21.69,0,0,0,9.49,11.51c4.34,2.75,9.89,2.48,14,4.89,3.31,1.92,2.94,8.39,5.53,9.5,2.2.93,3.38-2.6,5.46-2.73,2.76-.18,4.15,4.05,6.71,3.1,1.59-.58,2.32-4.51,3-5.83-1.86,5.36-2.08,6.75,3.77,5,6.63-1.95,4.3-2.65,7.49-8.15-2.35,3.91-1.68,5.3-2.86,9.59-1.08,3.91-3.5,7.22-4.59,11.06,6,.66,12.94.66,19.12.87a54.82,54.82,0,0,0,13.71-1.06C1191.92,350.74,1196.79,350.22,1199.09,350Z"/><path class="cls-96" d="M1179.63,282.89c4,6.24,6.36,10.16,5.41,18.22,5-.52,7.19,7.43,5.29,11.52-2.21,4.75-7.76,4-11.3,5.92-8.39,4.46,3.61,1.86,6,3.73,3.44,2.73,1.46,13.43.82,17.35-1,6-3.28,14.87-10.68,10.71,7.31-14.07-11.17-17.43-13-27.12-.82-4.33,4.1-5.72,6.37-9.08a58.43,58.43,0,0,0,6.49-13C1177.84,293.23,1178.36,285.84,1179.63,282.89Z"/><path class="cls-97" d="M1147.62,306.51c-3.69-1.55-7.28,4.6-5.32,7.59,1.85,2.84,4.8,3.62,6.39,6.67,1.38-.55,1.35-2.69,2.26-3.92,1.19-1.6,2.22-1.64,2.13-4a8.15,8.15,0,0,0-1.88-4.63C1149.76,306.53,1147.07,306.83,1147.62,306.51Z"/><path class="cls-25" d="M1154.88,317.29c9,11.22,19.85-4.81,23.42-16.3,3.11-10,2.21-25.44-7.78-31.63-11.09-6.88-26.15-4.32-36.63,3.18-12.6,9-25.57,25-17,40.61,3.43,6.22,12.26,11.92,18.41,5.37,5.38-5.72,12.35-18.72,17.48-5.55A15.47,15.47,0,0,0,1154.88,317.29Z"/><path class="cls-98" d="M1311.09,308.17a46.13,46.13,0,0,0-1.76-20.84c-2.65-8.38-8.4-14.21-15-19.79-14.62-12.36-37.39-15.38-54.37-6.18-13,7.05-28.2,22.16-25,38.32.85,4.28,2,9.5,4.84,13.11,1.82,2.36,5.55,4.28,6.61,7.15,1.74,4.68-4,9.34-3,12.76.76,2.56,3.87,2.49,6.15,1.48.21,2.66-1.8,2.4-.14,4.79.9,1.3,4.15,1,5.23,2.32,2.72,3.38-.63,9.76,6.47,8.83,1.8-.24,4-2.33,5.79-2.9a45.22,45.22,0,0,1,7.65-1.21,29.48,29.48,0,0,0,8.51-1.77c-1.31,1.19-1.52,4.68-3,6.41,1.89-.6,4.83-.25,6.84-.35,2.29-.11,4.59-.17,6.86-.16s4.74-.33,7.13-.39,4.87.13,7.32.13c4.63,0,9.15,0,13.74-.27,1.32-.07,6.14.59,6.25-1.37l.1,0c0-.11-.07-.21-.11-.32s0,0,0,0h0c-2.2-6.1-5.48-11.33-4.12-18.06C1305.54,322.71,1310.05,315.47,1311.09,308.17Zm-47.92,36a11.71,11.71,0,0,0,4.15-3l-37.6-7.07"/><path class="cls-99" d="M1286,322.28l.39.16c-.19,1.64.65,3.27,1,4.85a51.14,51.14,0,0,1,1.06,6.44,52.11,52.11,0,0,0,3.44,12.68c-1.45.09-2.94,0-4.4,0s-1.47-.14-1.81-1.45c-1.19-4.54-1.72-9.23-3-13.76-.61-2.09-1.24-5.24-3.2-6.17a6.83,6.83,0,0,1-3.24-2.67c-.84-1.32-1.32-2.6-2.93-3-1.19-.3-2.51-.13-3.66-.75a6.74,6.74,0,0,1-2.54-3.18c-.24-.13-.12.08-.24.11"/><path class="cls-100" d="M1276.27,316.34c3.67.27,3.9,4.53,7.1,5.81,2.66,1.06,4-1.46,5.7-3.17,2.16-2.11,2.62-5,3.2-7.82,1.08-5.3-7.42-4.64-10.54-3.44-4,1.56-7,5-11,6.52-1.91.71-3.07,1.73-4.71.38"/><path class="cls-101" d="M1252.65,308.69c-1.35-.61-3.37-1.56-4.82-.8-1.91,1-1.08,3.12-.49,4.65,1.18,3,3.7,7.31,7.62,7,2.38-.21,1.5-1.92,2-3.56.46,2.2.66,3.89,3.2,3.62,1.73-.18,4.14-.16,5.37-1.52s1.13-3.22-.76-3.83c-1.43-.45-3,.13-4.49-.11a8.16,8.16,0,0,1-3.49-1.8C1255,311.07,1253,308.34,1252.65,308.69Z"/><path class="cls-25" d="M1303.72,289.15c.41.8,1.41,1.49,1.85,2.65a15.79,15.79,0,0,1,1.06,3,13.45,13.45,0,0,1-6.07,13.43,13.2,13.2,0,0,1-8.4,1.95c-1.16-.18-2.7-1.51-3.66-1.5s-3.13,1.57-4,2c-2.94,1.3-7.11.33-9.51,2.69-1.21,1.2-1.62,2.38-3.43,2.56a35.5,35.5,0,0,1-3.86,0c-3.39,0-6.27,1.11-9.34-.63-5.61-3.18-6.64-8.35-5.24-14.29.71-3,2-6.37,4.23-8.57a24.21,24.21,0,0,1,5.44-4.39c2.26-1.17,4.65-2.05,6.67-3.63a19.52,19.52,0,0,0,3.29-3.72"/><path class="cls-25" d="M1297.39,302c1.95-1.43,3.32-2.2,4.36-4.33,2-4.19,3-11.44-.28-15.2-4-4.55-7.84-9-12.63-12.8a43.38,43.38,0,0,0-16.39-8.38,53.86,53.86,0,0,0-20.22.2c-5.85,1.3-10,4.82-15.29,7.52a28.42,28.42,0,0,0-8.68,7.23c-2.47,2.94-4.87,5.94-5.84,10.71-1.26,6.26.19,11.66,3.24,17.23,1.94,3.55,4.27,7,7.72,9.21,3.07,2,8.34,1.92,11.75.89a13.39,13.39,0,0,0,4.36-2.63c1.38-1.21,2.13-3,3.29-4.23"/><text class="cls-102" transform="translate(1052.27 395.38)">6</text><text class="cls-102" transform="translate(1276.71 393.43)">30</text><text class="cls-102" transform="translate(1170.47 393.91)">14</text><circle class="cls-103" cx="1133" cy="304" r="26"/><circle class="cls-104" cx="1133.5" cy="430.5" r="4.5"/><line class="cls-104" x1="1133.32" y1="329.09" x2="1133.77" y2="427"/><polyline class="cls-105" points="1179 530 1179 567 717 567 717 530"/><polyline class="cls-105" points="878 512 878 530.15 557 530.15 557.47 475"/><line class="cls-105" x1="961.36" y1="567" x2="961.36" y2="598.75"/><text class="cls-106" transform="translate(860.3 626.43)">PREDI<tspan class="cls-107" x="52.36" y="0">C</tspan><tspan class="cls-108" x="64.35" y="0">TION R</tspan><tspan class="cls-109" x="125.08" y="0">E</tspan><tspan class="cls-108" x="135.67" y="0">SU</tspan><tspan class="cls-110" x="159.72" y="0">L</tspan><tspan class="cls-108" x="168.51" y="0">TS</tspan></text><text class="cls-111" transform="translate(688 739.68)">P<tspan class="cls-37" x="11.77" y="0">a</tspan><tspan class="cls-73" x="21.85" y="0">thogenic </tspan><tspan class="cls-84" x="103.52" y="0">d</tspan><tspan class="cls-112" x="115.85" y="0">o</tspan><tspan class="cls-84" x="127.13" y="0">wn</tspan><tspan class="cls-113" x="154.55" y="0">r</tspan><tspan class="cls-114" x="161.76" y="0">egul</tspan><tspan class="cls-115" x="203.67" y="0">a</tspan><tspan class="cls-114" x="214.65" y="0">tion </tspan><tspan class="cls-116" x="255.85" y="0">o</tspan><tspan class="cls-117" x="267.33" y="0">f</tspan><tspan class="cls-114" x="274.33" y="0" xml:space="preserve"> gene B</tspan><tspan class="cls-73" x="344.1" y="0">, th</tspan><tspan class="cls-72" x="371.84" y="0">r</tspan><tspan class="cls-70" x="377.9" y="0">ough </tspan><tspan class="cls-84" x="428.14" y="0">enhan</tspan><tspan class="cls-118" x="485.47" y="0">c</tspan><tspan class="cls-84" x="496.25" y="0">e</tspan><tspan class="cls-119" x="507.75" y="0">r</tspan><tspan class="cls-84" x="515.01" y="0"> </tspan><tspan class="cls-84"><tspan x="0" y="21.6">del</tspan><tspan class="cls-37" x="30.26" y="21.6">e</tspan><tspan x="41.69" y="21.6">tion</tspan><tspan class="cls-90" x="77.85" y="21.6" xml:space="preserve"> in the</tspan><tspan x="131.69" y="21.6" xml:space="preserve"> b</tspan><tspan class="cls-120" x="148.86" y="21.6">r</tspan><tspan class="cls-70" x="156.42" y="21.6">ain p</tspan><tspan class="cls-72" x="201.54" y="21.6">r</tspan><tspan class="cls-87" x="208.76" y="21.6">e</tspan><tspan class="cls-70" x="220.17" y="21.6">f</tspan><tspan class="cls-121" x="227.55" y="21.6">r</tspan><tspan class="cls-70" x="234.77" y="21.6">o</tspan><tspan class="cls-87" x="246.4" y="21.6">n</tspan><tspan class="cls-70" x="257.9" y="21.6">ta</tspan><tspan class="cls-33" x="276.58" y="21.6">l</tspan><tspan class="cls-70" x="282.45" y="21.6"> </tspan><tspan class="cls-87" x="287.49" y="21.6">c</tspan><tspan class="cls-70" x="298.27" y="21.6">or</tspan><tspan class="cls-74" x="317.59" y="21.6">t</tspan><tspan class="cls-122" x="324.98" y="21.6">e</tspan><tspan class="cls-70" x="336.14" y="21.6">x</tspan><tspan class="cls-90" x="346.42" y="21.6"> </tspan><tspan class="cls-91" x="351.84" y="21.6">a</tspan><tspan class="cls-90" x="361.92" y="21.6">t </tspan><tspan x="373.37" y="21.6">gest</tspan><tspan class="cls-92" x="414.3" y="21.6">a</tspan><tspan class="cls-70" x="425.28" y="21.6">tion</tspan><tspan class="cls-29" x="461.44" y="21.6"> </tspan><tspan class="cls-89" x="465.99" y="21.6">w</tspan><tspan x="481.47" y="21.6">eek 14</tspan></tspan></text><line class="cls-123" x1="961.54" y1="631.98" x2="961.54" y2="642.67"/><polygon class="cls-51" points="958.81 640.8 961.54 651 964.27 640.8 958.81 640.8"/><circle class="cls-51" cx="496.66" cy="157.06" r="4.5"/><circle class="cls-51" cx="496.66" cy="130.06" r="4.5"/><text class="cls-124" transform="translate(867.74 682.66)">NON-<tspan class="cls-107" x="47.95" y="0">C</tspan><tspan x="59.94" y="0">ODING EFF</tspan><tspan class="cls-109" x="154.8" y="0">E</tspan><tspan class="cls-107" x="165.51" y="0">C</tspan><tspan class="cls-125" x="177.49" y="0">T</tspan></text><path class="cls-8" d="M264.28,1147c.76-10.41-3.86-28.3-6.64-34.64s.77-28.31,0-38.48c-.37-4.86-2.42-7.83-4.72-9.64-3.23-3.43-7.73-2.83-10.86-3.53l-.09,0a15.81,15.81,0,0,1-5.15-12.76c.32-5.06,1.29-19.31-2.92-23.55-1.88-4.23-7.67-3.59-9.86-3.74l-.22,0h0l-.41,0h-.21l-.41,0h0l-.22,0c-2.41.17-9,1-10.3,5.16,0,0-3.65,6.82-1.88,14.07,1.28,5.22,1.54,13.66-4.14,20.24a9,9,0,0,1-1.71.6c-3.12.7-7.62.1-10.86,3.53-2.3,1.81-4.35,4.78-4.71,9.64-.78,10.17,2.77,32.14,0,38.48s-7.4,24.23-6.65,34.64-1.26,13.81-.75,16.07a13.83,13.83,0,0,0,3.49,8.62l1.1.86s.67,0,.07-1a26.53,26.53,0,0,1-1.34-2.71,10.31,10.31,0,0,1-.3-1.4c-.07-.37,2.16,3,3,3.67s1.11.74,1.26.57a1,1,0,0,0,0-1.1c-.3-.54,1,.33.74-.2a8.43,8.43,0,0,0-.67-1.47,16,16,0,0,1-1.49-2.51,8.92,8.92,0,0,0-.15-1.77c-.15-.23,1.23.67,1.83,1.24s1.12,1,1.56.73,0-.7-.56-1.37a30.65,30.65,0,0,0-2-2.5c-.6-.54-1.27.12-.79-2.49,0,0,1.28-2.31.22-6.13,0,0-1.12-1.31-.78-2.21,1.4-3.77,7.69-24.36,10.1-31.26,2.34-6.73,2.73-13.27,3.15-18s1-6,1-6l1.18-3.61c.08.12.17.24.26.35,3.09,4.07,3.92,16.47,1.55,20.69a58.14,58.14,0,0,0-4.47,10.12c-.75,2.68-3.91,15.81-3.72,20.75s-.75,17.48.83,23.84,3.54,13.13,4,17.06.46,6.61.65,11.62a109.64,109.64,0,0,1-.09,11.22c-.19,3-.47,11.46.18,15.39s1,9.37,2,12.8,1.67,12.12,2,15.47a82.64,82.64,0,0,1,.55,10.29v.25s-.55,6.11-1.86,8.28-3.82,7.7-2,9,10.15,2,11.37.75,1.11-2.68.83-4.6.28-3.43.19-6.69,1.4-4.94.84-6.78a53.22,53.22,0,0,1-1.59-7.44,77.39,77.39,0,0,1,.94-9.54c.56-4.18-.38-7.28,1.12-11.62s1.72-12.61,0-19.75c-1.25-5.14-.84-5.18-.56-5.93s1.59-9.76,2.42-15.06a59.42,59.42,0,0,0,1-9.22,58.68,58.68,0,0,1,1.18-10.82s2.28-16.71,3.28-26.55l.75,0c1.05,10.5,3.29,26.57,3.29,26.57a59.66,59.66,0,0,1,1.17,10.82,59.49,59.49,0,0,0,1,9.22c.82,5.3,2.13,14.31,2.41,15.06s.69.79-.55,5.93c-1.73,7.14-1.49,15.39,0,19.75s.56,7.44,1.12,11.62a76.78,76.78,0,0,1,.93,9.54,53.22,53.22,0,0,1-1.59,7.44c-.55,1.84.94,3.52.84,6.78s.47,4.76.19,6.69-.37,3.35.84,4.6,9.59.58,11.36-.75-.74-6.86-2-9-1.86-8.28-1.86-8.28v-.25a80.88,80.88,0,0,1,.56-10.29c.28-3.35,1-12,2-15.47s1.3-8.87,1.95-12.8.37-12.38.19-15.39a106.32,106.32,0,0,1-.1-11.22c.19-5,.19-7.69.66-11.62s2.42-10.71,4-17.06.65-18.91.84-23.84-3-18.07-3.72-20.75a58.21,58.21,0,0,0-4.48-10.12c-2.36-4.22-1.54-16.62,1.56-20.69.09-.11.17-.23.25-.35.7,2.11,1.18,3.61,1.18,3.61s.58,1.34,1,6,.8,11.23,3.15,18c2.41,6.9,8.69,27.49,10.09,31.26.34.9-.63,2.35-.63,2.35-1.44,4.17.07,6,.07,6,.49,2.61-.19,2-.78,2.49a28.67,28.67,0,0,0-2,2.5c-.56.67-1,1.14-.56,1.37s1-.17,1.57-.73,2-1.47,1.82-1.24a8.92,8.92,0,0,0-.15,1.77,15.24,15.24,0,0,1-1.49,2.51,8.43,8.43,0,0,0-.67,1.47c-.3.53,1.05-.34.75.2a1,1,0,0,0,0,1.1c.15.17.45.1,1.27-.57s3.06-4,3-3.67a9,9,0,0,1-.3,1.4,24.54,24.54,0,0,1-1.34,2.71c-.6,1,.07,1,.07,1l1.1-.86a13.87,13.87,0,0,0,3.5-8.62C265.54,1160.8,263.52,1157.4,264.28,1147Z"/><line class="cls-7" x1="30" y1="828.5" x2="36" y2="828.5"/><line class="cls-126" x1="48.13" y1="828.5" x2="405.94" y2="828.5"/><line class="cls-7" x1="412" y1="828.5" x2="418" y2="828.5"/><line class="cls-123" x1="961.26" y1="692.66" x2="961.26" y2="703.35"/><polygon class="cls-51" points="958.52 701.48 961.26 711.68 963.99 701.48 958.52 701.48"/><line class="cls-1" x1="450" y1="828" x2="456" y2="828"/><line class="cls-127" x1="467.93" y1="828" x2="1321.03" y2="828"/><line class="cls-1" x1="1327" y1="828" x2="1333" y2="828"/><path class="cls-35" d="M216.23,1120.05c-.89,8.72,15,13.63,13.93,23"/><path class="cls-35" d="M229.25,1120c.8,8.72-13.5,13.64-12.53,23"/><line class="cls-35" x1="216.69" y1="1139.88" x2="229.89" y2="1139.88"/><line class="cls-35" x1="216.69" y1="1122.41" x2="228.96" y2="1122.41"/><line class="cls-35" x1="218.16" y1="1125.78" x2="227.42" y2="1125.78"/><line class="cls-35" x1="218.64" y1="1136.23" x2="227.91" y2="1136.23"/><circle class="cls-24" cx="222.71" cy="1131.5" r="22"/><line class="cls-25" x1="226.21" y1="1154" x2="182" y2="1394"/><text class="cls-128" transform="translate(195.57 1400.5)">T<tspan class="cls-120" x="9.54" y="0">r</tspan><tspan class="cls-73" x="15.95" y="0">ansloc</tspan><tspan class="cls-92" x="72.86" y="0">a</tspan><tspan class="cls-70" x="82.94" y="0">tion</tspan></text><circle class="cls-25" cx="181.5" cy="1394.5" r="4.5"/><rect class="cls-38" x="179.5" y="1422.5" width="161" height="118"/><text class="cls-26" transform="translate(223.74 971.8)">Ca<tspan class="cls-72" x="23.42" y="0">r</tspan><tspan class="cls-70" x="29.48" y="0">diac anoma</tspan><tspan class="cls-28" x="130.68" y="0">l</tspan><tspan class="cls-129" x="135.48" y="0">y</tspan></text><circle class="cls-24" cx="231" cy="1083" r="19.5"/><circle class="cls-25" cx="212.5" cy="963.5" r="4.5"/><line class="cls-25" x1="213" y1="968" x2="225.93" y2="1065.18"/><path class="cls-130" d="M517.86,913.19H945"/><text class="cls-131" transform="translate(479.46 916.29)">Ch<tspan class="cls-132" x="18.89" y="0">r</tspan><tspan x="24.02" y="0" xml:space="preserve"> 1</tspan></text><line class="cls-133" x1="758.28" y1="894.26" x2="742.13" y2="931.9"/><text class="cls-55" transform="translate(717.78 942.35) scale(0.86 1)">B<tspan class="cls-134" x="6.19" y="0">r</tspan><tspan x="9.22" y="0">eakpoi</tspan><tspan class="cls-135" x="37.97" y="0">n</tspan><tspan class="cls-136" x="43.34" y="0">t 2</tspan></text><path class="cls-130" d="M518.58,866.11H945"/><rect class="cls-31" x="639.17" y="859.26" width="63" height="13"/><text class="cls-32" transform="translate(652.93 868.95)">GENE C</text><text class="cls-131" transform="translate(479.3 868.95)">Ch<tspan class="cls-132" x="18.89" y="0">r</tspan><tspan x="24.02" y="0" xml:space="preserve"> 4</tspan></text><line class="cls-133" x1="678.13" y1="843.99" x2="661.98" y2="881.63"/><text class="cls-55" transform="translate(639.15 891.93) scale(0.86 1)">B<tspan class="cls-134" x="6.19" y="0">r</tspan><tspan x="9.22" y="0">eakpoi</tspan><tspan class="cls-135" x="37.97" y="0">n</tspan><tspan class="cls-136" x="43.34" y="0">t 1</tspan></text><line class="cls-123" x1="696.5" y1="920" x2="696.5" y2="1006.67"/><polygon class="cls-51" points="693.77 1004.8 696.5 1015 699.23 1004.8 693.77 1004.8"/><text class="cls-26" transform="translate(720.18 989.11)">Fina<tspan class="cls-137" x="36.7" y="0">l</tspan><tspan class="cls-70" x="41.15" y="0"> </tspan><tspan class="cls-72" x="46.56" y="0">r</tspan><tspan class="cls-70" x="52.63" y="0">ear</tspan><tspan class="cls-85" x="80.4" y="0">r</tspan><tspan x="86.81" y="0">angeme</tspan><tspan class="cls-71" x="158.67" y="0">n</tspan><tspan x="169.47" y="0">t</tspan></text><path class="cls-130" d="M515.49,1077.84H861"/><text class="cls-131" transform="translate(476.2 1080.67)">Ch<tspan class="cls-132" x="18.89" y="0">r</tspan><tspan x="24.02" y="0" xml:space="preserve"> 4</tspan></text><text class="cls-55" transform="translate(636.06 1103.66) scale(0.86 1)">B<tspan class="cls-134" x="6.19" y="0">r</tspan><tspan x="9.22" y="0">eakpoi</tspan><tspan class="cls-135" x="37.97" y="0">n</tspan><tspan class="cls-136" x="43.34" y="0">t 1</tspan></text><text class="cls-131" transform="translate(871.11 1082.57)">Ch<tspan class="cls-132" x="18.89" y="0">r</tspan><tspan x="24.02" y="0" xml:space="preserve"> 1</tspan></text><polygon class="cls-31" points="668.14 1070.99 636.07 1070.99 636.07 1083.99 662.56 1083.99 668.14 1070.99"/><text class="cls-32" transform="translate(649.84 1080.67)">GEN</text><line class="cls-133" x1="675.04" y1="1055.72" x2="658.89" y2="1093.36"/><path class="cls-130" d="M514.76,1124.92H918"/><text class="cls-131" transform="translate(476.36 1128.02)">Ch<tspan class="cls-132" x="18.89" y="0">r</tspan><tspan x="24.02" y="0" xml:space="preserve"> 1</tspan></text><text class="cls-55" transform="translate(718.69 1152.08) scale(0.86 1)">B<tspan class="cls-134" x="6.19" y="0">r</tspan><tspan x="9.22" y="0">eakpoi</tspan><tspan class="cls-135" x="37.97" y="0">n</tspan><tspan class="cls-136" x="43.34" y="0">t 2</tspan></text><text class="cls-131" transform="translate(921.94 1128.57)">Ch<tspan class="cls-132" x="18.89" y="0">r</tspan><tspan x="24.02" y="0" xml:space="preserve"> 4</tspan></text><polygon class="cls-31" points="754.31 1119 747.99 1133 780 1133 780 1119 754.31 1119"/><text class="cls-32" transform="translate(750.42 1128.88)">NE C</text><line class="cls-133" x1="758.18" y1="1105.99" x2="742.04" y2="1143.63"/><text class="cls-26" transform="translate(605.32 1240.25)">Gene C trunc<tspan class="cls-37" x="115.79" y="0">a</tspan><tspan class="cls-74" x="125.87" y="0">t</tspan><tspan class="cls-70" x="131.67" y="0">ed</tspan></text><line class="cls-123" x1="700.21" y1="1185" x2="700.78" y2="1208"/><ellipse class="cls-25" cx="701.16" cy="1208.48" rx="4.5" ry="5.52"/><path class="cls-138" d="M1038.39,892.44c1.77,4.81,3.93,15.85,9.1,18.53,5.71,3,13.49-.44,17.2-5.83,2.17-3.15,3.74-6.7,6.65-9.27a7.83,7.83,0,0,0,3.94,3.82c-2,3.31-2.88,6.73-5.53,9.63-2.41,2.66-5.49,5.33-6.66,8.93-1.37,4.19-1.18,9-2.62,13-1.12,3.13-6.88,7.31-5.39,10.43,1.23,2.56,4.09,3.87,6.25,5s4.84,1.67,6.67,3.46c4.9,4.79,8.29,9.82,6.48,17.69-1.3,5.59-7,6.81-7.52,12.58-.75,9,4.64,16.45,10.2,22.41,2.31,2.47,5.72,2.12,5.83,6.19.17,6-3.1,5.11-6.93,4.6-9.82-1.31-16.11-11.89-22.14-19.55-1.54,4-6.2,8.43-9.52,10.69a68.88,68.88,0,0,1-14.18,7.63c-3.35,1.18-8.33,3.06-10.23-1-.76-1.64-1.34-3.17.32-4.36a27.27,27.27,0,0,1,3.58-1.59,34.71,34.71,0,0,0,8.13-5.66c4.5-4.83,12-10.89,8.41-17.91s-11.62-13.92-16-20c-4.91-6.75-8.45-14.77-7.41-23.55.79-6.71,3-10.82,7.79-14.26,3-2.17,8.77-4.06,10.45-7.54,4.32-9-1.49-14.62-4-22.68,2.16-1.32,5.17-1.37,7.63-1.59C1038.76,892,1038.72,891.75,1038.39,892.44Z"/><path class="cls-139" d="M1153.49,892.2c.12.18.09.31.38.28-.19,4.27,1.44,9.53,2.75,13.52,1.06,3.25,2.19,5.92,5.41,6.34,7.39,1,12.44-12.33,15.17-18.46.64-1.44.86-3,2.13-2.87.66,0,2.25,1.68,2.73,2.15-1.77,3-3.26,6.67-4.79,9.8,3.36-1.66,9.37.9,11.62,4.29a11.39,11.39,0,0,0-2.46,3.8c-3-4.2-10.84-5.15-13.71-.33-2.33,3.92,0,7.27,1.52,10.93a17.67,17.67,0,0,1,.77,11.11c-2.67,9.47-9,18.49-13.74,26.7-4,6.91-9.58,16.11-16.75,19.26a5.36,5.36,0,0,1-4.58-.3c-4.67-2-7.94-7-9.58-12.41a38.84,38.84,0,0,1-1.68-12c.25-6.34,2.22-10.33,4.78-15.61a35.36,35.36,0,0,1,9.4-12.62c3.83-3.47,8.34-3.8,9.38-6.93s-.76-7.27-3-8.84c-3.65-2.58-6.21.55-9.91.16a31,31,0,0,0-1.92-6.22c3.35-2.9,10.27-2.92,13.58.18-2.16-2.83-1.62-8.17-1.46-11.63,1.1,0,4.19-.91,4.31-.19"/><path class="cls-8" d="M1187,978.26a35.55,35.55,0,0,0-.56,4.72c-.17,1.83-.79,3.88-.54,5.68.31,2.28,1.72,4.09,2.92,5.81,2.54,3.66,4.4,6.77,5.39,11.31.45,2,2.63,8.52,1.53,10.21-2.46-.78-5.62,1.45-7-1.15-1.75-3.17-2.35-6.64-5.13-9.12a31.37,31.37,0,0,0-7-4.64c-3.26-1.61-7.18-2.4-9.8-5.25-2-2.17-2.68-5-4.22-7.21-1.18,1-1.72,3-3,4.19a23.13,23.13,0,0,1-5,3.27c-2.19,1-7.58,3.4-9.66,1.71-2.3,3.54-7.28,6.34-8.48,10.66-.93,3.34,1.82,6.52-1.74,8.33-.87.44-3.63,1.55-4.41,1.12-1-.54-1.26-3.4-1.36-4.56-.45-5.36-.56-10.42,1.14-15.57a23,23,0,0,1,3.37-6.58c.9-1.18,2-2,2.37-3.51.79-3.52-1-7.3,1.68-10.28a6.73,6.73,0,0,1,3.33-1.7c2.15-.6,4.3-1.42,6.47-2a53.53,53.53,0,0,0,13.15-5.22c4.57-2.6,9-6.18,13.81-8.18,3.83-1.59,11.21-2.36,13.73,2.29,1.25,2.31,1.28,5.62.84,8.16a44.15,44.15,0,0,1-1.39,5.48Z"/><path class="cls-8" d="M1267.11,928.44a19.28,19.28,0,0,0-9.59.55c-7.84,2.38-15.34,7.91-19.1,15.68-2.37,4.88-3.45,12.68-.62,17.48,3,5.1,14.73,8.16,20,8.94,8.69,1.3,18.17-.63,26.85,1.38,5,1.16,10,2.9,15,4.11,5.62,1.35,11.65,2.65,15.08-3.07,2.76-4.61.43-12.34-1.12-17.06-2.1-6.38-4.58-11.24-9.81-15.35-11.23-8.79-24.73-12.36-38.11-12.36"/><path class="cls-140" d="M1270.43,892.33c2,.12,4.36,2.86,6.09,3.94,2,1.27,4.58,2.73,6.89,2.75,6.26.07,11.43-6.48,17.39-7.64a13,13,0,0,0,.87,5.57c-5.55,2.64-8.72,4-8.38,11,4.75.27,7.67-.49,11.36-3.32,5.76,4.86-.91,8.48-5.7,8.72-1.16,0-3.13-.44-4,.4-.4.37-1,3.41-.64,3.87,1.32,1.94,6.88.38,8.81.07,1.57-.24,2.37-1.09,3.81.06a5.53,5.53,0,0,1,1.21,4.56c-3.27.84-6.52,1.29-9.78,2-3.9.9-3.28,3.45-3.47,7.49-.17,3.62.15,7.55,0,11.36-.24,5.44-3.19,8.94-6.32,13a51.94,51.94,0,0,0-9.83,20.51c-.92,4.16-.76,8.22-1.2,12.4s-2.13,7.65-3.23,11.65c-2.59,9.43-5.67,14.27-14.84,12.48-18.37-3.59-27.33-25-22.49-43,1.45-5.4,4-11.33,8-15.12,4.95-4.7,11.43-7.09,16.52-11.72s16-11.24,13.07-20c-3.84-.11-8.28,0-11.66-2.14,1.36-1.64,1.71-4.4,2.26-6.53,3.31,1.27,7,.73,10.4,1.57,0-1.09.3-2.22.3-3.29-4,.14-10.16-.16-12.32-4.28,2.29-1.33,2.23-3.3,4.72-3.1,1.34.11,3,1.52,4.43,1.82a12.58,12.58,0,0,0,3.82-.19c-.37-1,.14-2-.06-3-.52-2.65.15-.94-1.76-2.71-2.23-2-6.11-2.79-7.71-5.28,1.17-1.26,2.06-2.74,3.47-3.69"/><path class="cls-51" d="M1314.15,982.66c.72,10.69-6.19,26.94-16.56,30.82-5.35,2-11.37,1.63-17,1.09s-8.64-2.46-12.2-7.19c-8.58-11.44-10.72-26.86-.55-38.47,4.65-5.31,8.87-9.73,15.61-11a29.52,29.52,0,0,1,7.45-.76c.75,0,1.83.07,2.79,0a11,11,0,0,1,6.19,1.76A30,30,0,0,1,1314.15,982.66Z"/><path class="cls-51" d="M1138.74,965.3c2-5,4.62-10.8,7.35-13.93,4.23-4.85,8.9-9.24,13.51-13.59,4.06-3.82,11.65-10.28,17.37-7,6.13,3.49,8.6,15.93,9.18,22.84.81,9.58-5.57,15.86-11.36,21.61-6,6-16,7.42-23.63,7.47-4.89,0-12.76.23-14.47-6.54-.59-2.35-.57-5.35.58-7.32Z"/><text class="cls-77" transform="translate(1094.96 865.88)">Ges<tspan class="cls-78" x="29.18" y="0">t</tspan><tspan class="cls-79" x="34.35" y="0">ation</tspan><tspan class="cls-80" x="73.05" y="0"> </tspan><tspan class="cls-81" x="77.57" y="0">w</tspan><tspan x="89.92" y="0">eeks</tspan></text><text class="cls-102" transform="translate(1046.88 1051.95)">3</text><text class="cls-102" transform="translate(1153.38 1051.49)">3,5</text><text class="cls-102" transform="translate(1283.58 1051.49)">5</text><path class="cls-103" d="M1319,1054.5c0,21.26-70.29,38.5-157,38.5s-157-17.24-157-38.5"/><circle class="cls-104" cx="1165.5" cy="1205.5" r="4.5"/><text class="cls-111" transform="translate(690.85 1526.83)">P<tspan class="cls-37" x="11.77" y="0">a</tspan><tspan class="cls-73" x="21.85" y="0">thogenic </tspan><tspan class="cls-84" x="103.52" y="0">disru</tspan><tspan class="cls-141" x="150.35" y="0">p</tspan><tspan class="cls-84" x="162.36" y="0">tion </tspan><tspan class="cls-116" x="203.56" y="0">o</tspan><tspan class="cls-142" x="215.04" y="0">f</tspan><tspan class="cls-84" x="222.04" y="0" xml:space="preserve"> gene  C, </tspan><tspan class="cls-143" x="306.89" y="0">e</tspan><tspan class="cls-144" x="317.84" y="0">xp</tspan><tspan class="cls-145" x="339.46" y="0">r</tspan><tspan class="cls-146" x="346.03" y="0">essed </tspan><tspan class="cls-147" x="404.8" y="0">a</tspan><tspan class="cls-146" x="415.25" y="0">t </tspan><tspan class="cls-148" x="427.31" y="0">e</tspan><tspan class="cls-149" x="438.35" y="0">v</tspan><tspan class="cls-146" x="448.34" y="0">er</tspan><tspan class="cls-150" x="466.66" y="0">y</tspan><tspan class="cls-146" x="476.65" y="0"> </tspan><tspan class="cls-84" x="481.96" y="0">heart </tspan><tspan class="cls-84"><tspan x="0" y="21.6">d</tspan><tspan class="cls-151" x="12.33" y="21.6">e</tspan><tspan class="cls-152" x="23.58" y="21.6">v</tspan><tspan class="cls-70" x="33.86" y="21.6">elopme</tspan><tspan class="cls-87" x="104.52" y="21.6">n</tspan><tspan class="cls-70" x="116.03" y="21.6">ta</tspan><tspan class="cls-33" x="134.71" y="21.6">l</tspan><tspan x="140.58" y="21.6" xml:space="preserve"> stage</tspan></tspan></text><text class="cls-106" transform="translate(818.98 1416.39)">PREDI<tspan class="cls-107" x="52.36" y="0">C</tspan><tspan class="cls-108" x="64.35" y="0">TION R</tspan><tspan class="cls-109" x="125.08" y="0">E</tspan><tspan class="cls-108" x="135.67" y="0">SU</tspan><tspan class="cls-110" x="159.72" y="0">L</tspan><tspan class="cls-108" x="168.51" y="0">TS</tspan></text><line class="cls-123" x1="919.22" y1="1424.94" x2="919.22" y2="1435.63"/><polygon class="cls-51" points="916.49 1433.76 919.22 1443.96 921.96 1433.76 916.49 1433.76"/><text class="cls-153" transform="translate(844.4 1471.62)">C<tspan class="cls-108" x="11.98" y="0">ODING EFF</tspan><tspan class="cls-109" x="106.84" y="0">E</tspan><tspan class="cls-154" x="117.55" y="0">C</tspan><tspan class="cls-155" x="129.54" y="0">T</tspan></text><line class="cls-123" x1="918.94" y1="1482.62" x2="918.94" y2="1493.31"/><polygon class="cls-51" points="916.21 1491.44 918.94 1501.64 921.67 1491.44 916.21 1491.44"/><line class="cls-104" x1="1165.15" y1="1092.98" x2="1165.6" y2="1206"/><text class="cls-82" transform="translate(1051.4 1243.97)">P<tspan class="cls-37" x="11.77" y="0">a</tspan><tspan class="cls-73" x="21.85" y="0">thogenic </tspan><tspan class="cls-83" x="103.52" y="0">e</tspan><tspan class="cls-27" x="114.35" y="0">v</tspan><tspan class="cls-73" x="124.11" y="0">e</tspan><tspan class="cls-71" x="135.2" y="0">n</tspan><tspan class="cls-73" x="146" y="0">t spanning </tspan><tspan class="cls-84"><tspan x="0" y="21.6">al</tspan><tspan class="cls-137" x="17.48" y="21.6">l</tspan><tspan class="cls-70" x="23.35" y="21.6" xml:space="preserve"> heart d</tspan><tspan class="cls-83" x="95.22" y="21.6">e</tspan><tspan class="cls-27" x="106.47" y="21.6">v</tspan><tspan x="116.75" y="21.6">elopme</tspan><tspan class="cls-71" x="187.41" y="21.6">n</tspan><tspan x="198.91" y="21.6">ta</tspan><tspan class="cls-33" x="217.6" y="21.6">l</tspan><tspan class="cls-70" x="223.47" y="21.6"> </tspan><tspan x="0" y="43.2">stages</tspan></tspan></text><polyline class="cls-105" points="1161.5 1294 1161.08 1348.21 699.08 1348.21 699.5 1256"/><line class="cls-105" x1="918.08" y1="1348.09" x2="918.08" y2="1379.84"/><line class="cls-1" x1="450" y1="200" x2="1333" y2="200"/><line class="cls-7" x1="29" y1="201" x2="417" y2="201"/><path class="cls-156" d="M86.27,1498.48H395"/><text class="cls-131" transform="translate(47.87 1501.58)">Ch<tspan class="cls-132" x="18.89" y="0">r</tspan><tspan x="24.02" y="0" xml:space="preserve"> 1</tspan></text><line class="cls-133" x1="326.69" y1="1479.55" x2="310.54" y2="1517.19"/><text class="cls-55" transform="translate(286.19 1527.64) scale(0.86 1)">B<tspan class="cls-134" x="6.19" y="0">r</tspan><tspan x="9.22" y="0">eakpoi</tspan><tspan class="cls-135" x="37.97" y="0">n</tspan><tspan class="cls-136" x="43.34" y="0">t 2</tspan></text><path class="cls-130" d="M87,1451.39H395"/><rect class="cls-31" x="207.58" y="1444.55" width="63" height="13"/><text class="cls-32" transform="translate(221.34 1454.23)">GENE C</text><text class="cls-131" transform="translate(47.71 1454.23)">Ch<tspan class="cls-132" x="18.89" y="0">r</tspan><tspan x="24.02" y="0" xml:space="preserve"> 4</tspan></text><line class="cls-133" x1="246.54" y1="1429.28" x2="230.4" y2="1466.92"/><text class="cls-55" transform="translate(207.56 1477.21) scale(0.86 1)">B<tspan class="cls-134" x="6.19" y="0">r</tspan><tspan x="9.22" y="0">eakpoi</tspan><tspan class="cls-135" x="37.97" y="0">n</tspan><tspan class="cls-136" x="43.34" y="0">t 1</tspan></text><path class="cls-156" d="M668,1078H861"/><path class="cls-156" d="M514.45,1124.89H749"/><ellipse class="cls-24" cx="705" cy="1105.5" rx="86.5" ry="79"/><line class="cls-1" x1="904.5" y1="116.84" x2="904.5" y2="165.85"/><line class="cls-1" x1="928.63" y1="141.76" x2="879.62" y2="141.76"/></svg>