<svg id="Capa_1" data-name="Capa 1" xmlns="http://www.w3.org/2000/svg" xmlns:xlink="http://www.w3.org/1999/xlink" viewBox="0 0 340 825"><defs><style>.cls-1,.cls-48{fill:#477599;}.cls-2{fill:url(#Degradado_sin_nombre_23);}.cls-3{fill:url(#Degradado_sin_nombre_43);}.cls-4{fill:url(#Degradado_sin_nombre_11);}.cls-5{fill:url(#Degradado_sin_nombre_31);}.cls-6{fill:url(#Degradado_sin_nombre_37);}.cls-7{fill:url(#Degradado_sin_nombre_31-2);}.cls-8{fill:url(#Degradado_sin_nombre_37-2);}.cls-9{fill:url(#Degradado_sin_nombre_40);}.cls-10{fill:url(#Degradado_sin_nombre_44);}.cls-11{fill:url(#Degradado_sin_nombre_43-2);}.cls-12{fill:url(#Degradado_sin_nombre_11-2);}.cls-13{fill:url(#Degradado_sin_nombre_31-3);}.cls-14{fill:url(#Degradado_sin_nombre_37-3);}.cls-15{fill:url(#Degradado_sin_nombre_43-3);}.cls-16{fill:url(#Degradado_sin_nombre_11-3);}.cls-17{fill:url(#Degradado_sin_nombre_40-2);}.cls-18{fill:url(#Degradado_sin_nombre_44-2);}.cls-19{fill:url(#Degradado_sin_nombre_31-4);}.cls-20{fill:url(#Degradado_sin_nombre_37-4);}.cls-21{fill:url(#Degradado_sin_nombre_31-5);}.cls-22{fill:url(#Degradado_sin_nombre_37-5);}.cls-23,.cls-80,.cls-97{fill:#1c3353;}.cls-24{fill:url(#Degradado_sin_nombre_43-4);}.cls-25{fill:url(#Degradado_sin_nombre_11-4);}.cls-26{fill:url(#Degradado_sin_nombre_43-5);}.cls-27{fill:url(#Degradado_sin_nombre_11-5);}.cls-28{fill:url(#Degradado_sin_nombre_31-6);}.cls-29{fill:url(#Degradado_sin_nombre_37-6);}.cls-30{fill:url(#Degradado_sin_nombre_43-6);}.cls-31{fill:url(#Degradado_sin_nombre_11-6);}.cls-32{fill:url(#Degradado_sin_nombre_31-7);}.cls-33{fill:url(#Degradado_sin_nombre_37-7);}.cls-34{fill:url(#Degradado_sin_nombre_43-7);}.cls-35{fill:url(#Degradado_sin_nombre_11-7);}.cls-36{fill:url(#Degradado_sin_nombre_31-8);}.cls-37{fill:url(#Degradado_sin_nombre_37-8);}.cls-38{fill:#ffae73;}.cls-39{fill:#9ed8db;}.cls-40{fill:#10497e;}.cls-41{fill:#ffa05e;}.cls-42{fill:#0b3563;}.cls-43{fill:#e9fff9;}.cls-44{fill:#0b4d87;}.cls-45{fill:url(#Degradado_sin_nombre_31-9);}.cls-46{opacity:0.3;}.cls-47{fill:#accefc;}.cls-48{opacity:0.29;}.cls-49,.cls-50,.cls-83{fill:none;stroke-miterlimit:10;stroke-width:0.28px;}.cls-49,.cls-50{stroke:#1d3354;}.cls-50{opacity:0.8;}.cls-51{fill:url(#Degradado_sin_nombre_31-10);}.cls-52{fill:url(#Degradado_sin_nombre_31-11);}.cls-53{fill:url(#Degradado_sin_nombre_31-12);}.cls-54{fill:url(#Degradado_sin_nombre_31-13);}.cls-55{fill:url(#Degradado_sin_nombre_31-14);}.cls-56{fill:url(#Degradado_sin_nombre_31-15);}.cls-57{fill:url(#Degradado_sin_nombre_43-8);}.cls-58{fill:url(#Degradado_sin_nombre_43-9);}.cls-59{fill:url(#Degradado_sin_nombre_43-10);}.cls-60{fill:url(#Degradado_sin_nombre_43-11);}.cls-61{fill:url(#Degradado_sin_nombre_43-12);}.cls-62{fill:url(#Degradado_sin_nombre_43-13);}.cls-63{fill:#fff;}.cls-64{opacity:0.54;}.cls-65{fill:#1e3865;}.cls-66{fill:url(#Degradado_sin_nombre_31-16);}.cls-67{fill:url(#Degradado_sin_nombre_40-3);}.cls-68{fill:#10294c;}.cls-69{fill:#f9924f;}.cls-70{fill:url(#Degradado_sin_nombre_40-4);}.cls-71{fill:url(#Degradado_sin_nombre_31-17);}.cls-72{fill:url(#Degradado_sin_nombre_44-3);}.cls-73{fill:url(#Degradado_sin_nombre_43-14);}.cls-74{fill:url(#Degradado_sin_nombre_44-4);}.cls-75{fill:#b3b3b3;}.cls-76{fill:url(#Degradado_sin_nombre_31-18);}.cls-77{fill:url(#Degradado_sin_nombre_37-9);}.cls-78{fill:url(#Degradado_sin_nombre_43-15);}.cls-79{fill:url(#Degradado_sin_nombre_11-8);}.cls-80{font-size:8px;font-family:Raleway-Bold, Raleway;font-weight:700;}.cls-81{opacity:0.5;}.cls-82{font-family:Raleway-Thin, Raleway;font-weight:200;}.cls-83{stroke:#d4145a;}.cls-84{fill:#d4145a;}.cls-85{fill:url(#Degradado_sin_nombre_31-19);}.cls-86{fill:url(#Degradado_sin_nombre_31-20);}.cls-87{fill:url(#Degradado_sin_nombre_31-21);}.cls-88{fill:url(#Degradado_sin_nombre_31-22);}.cls-89{fill:url(#Degradado_sin_nombre_31-23);}.cls-90{fill:url(#Degradado_sin_nombre_31-24);}.cls-91{fill:url(#Degradado_sin_nombre_40-5);}.cls-92{fill:url(#Degradado_sin_nombre_40-6);}.cls-93{fill:url(#Degradado_sin_nombre_40-7);}.cls-94{fill:url(#Degradado_sin_nombre_40-8);}.cls-95{fill:url(#Degradado_sin_nombre_40-9);}.cls-96{fill:url(#Degradado_sin_nombre_40-10);}.cls-97{font-size:5px;font-family:Raleway-Regular, Raleway;opacity:0.39;}.cls-98{letter-spacing:-0.01em;}.cls-99{letter-spacing:-0.02em;}.cls-100{letter-spacing:0em;}.cls-101{letter-spacing:-0.03em;}</style><linearGradient id="Degradado_sin_nombre_23" x1="100.85" y1="477.83" x2="271.6" y2="477.83" gradientUnits="userSpaceOnUse"><stop offset="0" stop-color="#1c3353"/><stop offset="0.03" stop-color="#1c3353"/><stop offset="0.04" stop-color="#1c3353"/><stop offset="0.1" stop-color="#223b59"/><stop offset="0.19" stop-color="#33506b"/><stop offset="0.3" stop-color="#4f7388"/><stop offset="0.42" stop-color="#75a3af"/><stop offset="0.54" stop-color="#9ed8da"/><stop offset="0.6" stop-color="#8dc2c8"/><stop offset="0.79" stop-color="#507589"/><stop offset="0.93" stop-color="#2b4562"/><stop offset="1" stop-color="#1c3353"/><stop offset="1" stop-color="#1e3555"/><stop offset="1" stop-color="#243d5b"/><stop offset="1" stop-color="#2e4965"/><stop offset="1" stop-color="#3c5c74"/><stop offset="1" stop-color="#4f7388"/><stop offset="1" stop-color="#6691a0"/><stop offset="1" stop-color="#80b2bb"/><stop offset="1" stop-color="#9ed8da"/></linearGradient><linearGradient id="Degradado_sin_nombre_43" x1="218.02" y1="565.75" x2="261.78" y2="565.75" gradientTransform="translate(-1.03 -30.81) rotate(-0.43)" gradientUnits="userSpaceOnUse"><stop offset="0.13" stop-color="#1c3353"/><stop offset="0.17" stop-color="#3b3551"/><stop offset="0.21" stop-color="#5f374e"/><stop offset="0.26" stop-color="#7f394b"/><stop offset="0.31" stop-color="#9b3b49"/><stop offset="0.37" stop-color="#b13d47"/><stop offset="0.44" stop-color="#c23e46"/><stop offset="0.53" stop-color="#cd3e45"/><stop offset="0.66" stop-color="#d43f44"/><stop offset="1" stop-color="#d63f44"/></linearGradient><linearGradient id="Degradado_sin_nombre_11" x1="184.49" y1="565.71" x2="228.25" y2="565.71" gradientTransform="translate(-1.03 -30.81) rotate(-0.43)" gradientUnits="userSpaceOnUse"><stop offset="0" stop-color="#477599"/><stop offset="0.1" stop-color="#5585a3"/><stop offset="0.36" stop-color="#74a9bb"/><stop offset="0.61" stop-color="#8bc3cc"/><stop offset="0.83" stop-color="#99d2d6"/><stop offset="1" stop-color="#9ed8da"/></linearGradient><linearGradient id="Degradado_sin_nombre_31" x1="216.67" y1="241.17" x2="262.99" y2="241.17" gradientTransform="translate(-1.03 -30.81) rotate(-0.43)" gradientUnits="userSpaceOnUse"><stop offset="0.01" stop-color="#9ed8da"/><stop offset="0.05" stop-color="#96ced2"/><stop offset="0.29" stop-color="#6b97a5"/><stop offset="0.51" stop-color="#496c82"/><stop offset="0.71" stop-color="#304d68"/><stop offset="0.88" stop-color="#213a59"/><stop offset="1" stop-color="#1c3353"/></linearGradient><linearGradient id="Degradado_sin_nombre_37" x1="179.7" y1="241.13" x2="227.95" y2="241.13" gradientTransform="translate(-1.03 -30.81) rotate(-0.43)" gradientUnits="userSpaceOnUse"><stop offset="0.13" stop-color="#9ed8da"/><stop offset="0.62" stop-color="#c7edec"/><stop offset="1" stop-color="#e9fffa"/></linearGradient><linearGradient id="Degradado_sin_nombre_31-2" x1="138.63" y1="161.12" x2="188.04" y2="161.12" gradientTransform="matrix(0.93, -0.01, 0.01, 1, 13, -30.92)" xlink:href="#Degradado_sin_nombre_31"/><linearGradient id="Degradado_sin_nombre_37-2" x1="99.2" y1="161.07" x2="150.67" y2="161.07" gradientTransform="matrix(0.93, -0.01, 0.01, 1, 13, -30.92)" xlink:href="#Degradado_sin_nombre_37"/><linearGradient id="Degradado_sin_nombre_40" x1="1078.19" y1="-23.54" x2="1152.76" y2="-23.54" gradientTransform="translate(1284.37 150.53) rotate(179.57)" gradientUnits="userSpaceOnUse"><stop offset="0" stop-color="#d63f44"/><stop offset="0.4" stop-color="#d43f44"/><stop offset="0.54" stop-color="#cd3e45"/><stop offset="0.64" stop-color="#c23e46"/><stop offset="0.72" stop-color="#b13d47"/><stop offset="0.8" stop-color="#9b3b49"/><stop offset="0.86" stop-color="#7f394b"/><stop offset="0.91" stop-color="#5f374e"/><stop offset="0.96" stop-color="#3b3551"/><stop offset="1" stop-color="#1c3353"/></linearGradient><linearGradient id="Degradado_sin_nombre_44" x1="1021.06" y1="-23.61" x2="1095.63" y2="-23.61" gradientTransform="translate(1284.37 150.53) rotate(179.57)" gradientUnits="userSpaceOnUse"><stop offset="0" stop-color="#477599"/><stop offset="0.01" stop-color="#4a799c"/><stop offset="0.1" stop-color="#6496af"/><stop offset="0.21" stop-color="#79aebf"/><stop offset="0.33" stop-color="#8ac1cb"/><stop offset="0.46" stop-color="#95ced4"/><stop offset="0.64" stop-color="#9cd6d9"/><stop offset="1" stop-color="#9ed8da"/></linearGradient><linearGradient id="Degradado_sin_nombre_43-2" x1="162.18" y1="188.03" x2="236.76" y2="188.03" xlink:href="#Degradado_sin_nombre_43"/><linearGradient id="Degradado_sin_nombre_11-2" x1="105.05" y1="187.96" x2="179.62" y2="187.96" xlink:href="#Degradado_sin_nombre_11"/><linearGradient id="Degradado_sin_nombre_31-3" x1="186.12" y1="323.82" x2="263.11" y2="323.82" xlink:href="#Degradado_sin_nombre_31"/><linearGradient id="Degradado_sin_nombre_37-3" x1="124.66" y1="323.74" x2="204.87" y2="323.74" xlink:href="#Degradado_sin_nombre_37"/><linearGradient id="Degradado_sin_nombre_43-3" x1="213.72" y1="295.87" x2="263.07" y2="295.87" xlink:href="#Degradado_sin_nombre_43"/><linearGradient id="Degradado_sin_nombre_11-3" x1="175.91" y1="295.82" x2="225.26" y2="295.82" xlink:href="#Degradado_sin_nombre_11"/><linearGradient id="Degradado_sin_nombre_40-2" x1="1105.81" y1="-161.05" x2="1182.57" y2="-161.05" xlink:href="#Degradado_sin_nombre_40"/><linearGradient id="Degradado_sin_nombre_44-2" x1="1046.99" y1="-161.13" x2="1123.76" y2="-161.13" xlink:href="#Degradado_sin_nombre_44"/><linearGradient id="Degradado_sin_nombre_31-4" x1="144.79" y1="380.19" x2="190.57" y2="380.19" xlink:href="#Degradado_sin_nombre_31"/><linearGradient id="Degradado_sin_nombre_37-4" x1="108.25" y1="380.14" x2="155.94" y2="380.14" xlink:href="#Degradado_sin_nombre_37"/><linearGradient id="Degradado_sin_nombre_31-5" x1="144.16" y1="696.49" x2="193.57" y2="696.49" xlink:href="#Degradado_sin_nombre_31"/><linearGradient id="Degradado_sin_nombre_37-5" x1="104.73" y1="696.44" x2="156.2" y2="696.44" xlink:href="#Degradado_sin_nombre_37"/><linearGradient id="Degradado_sin_nombre_43-4" x1="163.76" y1="454.29" x2="244.91" y2="454.29" xlink:href="#Degradado_sin_nombre_43"/><linearGradient id="Degradado_sin_nombre_11-4" x1="101.58" y1="454.21" x2="182.74" y2="454.21" xlink:href="#Degradado_sin_nombre_11"/><linearGradient id="Degradado_sin_nombre_43-5" x1="182.09" y1="480.7" x2="263.24" y2="480.7" xlink:href="#Degradado_sin_nombre_43"/><linearGradient id="Degradado_sin_nombre_11-5" x1="119.91" y1="480.62" x2="201.06" y2="480.62" xlink:href="#Degradado_sin_nombre_11"/><linearGradient id="Degradado_sin_nombre_31-6" x1="146.14" y1="429.31" x2="195.55" y2="429.31" xlink:href="#Degradado_sin_nombre_31"/><linearGradient id="Degradado_sin_nombre_37-6" x1="106.71" y1="429.26" x2="158.18" y2="429.26" xlink:href="#Degradado_sin_nombre_37"/><linearGradient id="Degradado_sin_nombre_43-6" x1="181.6" y1="592.67" x2="262.75" y2="592.67" xlink:href="#Degradado_sin_nombre_43"/><linearGradient id="Degradado_sin_nombre_11-6" x1="119.42" y1="592.51" x2="200.57" y2="592.51" xlink:href="#Degradado_sin_nombre_11"/><linearGradient id="Degradado_sin_nombre_31-7" x1="255.69" y1="204.36" x2="304.17" y2="204.36" gradientTransform="translate(484.71 677.79) rotate(179.57)" xlink:href="#Degradado_sin_nombre_31"/><linearGradient id="Degradado_sin_nombre_37-7" x1="217" y1="204.32" x2="267.5" y2="204.32" gradientTransform="translate(484.71 677.79) rotate(179.57)" xlink:href="#Degradado_sin_nombre_37"/><linearGradient id="Degradado_sin_nombre_43-7" x1="140.44" y1="647.94" x2="184.2" y2="647.94" xlink:href="#Degradado_sin_nombre_43"/><linearGradient id="Degradado_sin_nombre_11-7" x1="106.91" y1="647.9" x2="150.67" y2="647.9" xlink:href="#Degradado_sin_nombre_11"/><linearGradient id="Degradado_sin_nombre_31-8" x1="304.89" y1="92.13" x2="377.59" y2="92.13" gradientTransform="translate(484.71 677.79) rotate(179.57)" xlink:href="#Degradado_sin_nombre_31"/><linearGradient id="Degradado_sin_nombre_37-8" x1="246.85" y1="92.06" x2="322.6" y2="92.06" gradientTransform="translate(484.71 677.79) rotate(179.57)" xlink:href="#Degradado_sin_nombre_37"/><linearGradient id="Degradado_sin_nombre_31-9" x1="247.82" y1="550.3" x2="271.95" y2="550.3" gradientTransform="matrix(1, 0, 0, 1, 0, 0)" xlink:href="#Degradado_sin_nombre_31"/><linearGradient id="Degradado_sin_nombre_31-10" x1="65.88" y1="195.37" x2="91.42" y2="195.37" gradientTransform="matrix(1, 0, 0, 1, 0, 0)" xlink:href="#Degradado_sin_nombre_31"/><linearGradient id="Degradado_sin_nombre_31-11" x1="65.88" y1="201.52" x2="86.32" y2="201.52" gradientTransform="matrix(1, 0, 0, 1, 0, 0)" xlink:href="#Degradado_sin_nombre_31"/><linearGradient id="Degradado_sin_nombre_31-12" x1="65.88" y1="205.35" x2="79.23" y2="205.35" gradientTransform="matrix(1, 0, 0, 1, 0, 0)" xlink:href="#Degradado_sin_nombre_31"/><linearGradient id="Degradado_sin_nombre_31-13" x1="81.22" y1="205.35" x2="94.57" y2="205.35" gradientTransform="matrix(1, 0, 0, 1, 0, 0)" xlink:href="#Degradado_sin_nombre_31"/><linearGradient id="Degradado_sin_nombre_31-14" x1="88.4" y1="201.52" x2="100.73" y2="201.52" gradientTransform="matrix(1, 0, 0, 1, 0, 0)" xlink:href="#Degradado_sin_nombre_31"/><linearGradient id="Degradado_sin_nombre_31-15" x1="92.95" y1="195.37" x2="104.8" y2="195.37" gradientTransform="matrix(1, 0, 0, 1, 0, 0)" xlink:href="#Degradado_sin_nombre_31"/><linearGradient id="Degradado_sin_nombre_43-8" x1="31.59" y1="239.02" x2="51.99" y2="239.02" gradientTransform="matrix(1, 0, 0, 1, 0, 0)" xlink:href="#Degradado_sin_nombre_43"/><linearGradient id="Degradado_sin_nombre_43-9" x1="31.59" y1="243.44" x2="47.92" y2="243.44" gradientTransform="matrix(1, 0, 0, 1, 0, 0)" xlink:href="#Degradado_sin_nombre_43"/><linearGradient id="Degradado_sin_nombre_43-10" x1="31.59" y1="246.19" x2="42.25" y2="246.19" gradientTransform="matrix(1, 0, 0, 1, 0, 0)" xlink:href="#Degradado_sin_nombre_43"/><linearGradient id="Degradado_sin_nombre_43-11" x1="43.84" y1="246.19" x2="54.5" y2="246.19" gradientTransform="matrix(1, 0, 0, 1, 0, 0)" xlink:href="#Degradado_sin_nombre_43"/><linearGradient id="Degradado_sin_nombre_43-12" x1="49.58" y1="243.44" x2="59.43" y2="243.44" gradientTransform="matrix(1, 0, 0, 1, 0, 0)" xlink:href="#Degradado_sin_nombre_43"/><linearGradient id="Degradado_sin_nombre_43-13" x1="53.21" y1="239.02" x2="62.67" y2="239.02" gradientTransform="matrix(1, 0, 0, 1, 0, 0)" xlink:href="#Degradado_sin_nombre_43"/><linearGradient id="Degradado_sin_nombre_31-16" x1="111.9" y1="280.68" x2="179.53" y2="280.68" gradientTransform="matrix(1, 0, 0, 1, 0, 0)" xlink:href="#Degradado_sin_nombre_31"/><linearGradient id="Degradado_sin_nombre_40-3" x1="149.95" y1="264.17" x2="180.23" y2="264.17" gradientTransform="matrix(1, 0, 0, 1, 0, 0)" xlink:href="#Degradado_sin_nombre_40"/><linearGradient id="Degradado_sin_nombre_40-4" x1="156.28" y1="242.99" x2="179.62" y2="242.99" gradientTransform="matrix(1, 0, 0, 1, 0, 0)" xlink:href="#Degradado_sin_nombre_40"/><linearGradient id="Degradado_sin_nombre_31-17" x1="137.43" y1="293.54" x2="148.99" y2="293.54" gradientTransform="matrix(1, 0, 0, 1, 0, 0)" xlink:href="#Degradado_sin_nombre_31"/><linearGradient id="Degradado_sin_nombre_44-3" x1="152.07" y1="241.11" x2="163.56" y2="241.11" gradientTransform="matrix(1, 0, 0, 1, 0, 0)" xlink:href="#Degradado_sin_nombre_44"/><linearGradient id="Degradado_sin_nombre_43-14" x1="164.42" y1="254.22" x2="180.19" y2="254.22" gradientTransform="matrix(1, 0, 0, 1, 0, 0)" xlink:href="#Degradado_sin_nombre_43"/><linearGradient id="Degradado_sin_nombre_44-4" x1="166.8" y1="243.28" x2="186.11" y2="243.28" gradientTransform="matrix(1, 0, 0, 1, 0, 0)" xlink:href="#Degradado_sin_nombre_44"/><linearGradient id="Degradado_sin_nombre_31-18" x1="143.71" y1="723.91" x2="193.12" y2="723.91" gradientTransform="matrix(1.62, -0.01, 0.01, 1, -66.59, -30.32)" xlink:href="#Degradado_sin_nombre_31"/><linearGradient id="Degradado_sin_nombre_37-9" x1="104.27" y1="723.86" x2="155.75" y2="723.86" gradientTransform="matrix(1.62, -0.01, 0.01, 1, -66.59, -30.32)" xlink:href="#Degradado_sin_nombre_37"/><linearGradient id="Degradado_sin_nombre_43-15" x1="183.42" y1="751.26" x2="264.58" y2="751.26" gradientTransform="matrix(0.95, -0.01, 0.01, 1, 12.16, -30.91)" xlink:href="#Degradado_sin_nombre_43"/><linearGradient id="Degradado_sin_nombre_11-8" x1="121.25" y1="751.18" x2="202.4" y2="751.18" gradientTransform="matrix(0.95, -0.01, 0.01, 1, 12.16, -30.91)" xlink:href="#Degradado_sin_nombre_11"/><linearGradient id="Degradado_sin_nombre_31-19" x1="258.83" y1="362.92" x2="281.91" y2="362.92" gradientTransform="matrix(1, 0, 0, 1, 0, 0)" xlink:href="#Degradado_sin_nombre_31"/><linearGradient id="Degradado_sin_nombre_31-20" x1="258.83" y1="366.99" x2="277.3" y2="366.99" gradientTransform="matrix(1, 0, 0, 1, 0, 0)" xlink:href="#Degradado_sin_nombre_31"/><linearGradient id="Degradado_sin_nombre_31-21" x1="258.83" y1="369.53" x2="270.89" y2="369.53" gradientTransform="matrix(1, 0, 0, 1, 0, 0)" xlink:href="#Degradado_sin_nombre_31"/><linearGradient id="Degradado_sin_nombre_31-22" x1="272.69" y1="369.53" x2="284.75" y2="369.53" gradientTransform="matrix(1, 0, 0, 1, 0, 0)" xlink:href="#Degradado_sin_nombre_31"/><linearGradient id="Degradado_sin_nombre_31-23" x1="279.18" y1="366.99" x2="290.33" y2="366.99" gradientTransform="matrix(1, 0, 0, 1, 0, 0)" xlink:href="#Degradado_sin_nombre_31"/><linearGradient id="Degradado_sin_nombre_31-24" x1="283.29" y1="362.92" x2="294" y2="362.92" gradientTransform="matrix(1, 0, 0, 1, 0, 0)" xlink:href="#Degradado_sin_nombre_31"/><linearGradient id="Degradado_sin_nombre_40-5" x1="259.74" y1="389.92" x2="280.14" y2="389.92" gradientTransform="matrix(1, 0, 0, 1, 0, 0)" xlink:href="#Degradado_sin_nombre_40"/><linearGradient id="Degradado_sin_nombre_40-6" x1="259.74" y1="393.92" x2="276.07" y2="393.92" gradientTransform="matrix(1, 0, 0, 1, 0, 0)" xlink:href="#Degradado_sin_nombre_40"/><linearGradient id="Degradado_sin_nombre_40-7" x1="259.74" y1="396.41" x2="270.4" y2="396.41" gradientTransform="matrix(1, 0, 0, 1, 0, 0)" xlink:href="#Degradado_sin_nombre_40"/><linearGradient id="Degradado_sin_nombre_40-8" x1="272" y1="396.41" x2="282.66" y2="396.41" gradientTransform="matrix(1, 0, 0, 1, 0, 0)" xlink:href="#Degradado_sin_nombre_40"/><linearGradient id="Degradado_sin_nombre_40-9" x1="277.73" y1="393.92" x2="287.58" y2="393.92" gradientTransform="matrix(1, 0, 0, 1, 0, 0)" xlink:href="#Degradado_sin_nombre_40"/><linearGradient id="Degradado_sin_nombre_40-10" x1="281.36" y1="389.92" x2="290.83" y2="389.92" gradientTransform="matrix(1, 0, 0, 1, 0, 0)" xlink:href="#Degradado_sin_nombre_40"/></defs><path class="cls-1" d="M212.12,212.46C198.31,206,140,183.75,127.31,173.88c-11.48-9-23.16-14.18-27-34.07a6.79,6.79,0,0,1-.5,1.25,20.5,20.5,0,0,1-.32,2.06c1.06,9.57,3.06,21.37,6.19,26.82,6.08,10.61,9.83,13.53,23.79,24.3,14.93,11.52,97.64,45,110.47,52.27,11.54,6.52,19.76,12.92,23.8,25.11l4,12.2C279,236.29,223.77,217.89,212.12,212.46Z"/><path class="cls-2" d="M214.45,481.47c-13.81-6.43-72.16-28.7-84.81-38.58s-25.26-15.07-27.86-39.76l0-.3c-.07,2.22-.13,4.43-.23,6.65,1,9.93,3.06,23.51,6.47,29.47,6.09,10.61,9.84,13.53,23.8,24.3,14.93,11.52,97.63,45,110.47,52.27,11.53,6.52,19.76,12.92,23.8,25.11l4,12.2C281.37,505.3,226.1,486.9,214.45,481.47Z"/><path class="cls-3" d="M261.52,538.23l-36.72.23c-1.94,0-3.53-1.28-3.54-2.9l0-4.61a3.26,3.26,0,0,1,3.49-3l36.73-.22a3.26,3.26,0,0,1,3.54,2.89l0,4.62A3.25,3.25,0,0,1,261.52,538.23Z"/><path class="cls-4" d="M228,538.44l-36.73.23a3.27,3.27,0,0,1-3.54-2.9l0-4.61a3.26,3.26,0,0,1,3.49-2.95L227.9,528c1.94,0,3.53,1.29,3.54,2.9l0,4.62A3.24,3.24,0,0,1,228,538.44Z"/><path class="cls-1" d="M213.79,396.9C200,390.46,141.63,368.19,129,358.31c-12.26-9.57-24.75-14.88-27.69-38.36-.08.84-.14,1.67-.19,2.51a20.18,20.18,0,0,1,.23,3,6.3,6.3,0,0,1-.23,1.74c1.06,9.64,3.07,21.69,6.24,27.21,6.08,10.61,9.83,13.53,23.79,24.3,14.93,11.52,97.64,45,110.47,52.28,11.54,6.52,19.76,12.91,23.8,25.11l4,12.2C280.71,420.73,225.44,402.32,213.79,396.9Z"/><path class="cls-1" d="M267,200c11.27-47.53-44-65.94-55.65-71.36-13.8-6.43-72.16-28.71-84.81-38.59S101.3,75,98.69,50.3c-2.15-20.36-.77,23.64,6.22,35.82,6.08,10.61,9.84,13.53,23.79,24.29,14.94,11.53,97.64,45,110.47,52.28,11.54,6.52,19.76,12.91,23.8,25.11Z"/><path class="cls-5" d="M260.29,213.66,221,213.9c-1.94,0-3.53-1.28-3.54-2.9l-.05-4.61a3.26,3.26,0,0,1,3.49-2.95l39.28-.24a3.27,3.27,0,0,1,3.55,2.9l0,4.61A3.26,3.26,0,0,1,260.29,213.66Z"/><path class="cls-6" d="M225.26,213.87l-41.22.26c-1.94,0-3.53-1.28-3.54-2.9l0-4.61c0-1.62,1.54-2.93,3.48-3l41.22-.25c1.94,0,3.53,1.28,3.54,2.9l.05,4.61A3.25,3.25,0,0,1,225.26,213.87Z"/><path class="cls-7" d="M185,134.17l-39.21.24a3.11,3.11,0,0,1-3.28-2.9l0-4.62a3.09,3.09,0,0,1,3.23-2.94l39.21-.24a3.11,3.11,0,0,1,3.27,2.9l.05,4.62A3.09,3.09,0,0,1,185,134.17Z"/><path class="cls-8" d="M150.43,134.38l-41.12.25a3.1,3.1,0,0,1-3.28-2.9l0-4.61a3.08,3.08,0,0,1,3.22-2.94l41.12-.26a3.11,3.11,0,0,1,3.28,2.9l0,4.62A3.09,3.09,0,0,1,150.43,134.38Z"/><path class="cls-9" d="M135.28,177.43l67.54-.42c1.94,0,3.53,1.29,3.54,2.9l0,4.62c0,1.61-1.54,2.93-3.49,2.94l-67.53.42c-1.94,0-3.53-1.29-3.54-2.9l0-4.62C131.78,178.76,133.34,177.45,135.28,177.43Z"/><path class="cls-10" d="M192.42,177.08l67.53-.42a3.27,3.27,0,0,1,3.55,2.89l0,4.62a3.25,3.25,0,0,1-3.49,2.94l-67.54.42a3.26,3.26,0,0,1-3.54-2.89l0-4.62A3.25,3.25,0,0,1,192.42,177.08Z"/><path class="cls-11" d="M233.66,160.73l-67.53.42c-1.94,0-3.53-1.28-3.54-2.89l-.05-4.62A3.25,3.25,0,0,1,166,150.7l67.54-.43a3.28,3.28,0,0,1,3.54,2.9l0,4.62C237.17,159.4,235.6,160.72,233.66,160.73Z"/><path class="cls-12" d="M176.53,161.09l-67.54.42a3.28,3.28,0,0,1-3.54-2.9l0-4.62c0-1.61,1.55-2.93,3.49-2.94l67.53-.42c1.94,0,3.53,1.29,3.54,2.9l.05,4.62A3.25,3.25,0,0,1,176.53,161.09Z"/><path class="cls-13" d="M261,296.32l-70,.43c-1.94,0-3.53-1.28-3.54-2.89l0-4.62A3.24,3.24,0,0,1,191,286.3l70-.44c1.94,0,3.53,1.29,3.54,2.9l0,4.62A3.25,3.25,0,0,1,261,296.32Z"/><path class="cls-14" d="M202.8,296.68l-73.18.46c-1.94,0-3.53-1.29-3.54-2.9l0-4.62c0-1.61,1.54-2.93,3.49-2.94l73.17-.46a3.28,3.28,0,0,1,3.55,2.9l0,4.62A3.25,3.25,0,0,1,202.8,296.68Z"/><path class="cls-15" d="M260.78,268.35l-42.31.27c-1.94,0-3.53-1.29-3.54-2.9l0-4.62a3.24,3.24,0,0,1,3.48-2.94l42.32-.26c1.94,0,3.53,1.28,3.54,2.89l0,4.62C264.29,267,262.73,268.34,260.78,268.35Z"/><path class="cls-16" d="M223,268.59l-42.31.26c-1.94,0-3.53-1.28-3.54-2.9l0-4.61c0-1.62,1.54-2.93,3.48-2.94l42.32-.27c1.94,0,3.53,1.29,3.54,2.9l0,4.62C226.48,267.26,224.92,268.58,223,268.59Z"/><path class="cls-17" d="M106.51,315.17l69.73-.44a3.28,3.28,0,0,1,3.54,2.9l0,4.62c0,1.61-1.55,2.93-3.49,2.94l-69.73.43a3.27,3.27,0,0,1-3.54-2.9l0-4.61A3.25,3.25,0,0,1,106.51,315.17Z"/><path class="cls-18" d="M165.32,314.8l69.73-.44c1.94,0,3.53,1.29,3.54,2.9l0,4.62a3.25,3.25,0,0,1-3.49,2.94l-69.73.44c-1.94,0-3.53-1.29-3.54-2.9l0-4.62A3.24,3.24,0,0,1,165.32,314.8Z"/><path class="cls-19" d="M188.92,353.21l-38.74.24a3.27,3.27,0,0,1-3.55-2.9l0-4.61a3.26,3.26,0,0,1,3.49-2.95l38.74-.24a3.28,3.28,0,0,1,3.55,2.9l0,4.62A3.25,3.25,0,0,1,188.92,353.21Z"/><path class="cls-20" d="M154.29,353.43l-40.65.25a3.28,3.28,0,0,1-3.55-2.9l0-4.62a3.25,3.25,0,0,1,3.49-2.94L154.2,343c1.94,0,3.53,1.28,3.54,2.9l0,4.61C157.8,352.1,156.24,353.41,154.29,353.43Z"/><path class="cls-1" d="M217.33,665.38c-13.81-6.43-72.16-28.71-84.81-38.59S107.26,611.73,104.66,587c-.23-2.16-.42-3.58-.56-4.41l0,.11h0a.34.34,0,0,1,0,.1c-.06.34-.14.67-.18,1,0,.17-.06.71-.08.91.32,8.08,2.49,30,7.1,38.08,6.09,10.61,9.84,13.53,23.79,24.29,14.94,11.53,97.64,45,110.48,52.28,11.53,6.52,19.76,12.91,23.8,25.11l4,12.2C284.24,689.21,229,670.8,217.33,665.38Z"/><path class="cls-21" d="M194.3,669.48l-42.37.27c-1.94,0-3.53-1.29-3.54-2.9l0-4.62a3.24,3.24,0,0,1,3.48-2.94l42.38-.27a3.28,3.28,0,0,1,3.54,2.9l0,4.62A3.25,3.25,0,0,1,194.3,669.48Z"/><path class="cls-22" d="M156.93,669.71l-44.44.28a3.27,3.27,0,0,1-3.54-2.9l0-4.61a3.25,3.25,0,0,1,3.49-2.94l44.44-.28a3.27,3.27,0,0,1,3.54,2.9l0,4.61A3.25,3.25,0,0,1,156.93,669.71Z"/><path class="cls-1" d="M273.75,822c11.27-47.53-44-65.93-55.65-71.36-13.81-6.43-72.16-28.71-84.81-38.58S108,697,105.43,672.3c-2.15-20.36-.77,23.64,6.22,35.82,6.08,10.61,9.83,13.53,23.79,24.29,14.93,11.53,97.63,45,110.47,52.28,11.53,6.52,19.76,12.91,23.8,25.11Z"/><path class="cls-23" d="M268.43,181.07c-.05-.13-.12-.26-.17-.4-.11.85-.23,2-.37,3.65-2.15,24.72-14.73,30.18-27,40.1s-70,33-83.65,39.64c-11.49,5.57-66.12,24.66-54,72l3.8-12.25c3.79-12.24,11.86-18.74,23.21-25.4,12.63-7.41,94.28-41.94,108.92-53.65,13.68-10.94,17.36-13.9,23.22-24.59,4.12-7.5,5.93-26.87,6.32-36.12a2.48,2.48,0,0,1,0-.27A5.74,5.74,0,0,1,268.43,181.07Z"/><path class="cls-24" d="M243.82,426.92l-74.12.47a3.28,3.28,0,0,1-3.54-2.9l0-4.62a3.25,3.25,0,0,1,3.49-2.94l74.11-.46a3.27,3.27,0,0,1,3.55,2.9l0,4.61A3.25,3.25,0,0,1,243.82,426.92Z"/><path class="cls-25" d="M181.64,427.31l-74.11.47c-1.94,0-3.53-1.29-3.54-2.9l0-4.62a3.25,3.25,0,0,1,3.49-2.94l74.12-.46a3.26,3.26,0,0,1,3.54,2.89l0,4.62C185.15,426,183.58,427.3,181.64,427.31Z"/><path class="cls-26" d="M262.35,453.2l-74.12.46c-1.94,0-3.53-1.29-3.54-2.9l0-4.62c0-1.61,1.54-2.93,3.49-2.94l74.11-.46c1.94,0,3.53,1.28,3.54,2.9l0,4.61C265.85,451.87,264.29,453.18,262.35,453.2Z"/><path class="cls-27" d="M200.17,453.58l-74.12.47a3.28,3.28,0,0,1-3.54-2.9l0-4.62a3.25,3.25,0,0,1,3.49-2.94l74.12-.46a3.27,3.27,0,0,1,3.54,2.89l0,4.62A3.25,3.25,0,0,1,200.17,453.58Z"/><path class="cls-28" d="M194.27,402.29l-42.37.27c-1.94,0-3.53-1.29-3.54-2.9l0-4.62a3.24,3.24,0,0,1,3.48-2.94l42.38-.26a3.27,3.27,0,0,1,3.54,2.89l0,4.62A3.25,3.25,0,0,1,194.27,402.29Z"/><path class="cls-29" d="M156.9,402.53l-44.44.27a3.26,3.26,0,0,1-3.54-2.89l0-4.62a3.25,3.25,0,0,1,3.49-2.94l44.44-.28a3.28,3.28,0,0,1,3.54,2.9l0,4.62A3.25,3.25,0,0,1,156.9,402.53Z"/><path class="cls-23" d="M103.48,420c-12.07-47.39,42.57-66.48,54.05-72.05,13.62-6.6,71.25-29.6,83.65-39.63s24.85-15.38,27-40.1c1.77-20.38,1.19,23.63-5.54,35.89-5.86,10.69-9.53,13.65-23.22,24.59-14.64,11.71-96.29,46.23-108.92,53.65-11.35,6.66-19.42,13.16-23.21,25.4Z"/><path class="cls-30" d="M262.69,565.16l-74.11.47c-1.94,0-3.53-1.29-3.54-2.9l0-4.62a3.24,3.24,0,0,1,3.48-2.94l74.12-.46c1.94,0,3.53,1.28,3.54,2.9l0,4.61C266.2,563.84,264.64,565.15,262.69,565.16Z"/><path class="cls-31" d="M200.52,565.55,126.4,566a3.28,3.28,0,0,1-3.54-2.9l0-4.78c0-1.61,1.55-2.92,3.49-2.94l74.11-.46c1.94,0,3.53,1.29,3.54,2.9l0,4.77A3.25,3.25,0,0,1,200.52,565.55Z"/><path class="cls-32" d="M182.48,470.44l41.44-.26c1.94,0,3.53,1.29,3.54,2.9l0,4.62c0,1.61-1.54,2.93-3.49,2.94l-41.43.26c-1.94,0-3.53-1.29-3.54-2.9l0-4.62A3.24,3.24,0,0,1,182.48,470.44Z"/><path class="cls-33" d="M219.15,470.21l43.46-.27c1.94,0,3.53,1.28,3.54,2.9l0,4.61c0,1.62-1.55,2.93-3.49,2.95l-43.46.27c-1.94,0-3.53-1.29-3.54-2.9l0-4.62C215.64,471.54,217.2,470.22,219.15,470.21Z"/><path class="cls-23" d="M269.85,453.31c-2.15,24.72-14.73,30.18-27,40.1-12.41,10-70,33-83.65,39.63-9.25,4.49-46.45,17.74-54.31,47.46,0,0,0,.1,0,.15a48.18,48.18,0,0,0,.3,24.44L109,592.84c3.8-12.24,11.86-18.74,23.22-25.4,12.63-7.42,94.27-41.94,108.92-53.65,13.68-10.94,17.36-13.9,23.22-24.59C271,476.94,271.62,432.93,269.85,453.31Z"/><path class="cls-34" d="M184.56,621l-36.72.23c-1.94,0-3.53-1.29-3.54-2.9l0-4.62c0-1.61,1.54-2.92,3.49-2.94l36.72-.23c1.94,0,3.53,1.29,3.54,2.9l0,4.62C188.07,619.67,186.5,621,184.56,621Z"/><path class="cls-35" d="M151,621.21l-36.73.23a3.28,3.28,0,0,1-3.54-2.9l0-4.62a3.25,3.25,0,0,1,3.49-2.94l36.72-.23c1.94,0,3.53,1.29,3.54,2.9l.05,4.62A3.25,3.25,0,0,1,151,621.21Z"/><path class="cls-36" d="M109.9,583.21l65.67-.41c1.94,0,3.53,1.28,3.54,2.89l0,4.62a3.24,3.24,0,0,1-3.48,2.94l-65.67.41c-1.94,0-3.53-1.28-3.54-2.9l0-4.61A3.25,3.25,0,0,1,109.9,583.21Z"/><path class="cls-37" d="M164.9,582.86l68.7-.43a3.28,3.28,0,0,1,3.55,2.9l0,4.62a3.25,3.25,0,0,1-3.49,2.94l-68.71.43c-1.94,0-3.53-1.29-3.54-2.9l0-4.62C161.39,584.19,163,582.87,164.9,582.86Z"/><path class="cls-23" d="M105.89,686.65c-12.06-47.38,42.57-66.47,54.05-72C173.56,608,231.19,585,243.59,575s24.85-15.38,27-40.1c1.77-20.38,1.19,23.63-5.53,35.89-5.86,10.69-9.54,13.65-23.22,24.59C227.18,607.06,145.54,641.59,132.9,649c-11.35,6.66-19.41,13.16-23.21,25.4Z"/><path class="cls-38" d="M242.13,495.82s-.59-1.33-1-2-2-2.49-2.32-2.07-1.4,3.24-.81,4,0,2.17,2.94,3Z"/><path class="cls-39" d="M275.14,487.39S259.94,500,254,498.85a116,116,0,0,1-11.75-3.34l-1.43,3.62s6.39,8.62,13,8.67A38,38,0,0,0,272,503.32Z"/><path class="cls-40" d="M301.81,620.61s-.44,7.09-1.82,7.19h-7l-8.68,0a2.8,2.8,0,0,1,2.59-2.52c2.54-.44,6.79-2.21,8.33-5.55C296.86,616.17,301.81,620.61,301.81,620.61Z"/><path class="cls-1" d="M302.31,621.11a18.35,18.35,0,0,1-4.7.87,17.43,17.43,0,0,1-4.39-.62A120,120,0,0,0,290,606c-1.44-5.53-3.49-12.63-6.4-21.46-8.06-24.39-10.51-38.66-10.73-40,0-.07,0-.11,0-.11h0l24.77-10.82s-3.06,33.62.84,46.52a53.41,53.41,0,0,1,1.42,6.19C302.37,600.35,302.31,621.11,302.31,621.11Z"/><path class="cls-23" d="M290,606c-1.44-5.53-3.49-12.63-6.4-21.46-8.06-24.39-10.51-38.66-10.73-40a.49.49,0,0,1,0-.12l24.77-10.82s-3.06,33.62.84,46.52C299,582,290,606,290,606Z"/><path class="cls-40" d="M282.46,620.61s-.44,7.09-1.82,7.19h-7l-8.69,0a2.81,2.81,0,0,1,2.6-2.52c2.54-.44,6.79-2.21,8.32-5.55C277.51,616.17,282.46,620.61,282.46,620.61Z"/><path class="cls-1" d="M268.42,534.42A349.25,349.25,0,0,0,271.89,583c3.78,26.75,2.5,38.1,2.5,38.1A25.29,25.29,0,0,0,278,622a16.6,16.6,0,0,0,5.42-.62s5.42-26.76,3.87-40.15,7.42-45.94,7.42-45.94Z"/><path class="cls-38" d="M286.15,481.8l-3.38,4.34-7.09.39c0-.57-.15-2.94-.24-5.09,0-.12,0-.25,0-.37-.08-1.83-.11-3.83-.11-3.83l5.63-3.89,2.11-1.61s.33,2,.33,2.26C283.41,479.58,286.15,481.8,286.15,481.8Z"/><path class="cls-39" d="M267,535.36c.1,11.5.87,38.4,1.43,38.95,6,5.78,32.5-1.58,33.9-7.95S297,484.69,286.7,481.68c-2.14-.62-13.54,3.05-13.54,3.05a71,71,0,0,0-3,10.59c-.44,2.19-1.86,17.88-2.69,28.36-.21,2.79-.39,5.22-.5,6.91C267,531.3,267,533,267,535.36Z"/><path class="cls-41" d="M282.93,474.21c-.82,2.68-5.51,6-7.49,7.23,0-.12,0-.25,0-.37-.08-1.83-.14-5.52-.14-5.52l5.66-2.2C282.34,473,283.27,473.1,282.93,474.21Z"/><path class="cls-38" d="M273.43,476.21s10.51,3.26,12.45-3.29,4.6-10.53-2-12.89-8.67-.24-9.86,1.78S270.74,475.19,273.43,476.21Z"/><path class="cls-42" d="M274.41,461.18s.67,7.62,2.25,7.29,3.67-.39,3.44,1.91,1.95,6.19,3.4,6.18c4.9,0,10.29-13.13,8.95-15.5C288.58,454.22,268.82,452.84,274.41,461.18Z"/><path class="cls-43" d="M276,481.85c.14-.06,7.83-3.49,8.73-3.2s2,3,2,3l-13.54,3.05A6.65,6.65,0,0,1,276,481.85Z"/><path class="cls-44" d="M226.15,520.37l39.52,41.77a2.09,2.09,0,0,0,2.93,0l2.69-2.51a2.07,2.07,0,0,0,.15-2.91L231.83,514.9c-.76-.81-1.43-.17-2.27.62L226.87,518C226,518.83,225.38,519.56,226.15,520.37Z"/><path class="cls-45" d="M247.82,543.26l17.8,18.82a2.12,2.12,0,0,0,3,.09l2.69-2.51a2.11,2.11,0,0,0,.09-3l-17.8-18.83Z"/><path class="cls-42" d="M181.08,516.89a33.9,33.9,0,0,0,47.75,1.45,33.49,33.49,0,0,0,1.45-47.52,33.89,33.89,0,0,0-47.74-1.45l-.53.51A33.5,33.5,0,0,0,181.08,516.89Zm2.9-46a31.5,31.5,0,1,1-1.37,44.55A31.62,31.62,0,0,1,184,470.9Z"/><g class="cls-46"><path class="cls-47" d="M182.61,515.45a31.68,31.68,0,0,0,54.61-18.73,31.3,31.3,0,0,0-8.47-24.46,31.73,31.73,0,0,0-28.5-9.46,32.36,32.36,0,0,0-5.16,1.34,31.51,31.51,0,0,0-12.48,51.31Z"/></g><path class="cls-23" d="M267,535.36c25.12-16.92,23.07-40.2,23.07-40.2-9.8,5.5-19.52,18.52-22.54,28.52-.21,2.79-.39,5.22-.5,6.91C267,531.3,267,533,267,535.36Z"/><path class="cls-38" d="M244.84,526.8a6.51,6.51,0,0,1-3-1.87s-.72.05.11,1.57c.07.12.23.45.34.68a.14.14,0,0,1-.12.21,15.55,15.55,0,0,0-3.8.08c-.26,0-.33.67-.32.93a2.35,2.35,0,0,0,.5,1.61c.3.39,1.14.82,3,1.56.71.29,2.74.07,4.64-.58l1.52-.7-.47-2.81-.38.08C246.22,527.69,245.47,527,244.84,526.8Z"/><path class="cls-39" d="M282.68,484.73s21.34,4-6.28,34.79c-4.41,4.92-28.28,11.32-28.28,11.32s-2.42-2.05-1.2-3.71c0,0,16.43-11.87,20.05-13.76,1.62-.85,6.31-18.95,9-23.31A11.92,11.92,0,0,1,282.68,484.73Z"/><path class="cls-38" d="M241.56,496.2a11,11,0,0,1-.84-2,10.78,10.78,0,0,0-1.38-3.1c-.14-.15-.62,0-.67.66a3.34,3.34,0,0,0,.34,1.34,14.94,14.94,0,0,1,.45,2.67C239.79,496.81,241.56,496.2,241.56,496.2Z"/><rect class="cls-48" x="19.08" y="183.44" width="106.94" height="80.24" rx="38.26"/><path class="cls-49" d="M47.38,196.29s2.8-2.28,7.85.83a5.9,5.9,0,0,1,3.22,3.93,5.13,5.13,0,0,0,.89,2,6.82,6.82,0,0,1,1.27,3.51,6.47,6.47,0,0,0,.67,2.41,8.05,8.05,0,0,1,.72,4.33s1.62,1.93.71,6.24a6.7,6.7,0,0,1-.93,5.14s.42,3.11-2,4.15a5.86,5.86,0,0,1-5.07,3.43,4.27,4.27,0,0,0-1.6.39,5.55,5.55,0,0,1-3.89.09c-3-.88-2.73-2.92-2.73-2.92V196.79Z"/><path class="cls-49" d="M45.75,196.29s-2.8-2.28-7.85.83a5.85,5.85,0,0,0-3.25,4.13,3.85,3.85,0,0,1-.75,1.7,6.84,6.84,0,0,0-1.4,4,4.11,4.11,0,0,1-.52,1.88,7.46,7.46,0,0,0-.88,3.6,4.23,4.23,0,0,1-.37,1.65,8.94,8.94,0,0,0-.31,5.55,6.79,6.79,0,0,0,.44,4.26,5.62,5.62,0,0,1,.49,1.86,3.78,3.78,0,0,0,1.34,2.78,5,5,0,0,1,1.12,1.21,5.76,5.76,0,0,0,4.4,2.59,6.86,6.86,0,0,1,1.94.46,5.61,5.61,0,0,0,3.76,0c3-.88,2.73-2.92,2.73-2.92V196.79Z"/><path class="cls-50" d="M43.58,216.86a4.63,4.63,0,0,1-3.49-2.75v0a1.77,1.77,0,0,1,.51-2.23,1.44,1.44,0,0,0,.33-.32,6.28,6.28,0,0,1-3.26-.58,5,5,0,0,1-1.75-1.47,3.62,3.62,0,0,0,1,2,3.36,3.36,0,0,0,1.27.69c.44.1.63.59.79,1a10.76,10.76,0,0,0,.55,1.26,6.7,6.7,0,0,0,1.35,1.84A4.09,4.09,0,0,0,39,218.14a4.14,4.14,0,0,0-.45,1.4A5.76,5.76,0,0,1,39.69,218a3.3,3.3,0,0,1,2.51-1A5.43,5.43,0,0,0,43.58,216.86Z"/><path class="cls-50" d="M38.28,222.7h-.21a3,3,0,0,1-2.34-1.42,3.39,3.39,0,0,1-.37-3.35v0c.14-.32.22.28.2.63a4,4,0,0,0,1.18,2.57,4.53,4.53,0,0,0,3,.75c.36,0,.67,0,.35.28A3.25,3.25,0,0,1,38.28,222.7Z"/><path class="cls-50" d="M42.56,210l-.15-.06a2.55,2.55,0,0,1-1.38-1.7,2.62,2.62,0,0,1,.53-2.56h0c.17-.2.09.26,0,.52a3.15,3.15,0,0,0,.25,2.2,3.76,3.76,0,0,0,2,1.41c.26.11.47.21.18.3A2.52,2.52,0,0,1,42.56,210Z"/><path class="cls-50" d="M36.34,226.72a.67.67,0,0,1-.93-.28,16.6,16.6,0,0,0-2.71-3.53h0a9,9,0,0,1,3.64,3.81Z"/><path class="cls-50" d="M44.09,225.09a2.26,2.26,0,0,1-.59-1.78,9.38,9.38,0,0,1,.23-1.72,3,3,0,0,0-.67,3.22c-1,0-1.5,1.17-1.5,1.17a3.29,3.29,0,0,1,.67-.29,2.09,2.09,0,0,1,1.34,0,1.81,1.81,0,0,1,1,1.15A1.61,1.61,0,0,0,44.09,225.09Z"/><path class="cls-50" d="M37.09,205.58a1.93,1.93,0,0,1,1.54-.87,7.42,7.42,0,0,1,1.59,0,2.45,2.45,0,0,0-3-.32A2,2,0,0,0,36,202.94a3.83,3.83,0,0,1,.35.69,2.69,2.69,0,0,1,.19,1.45,1.85,1.85,0,0,1-.91,1.24A1.33,1.33,0,0,0,37.09,205.58Z"/><path class="cls-50" d="M33.21,216.33a2,2,0,0,1,1.54-.87,7.18,7.18,0,0,1,1.59,0,2.46,2.46,0,0,0-3-.32,2,2,0,0,0-1.24-1.49,4.29,4.29,0,0,1,.34.69,2.71,2.71,0,0,1,.2,1.46,1.87,1.87,0,0,1-.92,1.23A1.33,1.33,0,0,0,33.21,216.33Z"/><path class="cls-50" d="M41.87,201.16a2.84,2.84,0,0,0,.74-2.23,11.5,11.5,0,0,0-.29-2.14,3.76,3.76,0,0,1,.83,4c1.19,0,1.88,1.46,1.88,1.46a4.63,4.63,0,0,0-.83-.37,2.59,2.59,0,0,0-1.68,0,2.28,2.28,0,0,0-1.26,1.43A2,2,0,0,1,41.87,201.16Z"/><path class="cls-50" d="M38,228.68a2.66,2.66,0,0,0,.69-2.08,9.94,9.94,0,0,0-.27-2,3.52,3.52,0,0,1,.78,3.76c1.11,0,1.76,1.35,1.76,1.35a5.11,5.11,0,0,0-.79-.34,2.42,2.42,0,0,0-1.56,0,2.07,2.07,0,0,0-1.17,1.34A1.87,1.87,0,0,1,38,228.68Z"/><path class="cls-50" d="M49.53,216.86A4.65,4.65,0,0,0,53,214.11v0a1.77,1.77,0,0,0-.51-2.23,1.44,1.44,0,0,1-.33-.32,6.24,6.24,0,0,0,3.25-.58,5,5,0,0,0,1.76-1.47,3.62,3.62,0,0,1-1,2,3.44,3.44,0,0,1-1.27.69c-.44.1-.63.59-.79,1a10.76,10.76,0,0,1-.55,1.26,6.7,6.7,0,0,1-1.35,1.84,4.09,4.09,0,0,1,1.84,1.84,4.14,4.14,0,0,1,.45,1.4A6,6,0,0,0,53.42,218a3.3,3.3,0,0,0-2.51-1A5.43,5.43,0,0,1,49.53,216.86Z"/><path class="cls-50" d="M54.83,222.7H55a3,3,0,0,0,2.34-1.42,3.39,3.39,0,0,0,.37-3.35v0c-.14-.32-.22.28-.2.63a4,4,0,0,1-1.18,2.57,4.55,4.55,0,0,1-3,.75c-.35,0-.66,0-.34.28A3.25,3.25,0,0,0,54.83,222.7Z"/><path class="cls-50" d="M50.55,210l.15-.06a2.55,2.55,0,0,0,1.38-1.7,2.62,2.62,0,0,0-.53-2.56h0c-.17-.2-.09.26,0,.52a3.21,3.21,0,0,1-.25,2.2,3.76,3.76,0,0,1-2,1.41c-.26.11-.47.21-.18.3A2.52,2.52,0,0,0,50.55,210Z"/><path class="cls-50" d="M56.36,225.47a.66.66,0,0,0,1,.07,15.38,15.38,0,0,1,3.6-2.4h0a8.31,8.31,0,0,0-4.56,2.33Z"/><path class="cls-50" d="M49,225.09a2.29,2.29,0,0,0,.59-1.78,9.38,9.38,0,0,0-.23-1.72,3,3,0,0,1,.67,3.22c1,0,1.5,1.17,1.5,1.17a3.29,3.29,0,0,0-.67-.29,2.09,2.09,0,0,0-1.34,0,1.81,1.81,0,0,0-1,1.15A1.61,1.61,0,0,1,49,225.09Z"/><path class="cls-50" d="M56,205.58a1.93,1.93,0,0,0-1.55-.87,7.35,7.35,0,0,0-1.58,0,2.44,2.44,0,0,1,3-.32,2,2,0,0,1,1.25-1.48,3.83,3.83,0,0,0-.35.69,2.69,2.69,0,0,0-.19,1.45,1.85,1.85,0,0,0,.91,1.24A1.33,1.33,0,0,1,56,205.58Z"/><path class="cls-50" d="M59.9,216.33a2,2,0,0,0-1.54-.87,7.18,7.18,0,0,0-1.59,0,2.46,2.46,0,0,1,3-.32A2,2,0,0,1,61,213.69a3.83,3.83,0,0,0-.35.69,2.82,2.82,0,0,0-.19,1.46,1.84,1.84,0,0,0,.92,1.23A1.33,1.33,0,0,1,59.9,216.33Z"/><path class="cls-50" d="M51.24,201.16a2.84,2.84,0,0,1-.74-2.23,11.5,11.5,0,0,1,.29-2.14,3.78,3.78,0,0,0-.84,4c-1.18,0-1.87,1.46-1.87,1.46a4.63,4.63,0,0,1,.83-.37,2.59,2.59,0,0,1,1.68,0,2.28,2.28,0,0,1,1.26,1.43A2,2,0,0,0,51.24,201.16Z"/><path class="cls-50" d="M55.07,228.68a2.66,2.66,0,0,1-.69-2.08,9.94,9.94,0,0,1,.27-2,3.52,3.52,0,0,0-.78,3.76c-1.11,0-1.76,1.35-1.76,1.35a5.26,5.26,0,0,1,.78-.34,2.46,2.46,0,0,1,1.57,0,2.1,2.1,0,0,1,1.17,1.34A1.87,1.87,0,0,0,55.07,228.68Z"/><rect class="cls-50" x="29.7" y="213.35" width="33.8" height="0.68" transform="translate(-167.21 259.73) rotate(-89.85)"/><rect class="cls-51" x="65.88" y="193.95" width="25.54" height="2.84"/><rect class="cls-52" x="65.88" y="200.81" width="20.44" height="1.42"/><rect class="cls-53" x="65.88" y="204.64" width="13.35" height="1.42"/><rect class="cls-54" x="81.22" y="204.64" width="13.34" height="1.42"/><rect class="cls-55" x="88.4" y="200.81" width="12.33" height="1.42"/><rect class="cls-56" x="92.95" y="193.95" width="11.85" height="2.84"/><rect class="cls-57" x="31.59" y="238" width="20.4" height="2.04"/><rect class="cls-58" x="31.59" y="242.93" width="16.33" height="1.02"/><rect class="cls-59" x="31.59" y="245.68" width="10.66" height="1.02"/><rect class="cls-60" x="43.84" y="245.68" width="10.66" height="1.02"/><rect class="cls-61" x="49.58" y="242.93" width="9.85" height="1.02"/><rect class="cls-62" x="53.21" y="238" width="9.47" height="2.04"/><path class="cls-63" d="M91.55,214.05a1.8,1.8,0,0,1,0,2.38,1.45,1.45,0,0,1-2.18,0,1.8,1.8,0,0,1,0-2.38A1.46,1.46,0,0,1,91.55,214.05Z"/><path class="cls-63" d="M85.39,221.14a2,2,0,0,1,0,2.65,1.6,1.6,0,0,1-2.42,0,2,2,0,0,1,0-2.65A1.62,1.62,0,0,1,85.39,221.14Z"/><path class="cls-63" d="M77.77,217.42a1.71,1.71,0,0,1,0,2.26,1.38,1.38,0,0,1-2.07,0,1.7,1.7,0,0,1,0-2.26A1.37,1.37,0,0,1,77.77,217.42Z"/><path class="cls-63" d="M70.85,221.75a1.72,1.72,0,0,1,0,2.27,1.38,1.38,0,0,1-2.07,0,1.7,1.7,0,0,1,0-2.26A1.37,1.37,0,0,1,70.85,221.75Z"/><polygon class="cls-63" points="69.76 222.77 76.74 218.39 84.15 222.31 90.38 215.15 90.56 215.35 84.21 222.65 76.75 218.72 69.89 223.01 69.76 222.77"/><path class="cls-63" d="M95.22,225.22a1.49,1.49,0,0,1-.31-1.95,1.2,1.2,0,0,1,1.78-.33,1.47,1.47,0,0,1,.31,1.94A1.21,1.21,0,0,1,95.22,225.22Z"/><path class="cls-63" d="M99.37,218.5a1.66,1.66,0,0,1-.34-2.17,1.34,1.34,0,0,1,2-.37,1.64,1.64,0,0,1,.34,2.16A1.35,1.35,0,0,1,99.37,218.5Z"/><path class="cls-63" d="M106.06,220.41a1.41,1.41,0,0,1-.29-1.85,1.15,1.15,0,0,1,1.69-.32,1.4,1.4,0,0,1,.29,1.85A1.15,1.15,0,0,1,106.06,220.41Z"/><path class="cls-63" d="M111.18,215.83a1.4,1.4,0,0,1-.29-1.85,1.14,1.14,0,0,1,1.68-.32,1.41,1.41,0,0,1,.3,1.85A1.15,1.15,0,0,1,111.18,215.83Z"/><polygon class="cls-63" points="111.94 214.83 106.79 219.45 100.24 217.37 96.05 224.14 95.87 224.01 100.15 217.09 106.74 219.19 111.81 214.65 111.94 214.83"/><g class="cls-64"><path class="cls-63" d="M112,250.84H68.22V232.92H112Zm-43.5-.27h43.22V233.19H68.5Z"/></g><path class="cls-38" d="M154.28,314.37a1.5,1.5,0,0,1,.23,1.52h0a9.29,9.29,0,0,1-2.8,3.29c-.17.14-.32.28-.45.4l-.1.1-.07.07c-1.23,1.22-.77,1.49-3,4-2.52,2.8-4.25,2.85-4.75,2.6s.43-1.71,1.37-3.38l.14-.25c.12-.22.25-.44.37-.67,1.1-2,.82-3,.56-5.95-.21-2.44-3.54-13.61-3.54-13.61l4.83-.89s1.45,8.9,3.06,10.27c.85.73,1.81.73,2.63,1.28l.18.11A6.76,6.76,0,0,1,154.28,314.37Z"/><path class="cls-65" d="M154.28,314.37a1.5,1.5,0,0,1,.23,1.52h0a10.76,10.76,0,0,1-2.8,3.28c-.17.15-.32.28-.45.41l-.1.1-.07.07c-1.23,1.22-.77,1.49-3,4-2.52,2.8-4.25,2.85-4.75,2.6s.43-1.71,1.37-3.38a10.8,10.8,0,0,0,4.49-3.54c1.46-2,2.46-4.55,3.45-6.11l.29-.06A6.76,6.76,0,0,1,154.28,314.37Z"/><path class="cls-38" d="M115.35,311.14c-.3,1.6-2.42,1.33-4.8.71s-1.81.12-5.19-.28-4.4-1.75-4.5-2.29,1.58-.65,3.37-.87l.68-.08c2-.28,3.5-1.67,5.33-2.82s4.34-5.51,4.34-5.51l4.63.39s-2.43,3.95-3.37,5.67a6.3,6.3,0,0,0-.46,3.38A6.91,6.91,0,0,1,115.35,311.14Z"/><path class="cls-65" d="M110.55,311.85c-2.37-.62-1.81.12-5.19-.28s-4.4-1.75-4.5-2.29,1.58-.65,3.37-.87v0a9.13,9.13,0,0,0,4.84,1.61c2.29.06,4.72-.64,6.3-.62a6.91,6.91,0,0,1,0,1.7C115.05,312.74,112.93,312.47,110.55,311.85Z"/><path class="cls-65" d="M133.1,279.42l4.33,12.48,5.65,16.29a8.62,8.62,0,0,0,3-.29,12.66,12.66,0,0,0,2.9-1.52s-1.57-17.49-4.5-27.53A18.31,18.31,0,0,0,142,273C137.43,267.27,133.1,279.42,133.1,279.42Z"/><path class="cls-66" d="M137.5,259.61c2.47-.85,8.9,0,15.87,1.34a4.64,4.64,0,0,0,4.89-2.36h0l17.56-1.47s7,14.88,1.77,22.44c-3,4.42-13.31,3.79-16.42,3.11-8.56-1.88-18.28-7.32-19.54-7.59-2.06-.44-2.89,4-4.95,8.62s-19.4,20.55-19.4,20.55a14.05,14.05,0,0,1-3.77-.42,3.65,3.65,0,0,1-1.61-1.09S131.1,261.82,137.5,259.61Z"/><path class="cls-67" d="M180.23,270.06c-.08,10.8-2.68,15.76-2.68,15.76-22.6-3.24-27.6-25.5-27.6-25.5a8,8,0,0,0,6.61-3.2l19-13,1.15-.79,1.19-.81s.36,2.06.79,5.38a180.86,180.86,0,0,1,1.47,18C180.22,267.31,180.24,268.68,180.23,270.06Z"/><path class="cls-68" d="M158.36,232.7c6.25,3.68,18.94,11.32,19,11.27s4.66,1.88,7.31,0c4.41-3.13,6.77-11.57-1.29-18.83-4-3.62-6.88-4.5-7.31-10.28-.24-3.15-4.27-13.57-11-12.52a8.83,8.83,0,0,1-1.62.11,5.83,5.83,0,0,0-3.35.93C156.36,205.78,149,231.27,158.36,232.7Z"/><path class="cls-38" d="M163.6,229.56s3.08,1.15,5.15.17,3.44-4.36,3.41-4.37c-.89,0-1.91-1.56-2.62-6.33l-.38.15-6.35,2.45s.46,2.18.75,4.26C163.82,227.64,164,229.31,163.6,229.56Z"/><path class="cls-69" d="M162.81,221.63s.25,1.18.62,3.38a7.45,7.45,0,0,0,5.73-5.83Z"/><path class="cls-38" d="M161.86,223.8s8.7-1.25,7.89-7-.24-9.85-5.82-9.3-6.36,2.94-6.53,4.94S159.58,224,161.86,223.8Z"/><path class="cls-68" d="M157.72,209.23s5.57,5.14,9.36,5.55,5.22-.89,5.22-.89a15.58,15.58,0,0,1-3.58-5.19,2.69,2.69,0,0,0-2.19-1.68C163.82,206.77,158.69,206.66,157.72,209.23Z"/><path class="cls-68" d="M161.2,208.77a14.68,14.68,0,0,0-2.45,3.36,12,12,0,0,0-.29,6s-2.9-6-1.25-9C159,206,161.2,208.77,161.2,208.77Z"/><path class="cls-70" d="M156.28,243.28c.26,18.86.07,14.92,2,16.71.46.43,1.77.68,3.48.8,5.4.39,14.89-.56,15.26-1.63,1.24-3.7.36-4.85,1.4-10.51.11-.6.24-1.25.4-2,.87-3.89,1.71-5.21-1.36-11.46-2.79-5.66-5.63-10.29-5.89-10.12-7.36,4.67-8,.78-8,.78S156.15,234.08,156.28,243.28Z"/><path class="cls-71" d="M137.43,291.9l5.65,16.29a8.62,8.62,0,0,0,3-.29,12.66,12.66,0,0,0,2.9-1.52s-1.57-17.49-4.5-27.53Z"/><path class="cls-72" d="M163.56,225.89s-6.67,1.05-7.62,5c-.85,3.5-3.87,23.34-3.87,23.34s1.36,3.43,3.14,1.53,5.59-19.81,5.59-19.81Z"/><path class="cls-38" d="M161.5,257.94a10.81,10.81,0,0,1-1.48,1.73,1,1,0,0,1-.6.13l.75-1.44Z"/><path class="cls-38" d="M161.76,256.35,158.52,258a.57.57,0,0,0,.54.22,7.56,7.56,0,0,0,1.4-.41Z"/><path class="cls-73" d="M180.19,266c-5-.43-17.69-5-15.52-8.22,1-1.5,7.71-2.16,11.17-6.89.93-1.27-.12-4.75-.25-6.72-.06-.85,0-1.46.25-1.6s.57.23.9.81a30.43,30.43,0,0,1,1.82,4.61l.16,0A180.86,180.86,0,0,1,180.19,266Z"/><path class="cls-38" d="M168,257.12s-5.33-1.27-6.19-.77a12.83,12.83,0,0,0-3.22,3c-.26.65,1.91-.48,2.62-.69a6,6,0,0,1,2.26.53,7.07,7.07,0,0,0,4.06.44Z"/><path class="cls-74" d="M171.57,225.11s7.1.51,9.58,4.2c3.48,5.21,7.22,27.47,3.26,30.43-4.46,3.33-17.14.8-17.14.8s-1.19-3.78.21-3.92c3.77-.39,11.15-2.07,11.08-3.83-.1-2.69-4.75-11.59-4.75-13.36S171.57,225.11,171.57,225.11Z"/><polygon class="cls-75" points="134.05 260.32 167.95 260.32 167.95 261.12 134.35 261.12 134.05 260.32"/><polygon class="cls-75" points="160.02 261.12 134.35 261.12 126.63 240.56 152.26 240.56 160.02 261.12"/><path class="cls-75" d="M140.83,250.84a1,1,0,0,1,.87-1.31,1.79,1.79,0,0,1,1.58,1.31,1,1,0,0,1-.88,1.31A1.79,1.79,0,0,1,140.83,250.84Z"/><rect class="cls-48" x="219.71" y="340.21" width="96.29" height="67.23" rx="33.61"/><path class="cls-76" d="M246.34,696.51l-68.71.46c-3.15,0-5.71-1.26-5.73-2.88l0-4.62c0-1.61,2.52-2.93,5.67-3l68.71-.47c3.14,0,5.71,1.27,5.73,2.89l0,4.61C252,695.17,249.49,696.49,246.34,696.51Z"/><path class="cls-77" d="M185.74,696.92l-72.06.48c-3.14,0-5.71-1.26-5.72-2.88l0-4.61c0-1.62,2.52-2.94,5.67-3l72.06-.49c3.15,0,5.71,1.27,5.73,2.88l0,4.62C191.43,695.57,188.89,696.9,185.74,696.92Z"/><path class="cls-78" d="M265.89,723.74l-70.42.44a3.17,3.17,0,0,1-3.37-2.9l0-4.62a3.15,3.15,0,0,1,3.32-2.94l70.42-.44a3.16,3.16,0,0,1,3.36,2.9l0,4.62A3.14,3.14,0,0,1,265.89,723.74Z"/><path class="cls-79" d="M206.81,724.11l-70.42.43a3.16,3.16,0,0,1-3.36-2.9l0-4.62a3.13,3.13,0,0,1,3.31-2.94l70.42-.43a3.18,3.18,0,0,1,3.37,2.9l0,4.62A3.15,3.15,0,0,1,206.81,724.11Z"/><path class="cls-23" d="M240.18,376.49c-2-3.16,1.07-4.76,2.38-7.77a9.43,9.43,0,0,0,.81-5.19c-.19-1.46-3.45-1.34-3.37.12a13.31,13.31,0,0,1,.2,2.73c-.35,2.2-1.9,4.6-1.78,6.77a3.67,3.67,0,0,0-1.08.78,3.24,3.24,0,0,0-1.17-1c.12-2.42-1.42-5.09-1.77-7.55a16.42,16.42,0,0,1,.2-3c.08-1.64-3.15-1.77-3.34-.14a11.71,11.71,0,0,0,.8,5.79c1.31,3.36,4.32,5.15,2.36,8.67s-5.8,6.71-4.52,10.81c.39,1.27,1.94,3.79,3.7,1.87.58-.62.14-4.69.64-5.95.69-1.73.79-3.51,1.56-5.37a26.9,26.9,0,0,1,1.49-2.51,22.07,22.07,0,0,1,1.5,2.23c.77,1.67.87,3.26,1.57,4.81.51,1.13.07,4.78.65,5.34,1.78,1.72,3.33-.54,3.73-1.68C246,382.49,242.18,379.67,240.18,376.49Z"/><text class="cls-80" transform="translate(239.98 357.65)"><tspan class="cls-81">chr6: </tspan><tspan class="cls-82" x="21.19" y="0">10355280</tspan></text><path class="cls-83" d="M232,366.36a16.87,16.87,0,0,1,2.84-.18l15.56-5.6"/><path class="cls-84" d="M252,360a8.58,8.58,0,0,0-1.82,2.09v-1.44l-.91-1.1A8.54,8.54,0,0,0,252,360Z"/><text class="cls-80" transform="translate(254.25 384.56)"><tspan class="cls-81">chr6: </tspan><tspan class="cls-82" x="21.19" y="0">99103873</tspan></text><rect class="cls-85" x="258.83" y="361.98" width="23.08" height="1.88"/><rect class="cls-86" x="258.83" y="366.52" width="18.47" height="0.94"/><rect class="cls-87" x="258.83" y="369.06" width="12.06" height="0.94"/><rect class="cls-88" x="272.69" y="369.06" width="12.06" height="0.94"/><rect class="cls-89" x="279.18" y="366.52" width="11.14" height="0.94"/><rect class="cls-90" x="283.29" y="361.98" width="10.71" height="1.88"/><rect class="cls-91" x="259.74" y="389" width="20.4" height="1.85"/><rect class="cls-92" x="259.74" y="393.46" width="16.33" height="0.92"/><rect class="cls-93" x="259.74" y="395.95" width="10.66" height="0.92"/><rect class="cls-94" x="272" y="395.95" width="10.66" height="0.92"/><rect class="cls-95" x="277.73" y="393.46" width="9.85" height="0.92"/><rect class="cls-96" x="281.36" y="389" width="9.47" height="1.85"/><path class="cls-83" d="M230.27,381.79c.93,0,1.88.07,2.83.06l15.48,1.94"/><path class="cls-84" d="M250.28,384a8.3,8.3,0,0,0-2.57,1l.65-1.27-.32-1.4A8.81,8.81,0,0,0,250.28,384Z"/><path class="cls-23" d="M266.37,5.54c-2.14,24.72-14.73,30.18-27,40.09-12.41,10-70,33-83.65,39.64-9.68,4.69-49.95,19-55.21,51.67v1.15a6.63,6.63,0,0,1-.41,2.28,51.3,51.3,0,0,0,1.56,16.94l3.8-12.24c3.8-12.25,11.86-18.74,23.22-25.41C141.33,112.25,223,77.73,237.62,66,251.3,55.08,255,52.11,260.84,41.43,267.57,29.16,268.14-14.84,266.37,5.54Z"/><text class="cls-97" transform="translate(72.23 240.4)">D<tspan class="cls-98" x="3.58" y="0">e</tspan><tspan class="cls-99" x="6.44" y="0">v</tspan><tspan x="9.01" y="0">elopme</tspan><tspan class="cls-100" x="26.9" y="0">n</tspan><tspan x="29.79" y="0">ta</tspan><tspan class="cls-101" x="34.19" y="0">l</tspan><tspan x="11.27" y="6">stage</tspan></text></svg>