<svg id="Capa_1" data-name="Capa 1" xmlns="http://www.w3.org/2000/svg" xmlns:xlink="http://www.w3.org/1999/xlink" viewBox="0 0 300 650"><defs><style>.cls-1,.cls-43{fill:#477599;}.cls-2{fill:url(#Degradado_sin_nombre_31);}.cls-3{fill:url(#Degradado_sin_nombre_37);}.cls-4{fill:url(#Degradado_sin_nombre_31-2);}.cls-5{fill:url(#Degradado_sin_nombre_37-2);}.cls-6{fill:url(#Degradado_sin_nombre_40);}.cls-7{fill:url(#Degradado_sin_nombre_44);}.cls-8{fill:url(#Degradado_sin_nombre_43);}.cls-9{fill:url(#Degradado_sin_nombre_11);}.cls-10{fill:url(#Degradado_sin_nombre_31-3);}.cls-11{fill:url(#Degradado_sin_nombre_37-3);}.cls-12{fill:url(#Degradado_sin_nombre_43-2);}.cls-13{fill:url(#Degradado_sin_nombre_11-2);}.cls-14{fill:url(#Degradado_sin_nombre_40-2);}.cls-15{fill:url(#Degradado_sin_nombre_44-2);}.cls-16{fill:url(#Degradado_sin_nombre_31-4);}.cls-17{fill:url(#Degradado_sin_nombre_37-4);}.cls-18{fill:#1c3353;}.cls-19{fill:url(#Degradado_sin_nombre_43-3);}.cls-20{fill:url(#Degradado_sin_nombre_11-3);}.cls-21{fill:url(#Degradado_sin_nombre_43-4);}.cls-22{fill:url(#Degradado_sin_nombre_11-4);}.cls-23{fill:url(#Degradado_sin_nombre_31-5);}.cls-24{fill:url(#Degradado_sin_nombre_37-5);}.cls-25{fill:url(#Degradado_sin_nombre_43-5);}.cls-26{fill:url(#Degradado_sin_nombre_11-5);}.cls-27{fill:url(#Degradado_sin_nombre_31-6);}.cls-28{fill:url(#Degradado_sin_nombre_37-6);}.cls-29{fill:url(#Degradado_sin_nombre_43-6);}.cls-30{fill:url(#Degradado_sin_nombre_11-6);}.cls-31{fill:url(#Degradado_sin_nombre_31-7);}.cls-32{fill:url(#Degradado_sin_nombre_37-7);}.cls-33{fill:#ffae73;}.cls-34{fill:#9ed8db;}.cls-35{fill:#10497e;}.cls-36{fill:#ffa05e;}.cls-37{fill:#0b3563;}.cls-38{fill:#e9fff9;}.cls-39{fill:#0b4d87;}.cls-40{fill:url(#Degradado_sin_nombre_31-8);}.cls-41{opacity:0.3;}.cls-42{fill:#accefc;}.cls-43{opacity:0.29;}.cls-44,.cls-45{fill:none;stroke:#1d3354;stroke-miterlimit:10;}.cls-45{opacity:0.8;}.cls-46{fill:url(#Degradado_sin_nombre_31-9);}.cls-47{fill:url(#Degradado_sin_nombre_31-10);}.cls-48{fill:url(#Degradado_sin_nombre_31-11);}.cls-49{fill:url(#Degradado_sin_nombre_31-12);}.cls-50{fill:url(#Degradado_sin_nombre_31-13);}.cls-51{fill:url(#Degradado_sin_nombre_31-14);}.cls-52{fill:#d64045;}.cls-53{fill:#fff;}.cls-54{fill:#1e3865;}.cls-55{fill:url(#Degradado_sin_nombre_31-15);}.cls-56{fill:url(#Degradado_sin_nombre_40-3);}.cls-57{fill:#10294c;}.cls-58{fill:#f9924f;}.cls-59{fill:url(#Degradado_sin_nombre_40-4);}.cls-60{fill:url(#Degradado_sin_nombre_31-16);}.cls-61{fill:url(#Degradado_sin_nombre_44-3);}.cls-62{fill:url(#Degradado_sin_nombre_43-7);}.cls-63{fill:url(#Degradado_sin_nombre_44-4);}.cls-64{fill:#606060;}.cls-65{fill:url(#Degradado_sin_nombre_31-17);}.cls-66{fill:url(#Degradado_sin_nombre_31-18);}.cls-67{fill:url(#Degradado_sin_nombre_31-19);}.cls-68{fill:url(#Degradado_sin_nombre_31-20);}.cls-69{fill:url(#Degradado_sin_nombre_31-21);}.cls-70{fill:url(#Degradado_sin_nombre_31-22);}</style><linearGradient id="Degradado_sin_nombre_31" x1="196.67" y1="167.17" x2="242.99" y2="167.17" gradientTransform="translate(-0.47 -30.97) rotate(-0.43)" gradientUnits="userSpaceOnUse"><stop offset="0.01" stop-color="#9ed8da"/><stop offset="0.05" stop-color="#96ced2"/><stop offset="0.29" stop-color="#6b97a5"/><stop offset="0.51" stop-color="#496c82"/><stop offset="0.71" stop-color="#304d68"/><stop offset="0.88" stop-color="#213a59"/><stop offset="1" stop-color="#1c3353"/></linearGradient><linearGradient id="Degradado_sin_nombre_37" x1="159.7" y1="167.13" x2="207.95" y2="167.13" gradientTransform="translate(-0.47 -30.97) rotate(-0.43)" gradientUnits="userSpaceOnUse"><stop offset="0.13" stop-color="#9ed8da"/><stop offset="0.62" stop-color="#c7edec"/><stop offset="1" stop-color="#e9fffa"/></linearGradient><linearGradient id="Degradado_sin_nombre_31-2" x1="118.63" y1="87.12" x2="168.04" y2="87.12" xlink:href="#Degradado_sin_nombre_31"/><linearGradient id="Degradado_sin_nombre_37-2" x1="79.2" y1="87.07" x2="130.67" y2="87.07" xlink:href="#Degradado_sin_nombre_37"/><linearGradient id="Degradado_sin_nombre_40" x1="1058.19" y1="-97.54" x2="1132.76" y2="-97.54" gradientTransform="translate(1243.81 2.68) rotate(179.57)" gradientUnits="userSpaceOnUse"><stop offset="0" stop-color="#d63f44"/><stop offset="0.4" stop-color="#d43f44"/><stop offset="0.54" stop-color="#cd3e45"/><stop offset="0.64" stop-color="#c23e46"/><stop offset="0.72" stop-color="#b13d47"/><stop offset="0.8" stop-color="#9b3b49"/><stop offset="0.86" stop-color="#7f394b"/><stop offset="0.91" stop-color="#5f374e"/><stop offset="0.96" stop-color="#3b3551"/><stop offset="1" stop-color="#1c3353"/></linearGradient><linearGradient id="Degradado_sin_nombre_44" x1="1001.06" y1="-97.61" x2="1075.63" y2="-97.61" gradientTransform="translate(1243.81 2.68) rotate(179.57)" gradientUnits="userSpaceOnUse"><stop offset="0" stop-color="#477599"/><stop offset="0.01" stop-color="#4a799c"/><stop offset="0.1" stop-color="#6496af"/><stop offset="0.21" stop-color="#79aebf"/><stop offset="0.33" stop-color="#8ac1cb"/><stop offset="0.46" stop-color="#95ced4"/><stop offset="0.64" stop-color="#9cd6d9"/><stop offset="1" stop-color="#9ed8da"/></linearGradient><linearGradient id="Degradado_sin_nombre_43" x1="142.18" y1="114.03" x2="216.76" y2="114.03" gradientTransform="translate(-0.47 -30.97) rotate(-0.43)" gradientUnits="userSpaceOnUse"><stop offset="0.13" stop-color="#1c3353"/><stop offset="0.17" stop-color="#3b3551"/><stop offset="0.21" stop-color="#5f374e"/><stop offset="0.26" stop-color="#7f394b"/><stop offset="0.31" stop-color="#9b3b49"/><stop offset="0.37" stop-color="#b13d47"/><stop offset="0.44" stop-color="#c23e46"/><stop offset="0.53" stop-color="#cd3e45"/><stop offset="0.66" stop-color="#d43f44"/><stop offset="1" stop-color="#d63f44"/></linearGradient><linearGradient id="Degradado_sin_nombre_11" x1="85.05" y1="113.96" x2="159.62" y2="113.96" gradientTransform="translate(-0.47 -30.97) rotate(-0.43)" gradientUnits="userSpaceOnUse"><stop offset="0" stop-color="#477599"/><stop offset="0.1" stop-color="#5585a3"/><stop offset="0.36" stop-color="#74a9bb"/><stop offset="0.61" stop-color="#8bc3cc"/><stop offset="0.83" stop-color="#99d2d6"/><stop offset="1" stop-color="#9ed8da"/></linearGradient><linearGradient id="Degradado_sin_nombre_31-3" x1="166.12" y1="249.82" x2="243.11" y2="249.82" xlink:href="#Degradado_sin_nombre_31"/><linearGradient id="Degradado_sin_nombre_37-3" x1="104.66" y1="249.74" x2="184.87" y2="249.74" xlink:href="#Degradado_sin_nombre_37"/><linearGradient id="Degradado_sin_nombre_43-2" x1="193.72" y1="221.87" x2="243.07" y2="221.87" xlink:href="#Degradado_sin_nombre_43"/><linearGradient id="Degradado_sin_nombre_11-2" x1="155.91" y1="221.82" x2="205.26" y2="221.82" xlink:href="#Degradado_sin_nombre_11"/><linearGradient id="Degradado_sin_nombre_40-2" x1="1085.81" y1="-235.05" x2="1162.57" y2="-235.05" xlink:href="#Degradado_sin_nombre_40"/><linearGradient id="Degradado_sin_nombre_44-2" x1="1026.99" y1="-235.13" x2="1103.76" y2="-235.13" xlink:href="#Degradado_sin_nombre_44"/><linearGradient id="Degradado_sin_nombre_31-4" x1="124.79" y1="306.19" x2="170.57" y2="306.19" xlink:href="#Degradado_sin_nombre_31"/><linearGradient id="Degradado_sin_nombre_37-4" x1="88.25" y1="306.14" x2="135.94" y2="306.14" xlink:href="#Degradado_sin_nombre_37"/><linearGradient id="Degradado_sin_nombre_43-3" x1="143.76" y1="380.29" x2="224.91" y2="380.29" xlink:href="#Degradado_sin_nombre_43"/><linearGradient id="Degradado_sin_nombre_11-3" x1="81.58" y1="380.21" x2="162.74" y2="380.21" xlink:href="#Degradado_sin_nombre_11"/><linearGradient id="Degradado_sin_nombre_43-4" x1="162.09" y1="406.7" x2="243.24" y2="406.7" xlink:href="#Degradado_sin_nombre_43"/><linearGradient id="Degradado_sin_nombre_11-4" x1="99.91" y1="406.62" x2="181.06" y2="406.62" xlink:href="#Degradado_sin_nombre_11"/><linearGradient id="Degradado_sin_nombre_31-5" x1="126.14" y1="355.31" x2="175.55" y2="355.31" xlink:href="#Degradado_sin_nombre_31"/><linearGradient id="Degradado_sin_nombre_37-5" x1="86.71" y1="355.26" x2="138.18" y2="355.26" xlink:href="#Degradado_sin_nombre_37"/><linearGradient id="Degradado_sin_nombre_43-5" x1="161.6" y1="518.67" x2="242.75" y2="518.67" xlink:href="#Degradado_sin_nombre_43"/><linearGradient id="Degradado_sin_nombre_11-5" x1="99.42" y1="518.51" x2="180.57" y2="518.51" xlink:href="#Degradado_sin_nombre_11"/><linearGradient id="Degradado_sin_nombre_31-6" x1="235.69" y1="130.36" x2="284.17" y2="130.36" gradientTransform="translate(444.15 529.95) rotate(179.57)" xlink:href="#Degradado_sin_nombre_31"/><linearGradient id="Degradado_sin_nombre_37-6" x1="197" y1="130.32" x2="247.5" y2="130.32" gradientTransform="translate(444.15 529.95) rotate(179.57)" xlink:href="#Degradado_sin_nombre_37"/><linearGradient id="Degradado_sin_nombre_43-6" x1="120.44" y1="573.94" x2="164.2" y2="573.94" xlink:href="#Degradado_sin_nombre_43"/><linearGradient id="Degradado_sin_nombre_11-6" x1="86.91" y1="573.9" x2="130.67" y2="573.9" xlink:href="#Degradado_sin_nombre_11"/><linearGradient id="Degradado_sin_nombre_31-7" x1="284.89" y1="18.13" x2="357.59" y2="18.13" gradientTransform="translate(444.15 529.95) rotate(179.57)" xlink:href="#Degradado_sin_nombre_31"/><linearGradient id="Degradado_sin_nombre_37-7" x1="226.85" y1="18.06" x2="302.6" y2="18.06" gradientTransform="translate(444.15 529.95) rotate(179.57)" xlink:href="#Degradado_sin_nombre_37"/><linearGradient id="Degradado_sin_nombre_31-8" x1="227.82" y1="476.3" x2="251.95" y2="476.3" gradientTransform="matrix(1, 0, 0, 1, 0, 0)" xlink:href="#Degradado_sin_nombre_31"/><linearGradient id="Degradado_sin_nombre_31-9" x1="45.88" y1="121.37" x2="71.42" y2="121.37" gradientTransform="matrix(1, 0, 0, 1, 0, 0)" xlink:href="#Degradado_sin_nombre_31"/><linearGradient id="Degradado_sin_nombre_31-10" x1="45.88" y1="127.52" x2="66.32" y2="127.52" gradientTransform="matrix(1, 0, 0, 1, 0, 0)" xlink:href="#Degradado_sin_nombre_31"/><linearGradient id="Degradado_sin_nombre_31-11" x1="45.88" y1="131.35" x2="59.23" y2="131.35" gradientTransform="matrix(1, 0, 0, 1, 0, 0)" xlink:href="#Degradado_sin_nombre_31"/><linearGradient id="Degradado_sin_nombre_31-12" x1="61.22" y1="131.35" x2="74.57" y2="131.35" gradientTransform="matrix(1, 0, 0, 1, 0, 0)" xlink:href="#Degradado_sin_nombre_31"/><linearGradient id="Degradado_sin_nombre_31-13" x1="68.4" y1="127.52" x2="80.73" y2="127.52" gradientTransform="matrix(1, 0, 0, 1, 0, 0)" xlink:href="#Degradado_sin_nombre_31"/><linearGradient id="Degradado_sin_nombre_31-14" x1="72.95" y1="121.37" x2="84.8" y2="121.37" gradientTransform="matrix(1, 0, 0, 1, 0, 0)" xlink:href="#Degradado_sin_nombre_31"/><linearGradient id="Degradado_sin_nombre_31-15" x1="91.9" y1="206.68" x2="159.53" y2="206.68" gradientTransform="matrix(1, 0, 0, 1, 0, 0)" xlink:href="#Degradado_sin_nombre_31"/><linearGradient id="Degradado_sin_nombre_40-3" x1="129.95" y1="190.17" x2="160.23" y2="190.17" gradientTransform="matrix(1, 0, 0, 1, 0, 0)" xlink:href="#Degradado_sin_nombre_40"/><linearGradient id="Degradado_sin_nombre_40-4" x1="136.28" y1="168.99" x2="159.62" y2="168.99" gradientTransform="matrix(1, 0, 0, 1, 0, 0)" xlink:href="#Degradado_sin_nombre_40"/><linearGradient id="Degradado_sin_nombre_31-16" x1="117.43" y1="219.54" x2="128.99" y2="219.54" gradientTransform="matrix(1, 0, 0, 1, 0, 0)" xlink:href="#Degradado_sin_nombre_31"/><linearGradient id="Degradado_sin_nombre_44-3" x1="132.07" y1="167.11" x2="143.56" y2="167.11" gradientTransform="matrix(1, 0, 0, 1, 0, 0)" xlink:href="#Degradado_sin_nombre_44"/><linearGradient id="Degradado_sin_nombre_43-7" x1="144.42" y1="180.22" x2="160.19" y2="180.22" gradientTransform="matrix(1, 0, 0, 1, 0, 0)" xlink:href="#Degradado_sin_nombre_43"/><linearGradient id="Degradado_sin_nombre_44-4" x1="146.8" y1="169.28" x2="166.11" y2="169.28" gradientTransform="matrix(1, 0, 0, 1, 0, 0)" xlink:href="#Degradado_sin_nombre_44"/><linearGradient id="Degradado_sin_nombre_31-17" x1="221.96" y1="272.92" x2="247.5" y2="272.92" gradientTransform="matrix(1, 0, 0, 1, 0, 0)" xlink:href="#Degradado_sin_nombre_31"/><linearGradient id="Degradado_sin_nombre_31-18" x1="221.96" y1="279.08" x2="242.41" y2="279.08" gradientTransform="matrix(1, 0, 0, 1, 0, 0)" xlink:href="#Degradado_sin_nombre_31"/><linearGradient id="Degradado_sin_nombre_31-19" x1="221.96" y1="282.91" x2="235.31" y2="282.91" gradientTransform="matrix(1, 0, 0, 1, 0, 0)" xlink:href="#Degradado_sin_nombre_31"/><linearGradient id="Degradado_sin_nombre_31-20" x1="237.31" y1="282.91" x2="250.65" y2="282.91" gradientTransform="matrix(1, 0, 0, 1, 0, 0)" xlink:href="#Degradado_sin_nombre_31"/><linearGradient id="Degradado_sin_nombre_31-21" x1="244.49" y1="279.08" x2="256.82" y2="279.08" gradientTransform="matrix(1, 0, 0, 1, 0, 0)" xlink:href="#Degradado_sin_nombre_31"/><linearGradient id="Degradado_sin_nombre_31-22" x1="249.03" y1="272.92" x2="260.88" y2="272.92" gradientTransform="matrix(1, 0, 0, 1, 0, 0)" xlink:href="#Degradado_sin_nombre_31"/></defs><path class="cls-1" d="M247.77,209.82c11.27-47.53-44-65.93-55.65-71.36C178.31,132,120,109.75,107.31,99.88S82.06,84.81,79.45,60.12c-2.15-20.35-.77,23.64,6.22,35.82,6.08,10.61,9.83,13.53,23.79,24.3,14.93,11.52,97.64,45,110.47,52.27,11.54,6.52,19.76,12.92,23.8,25.11Z"/><path class="cls-1" d="M250.1,478.83c11.27-47.53-44-65.93-55.65-71.36-13.81-6.43-72.16-28.7-84.81-38.58s-25.26-15.07-27.86-39.76C79.63,308.78,81,352.77,88,365c6.09,10.61,9.84,13.53,23.8,24.3,14.93,11.52,97.63,45,110.47,52.27,11.53,6.52,19.76,12.92,23.8,25.11Z"/><path class="cls-1" d="M249.44,394.26c11.27-47.53-44-65.94-55.65-71.36C180,316.46,121.63,294.19,109,284.31s-25.26-15.06-27.86-39.75c-2.15-20.36-.77,23.63,6.22,35.81,6.08,10.61,9.83,13.53,23.79,24.3,14.93,11.52,97.64,45,110.47,52.28,11.54,6.52,19.76,12.91,23.8,25.11Z"/><path class="cls-1" d="M247,126c11.27-47.53-44-65.94-55.65-71.36-13.8-6.43-72.16-28.71-84.81-38.59C94.05,6.29,81.3,1,78.69-23.7c-2.15-20.36-.77,23.64,6.22,35.82C91,22.73,94.75,25.65,108.7,36.41c14.94,11.53,97.64,45,110.47,52.28,11.54,6.52,19.76,12.91,23.8,25.11Z"/><path class="cls-2" d="M240.29,139.66,201,139.9c-1.94,0-3.53-1.28-3.54-2.9l-.05-4.61a3.26,3.26,0,0,1,3.49-2.95l39.28-.24a3.27,3.27,0,0,1,3.55,2.9l0,4.61A3.26,3.26,0,0,1,240.29,139.66Z"/><path class="cls-3" d="M205.26,139.87l-41.22.26c-1.94,0-3.53-1.28-3.54-2.9l0-4.61c0-1.62,1.54-2.93,3.48-3l41.22-.25c1.94,0,3.53,1.28,3.54,2.9l.05,4.61A3.25,3.25,0,0,1,205.26,139.87Z"/><path class="cls-4" d="M164.75,60.17l-42.37.26a3.27,3.27,0,0,1-3.55-2.89l0-4.62A3.25,3.25,0,0,1,122.28,50l42.37-.27c1.94,0,3.53,1.29,3.54,2.9l.05,4.62A3.25,3.25,0,0,1,164.75,60.17Z"/><path class="cls-5" d="M127.38,60.4l-44.44.28c-1.94,0-3.53-1.28-3.54-2.9l0-4.61c0-1.62,1.54-2.93,3.48-3L127.28,50c1.94,0,3.53,1.28,3.54,2.89l.05,4.62A3.25,3.25,0,0,1,127.38,60.4Z"/><path class="cls-6" d="M115.28,103.43l67.54-.42c1.94,0,3.53,1.29,3.54,2.9l0,4.62c0,1.61-1.54,2.93-3.49,2.94l-67.53.42c-1.94,0-3.53-1.29-3.54-2.9l0-4.62C111.78,104.76,113.34,103.45,115.28,103.43Z"/><path class="cls-7" d="M172.42,103.08l67.53-.42a3.27,3.27,0,0,1,3.55,2.89l0,4.62a3.25,3.25,0,0,1-3.49,2.94l-67.54.42a3.26,3.26,0,0,1-3.54-2.89l0-4.62A3.25,3.25,0,0,1,172.42,103.08Z"/><path class="cls-8" d="M213.66,86.73l-67.53.42c-1.94,0-3.53-1.28-3.54-2.89l-.05-4.62A3.25,3.25,0,0,1,146,76.7l67.54-.43a3.28,3.28,0,0,1,3.54,2.9l0,4.62C217.17,85.4,215.6,86.72,213.66,86.73Z"/><path class="cls-9" d="M156.53,87.09,89,87.51a3.28,3.28,0,0,1-3.54-2.9l0-4.62c0-1.61,1.55-2.93,3.49-2.94l67.53-.42c1.94,0,3.53,1.29,3.54,2.9l.05,4.62A3.25,3.25,0,0,1,156.53,87.09Z"/><path class="cls-10" d="M241,222.32l-70,.43c-1.94,0-3.53-1.28-3.54-2.89l0-4.62A3.24,3.24,0,0,1,171,212.3l70-.44c1.94,0,3.53,1.29,3.54,2.9l.05,4.62A3.25,3.25,0,0,1,241,222.32Z"/><path class="cls-11" d="M182.8,222.68l-73.18.46c-1.94,0-3.53-1.29-3.54-2.9l0-4.62c0-1.61,1.54-2.93,3.49-2.94l73.17-.46a3.28,3.28,0,0,1,3.55,2.9l0,4.62A3.25,3.25,0,0,1,182.8,222.68Z"/><path class="cls-12" d="M240.78,194.35l-42.31.27c-1.94,0-3.53-1.29-3.54-2.9l0-4.62a3.24,3.24,0,0,1,3.48-2.94l42.32-.26c1.94,0,3.53,1.28,3.54,2.89l0,4.62C244.29,193,242.73,194.34,240.78,194.35Z"/><path class="cls-13" d="M203,194.59l-42.31.26c-1.94,0-3.53-1.28-3.54-2.9l0-4.61c0-1.62,1.54-2.93,3.48-2.94l42.32-.27c1.94,0,3.53,1.29,3.54,2.9l0,4.62C206.48,193.26,204.92,194.58,203,194.59Z"/><path class="cls-14" d="M86.51,241.17l69.73-.44a3.28,3.28,0,0,1,3.54,2.9l0,4.62c0,1.61-1.55,2.93-3.49,2.94l-69.73.43a3.27,3.27,0,0,1-3.54-2.9l0-4.61A3.25,3.25,0,0,1,86.51,241.17Z"/><path class="cls-15" d="M145.32,240.8l69.73-.44c1.94,0,3.53,1.29,3.54,2.9l0,4.62a3.25,3.25,0,0,1-3.49,2.94l-69.73.44c-1.94,0-3.53-1.29-3.54-2.9l0-4.62A3.24,3.24,0,0,1,145.32,240.8Z"/><path class="cls-16" d="M168.92,279.21l-38.74.24a3.27,3.27,0,0,1-3.55-2.9l0-4.61a3.26,3.26,0,0,1,3.49-2.95l38.74-.24a3.28,3.28,0,0,1,3.55,2.9l0,4.62A3.25,3.25,0,0,1,168.92,279.21Z"/><path class="cls-17" d="M134.29,279.43l-40.65.25a3.28,3.28,0,0,1-3.55-2.9l0-4.62a3.25,3.25,0,0,1,3.49-2.94L134.2,269c1.94,0,3.53,1.28,3.54,2.9l0,4.61C137.8,278.1,136.24,279.41,134.29,279.43Z"/><path class="cls-1" d="M253,662.74c11.27-47.53-44-65.94-55.64-71.36-13.81-6.43-72.16-28.71-84.81-38.59S87.26,537.73,84.66,513c-2.15-20.36-.77,23.64,6.21,35.82,6.09,10.61,9.84,13.53,23.79,24.29,14.94,11.53,97.64,45,110.48,52.28,11.53,6.52,19.76,12.91,23.8,25.11Z"/><path class="cls-1" d="M253.75,748c11.27-47.53-44-65.93-55.65-71.36-13.81-6.43-72.16-28.71-84.81-38.58S88,623,85.43,598.3c-2.15-20.36-.77,23.64,6.22,35.82,6.08,10.61,9.83,13.53,23.79,24.29,14.93,11.53,97.63,45,110.47,52.28,11.53,6.52,19.76,12.91,23.8,25.11Z"/><path class="cls-18" d="M83.2,262.1c-12.07-47.38,42.56-66.47,54.05-72,13.62-6.61,71.25-29.61,83.65-39.64s24.84-15.38,27-40.1c1.77-20.38,1.19,23.63-5.54,35.89-5.86,10.69-9.54,13.65-23.22,24.59-14.64,11.71-96.29,46.24-108.92,53.65-11.35,6.66-19.42,13.16-23.21,25.4Z"/><path class="cls-19" d="M223.82,352.92l-74.12.47a3.28,3.28,0,0,1-3.54-2.9l0-4.62a3.25,3.25,0,0,1,3.49-2.94l74.11-.46a3.27,3.27,0,0,1,3.55,2.9l0,4.61A3.25,3.25,0,0,1,223.82,352.92Z"/><path class="cls-20" d="M161.64,353.31l-74.11.47c-1.94,0-3.53-1.29-3.54-2.9l0-4.62a3.25,3.25,0,0,1,3.49-2.94l74.12-.46a3.26,3.26,0,0,1,3.54,2.89l0,4.62C165.15,352,163.58,353.3,161.64,353.31Z"/><path class="cls-21" d="M242.35,379.2l-74.12.46c-1.94,0-3.53-1.29-3.54-2.9l0-4.62c0-1.61,1.54-2.93,3.49-2.94l74.11-.46c1.94,0,3.53,1.28,3.54,2.9l0,4.61C245.85,377.87,244.29,379.18,242.35,379.2Z"/><path class="cls-22" d="M180.17,379.58l-74.12.47a3.28,3.28,0,0,1-3.54-2.9l0-4.62a3.25,3.25,0,0,1,3.49-2.94l74.12-.46a3.27,3.27,0,0,1,3.54,2.89l0,4.62A3.25,3.25,0,0,1,180.17,379.58Z"/><path class="cls-23" d="M174.27,328.29l-42.37.27c-1.94,0-3.53-1.29-3.54-2.9l0-4.62a3.24,3.24,0,0,1,3.48-2.94l42.38-.26a3.27,3.27,0,0,1,3.54,2.89l0,4.62A3.25,3.25,0,0,1,174.27,328.29Z"/><path class="cls-24" d="M136.9,328.53l-44.44.27a3.26,3.26,0,0,1-3.54-2.89l0-4.62a3.25,3.25,0,0,1,3.49-2.94l44.44-.28a3.28,3.28,0,0,1,3.54,2.9l0,4.62A3.25,3.25,0,0,1,136.9,328.53Z"/><path class="cls-18" d="M83.48,346c-12.07-47.39,42.57-66.48,54.05-72.05,13.62-6.6,71.25-29.6,83.65-39.63s24.85-15.38,27-40.1c1.77-20.38,1.19,23.63-5.54,35.89-5.86,10.69-9.53,13.65-23.22,24.59-14.64,11.71-96.29,46.23-108.92,53.65-11.35,6.66-19.42,13.16-23.21,25.4Z"/><path class="cls-25" d="M242.69,491.16l-74.11.47c-1.94,0-3.53-1.29-3.54-2.9l0-4.62a3.24,3.24,0,0,1,3.48-2.94l74.12-.46c1.94,0,3.53,1.28,3.54,2.9l0,4.61C246.2,489.84,244.64,491.15,242.69,491.16Z"/><path class="cls-26" d="M180.52,491.55,106.4,492a3.28,3.28,0,0,1-3.54-2.9l0-4.78c0-1.61,1.55-2.92,3.49-2.94l74.11-.46c1.94,0,3.53,1.29,3.54,2.9l0,4.77A3.25,3.25,0,0,1,180.52,491.55Z"/><path class="cls-27" d="M162.48,396.44l41.44-.26c1.94,0,3.53,1.29,3.54,2.9l0,4.62c0,1.61-1.54,2.93-3.49,2.94l-41.43.26c-1.94,0-3.53-1.29-3.54-2.9l0-4.62A3.24,3.24,0,0,1,162.48,396.44Z"/><path class="cls-28" d="M199.15,396.21l43.46-.27c1.94,0,3.53,1.28,3.54,2.9l0,4.61c0,1.62-1.55,2.93-3.49,2.95l-43.46.27c-1.94,0-3.53-1.29-3.54-2.9l0-4.62C195.64,397.54,197.2,396.22,199.15,396.21Z"/><path class="cls-18" d="M85.16,531.09c-12.07-47.38,42.56-66.47,54.05-72.05,13.61-6.6,71.24-29.6,83.65-39.63,12.26-9.92,24.84-15.38,27-40.1,1.77-20.38,1.19,23.63-5.54,35.89-5.86,10.69-9.54,13.65-23.22,24.59C206.44,451.5,124.8,486,112.17,493.44,100.81,500.1,92.75,506.6,89,518.84Z"/><path class="cls-29" d="M164.56,547l-36.72.23c-1.94,0-3.53-1.29-3.54-2.9l0-4.62c0-1.61,1.54-2.92,3.49-2.94l36.72-.23c1.94,0,3.53,1.29,3.54,2.9l0,4.62C168.07,545.67,166.5,547,164.56,547Z"/><path class="cls-30" d="M131,547.21l-36.73.23a3.28,3.28,0,0,1-3.54-2.9l0-4.62A3.25,3.25,0,0,1,94.22,537l36.72-.23c1.94,0,3.53,1.29,3.54,2.9l.05,4.62A3.25,3.25,0,0,1,131,547.21Z"/><path class="cls-31" d="M89.9,509.21l65.67-.41c1.94,0,3.53,1.28,3.54,2.89l0,4.62a3.24,3.24,0,0,1-3.48,2.94L90,519.66c-1.94,0-3.53-1.28-3.54-2.9l0-4.61A3.25,3.25,0,0,1,89.9,509.21Z"/><path class="cls-32" d="M144.9,508.86l68.7-.43a3.28,3.28,0,0,1,3.55,2.9l0,4.62a3.25,3.25,0,0,1-3.49,2.94l-68.71.43c-1.94,0-3.53-1.29-3.54-2.9l0-4.62C141.39,510.19,143,508.87,144.9,508.86Z"/><path class="cls-18" d="M85.89,612.65c-12.06-47.38,42.57-66.47,54.05-72C153.56,534,211.19,511,223.59,501s24.85-15.38,27-40.1c1.77-20.38,1.19,23.63-5.53,35.89-5.86,10.69-9.54,13.65-23.22,24.59C207.18,533.06,125.54,567.59,112.9,575c-11.35,6.66-19.41,13.16-23.21,25.4Z"/><path class="cls-33" d="M222.13,421.82s-.59-1.33-1-2-2-2.49-2.32-2.07-1.4,3.24-.81,4,0,2.17,2.94,3Z"/><path class="cls-34" d="M255.14,413.39S239.94,426,234,424.85a116,116,0,0,1-11.75-3.34l-1.43,3.62s6.39,8.62,13,8.67A38,38,0,0,0,252,429.32Z"/><path class="cls-35" d="M281.81,546.61s-.44,7.09-1.82,7.19h-7l-8.68,0a2.8,2.8,0,0,1,2.59-2.52c2.54-.44,6.79-2.21,8.33-5.55C276.86,542.17,281.81,546.61,281.81,546.61Z"/><path class="cls-1" d="M282.31,547.11a18.35,18.35,0,0,1-4.7.87,17.43,17.43,0,0,1-4.39-.62A120,120,0,0,0,270,532c-1.44-5.53-3.49-12.63-6.4-21.46-8.06-24.39-10.51-38.66-10.73-40,0-.07,0-.11,0-.11h0l24.77-10.82s-3.06,33.62.84,46.52a53.41,53.41,0,0,1,1.42,6.19C282.37,526.35,282.31,547.11,282.31,547.11Z"/><path class="cls-18" d="M270,532c-1.44-5.53-3.49-12.63-6.4-21.46-8.06-24.39-10.51-38.66-10.73-40a.49.49,0,0,1,0-.12l24.77-10.82s-3.06,33.62.84,46.52C279,508,270,532,270,532Z"/><path class="cls-35" d="M262.46,546.61s-.44,7.09-1.82,7.19h-7l-8.69,0a2.81,2.81,0,0,1,2.6-2.52c2.54-.44,6.79-2.21,8.32-5.55C257.51,542.17,262.46,546.61,262.46,546.61Z"/><path class="cls-1" d="M248.42,460.42A349.25,349.25,0,0,0,251.89,509c3.78,26.75,2.5,38.1,2.5,38.1A25.29,25.29,0,0,0,258,548a16.6,16.6,0,0,0,5.42-.62s5.42-26.76,3.87-40.15,7.42-45.94,7.42-45.94Z"/><path class="cls-33" d="M266.15,407.8l-3.38,4.34-7.09.39c0-.57-.15-2.94-.24-5.09,0-.12,0-.25,0-.37-.08-1.83-.11-3.83-.11-3.83l5.63-3.89,2.11-1.61s.33,2,.33,2.26C263.41,405.58,266.15,407.8,266.15,407.8Z"/><path class="cls-34" d="M247,461.36c.1,11.5.87,38.4,1.43,38.95,6,5.78,32.5-1.58,33.9-7.95S277,410.69,266.7,407.68c-2.14-.62-13.54,3.05-13.54,3.05a71,71,0,0,0-3,10.59c-.44,2.19-1.86,17.88-2.69,28.36-.21,2.79-.39,5.22-.5,6.91C247,457.3,247,459,247,461.36Z"/><path class="cls-36" d="M262.93,400.21c-.82,2.68-5.51,6-7.49,7.23,0-.12,0-.25,0-.37-.08-1.83-.14-5.52-.14-5.52l5.66-2.2C262.34,399,263.27,399.1,262.93,400.21Z"/><path class="cls-33" d="M253.43,402.21s10.51,3.26,12.45-3.29,4.6-10.53-2-12.89-8.67-.24-9.86,1.78S250.74,401.19,253.43,402.21Z"/><path class="cls-37" d="M254.41,387.18s.67,7.62,2.25,7.29,3.67-.39,3.44,1.91,1.95,6.19,3.4,6.18c4.9,0,10.29-13.13,8.95-15.5C268.58,380.22,248.82,378.84,254.41,387.18Z"/><path class="cls-38" d="M256,407.85c.14-.06,7.83-3.49,8.73-3.2s2,3,2,3l-13.54,3.05A6.65,6.65,0,0,1,256,407.85Z"/><path class="cls-39" d="M206.15,446.37l39.52,41.77a2.09,2.09,0,0,0,2.93,0l2.69-2.51a2.07,2.07,0,0,0,.15-2.91L211.83,440.9c-.76-.81-1.43-.17-2.27.62L206.87,444C206,444.83,205.38,445.56,206.15,446.37Z"/><path class="cls-40" d="M227.82,469.26l17.8,18.82a2.12,2.12,0,0,0,3,.09l2.69-2.51a2.11,2.11,0,0,0,.09-3l-17.8-18.83Z"/><path class="cls-37" d="M161.08,442.89a33.9,33.9,0,0,0,47.75,1.45,33.49,33.49,0,0,0,1.45-47.52,33.89,33.89,0,0,0-47.74-1.45l-.53.51A33.5,33.5,0,0,0,161.08,442.89Zm2.9-46a31.5,31.5,0,1,1-1.37,44.55A31.62,31.62,0,0,1,164,396.9Z"/><g class="cls-41"><path class="cls-42" d="M162.61,441.45a31.68,31.68,0,0,0,54.61-18.73,31.3,31.3,0,0,0-8.47-24.46,31.73,31.73,0,0,0-28.5-9.46,32.36,32.36,0,0,0-5.16,1.34,31.51,31.51,0,0,0-12.48,51.31Z"/></g><path class="cls-18" d="M247,461.36c25.12-16.92,23.07-40.2,23.07-40.2-9.8,5.5-19.52,18.52-22.54,28.52-.21,2.79-.39,5.22-.5,6.91C247,457.3,247,459,247,461.36Z"/><path class="cls-33" d="M224.84,452.8a6.51,6.51,0,0,1-3-1.87s-.72.05.11,1.57c.07.12.23.45.34.68a.14.14,0,0,1-.12.21,15.55,15.55,0,0,0-3.8.08c-.26,0-.33.67-.32.93a2.35,2.35,0,0,0,.5,1.61c.3.39,1.14.82,3,1.56.71.29,2.74.07,4.64-.58l1.52-.7-.47-2.81-.38.08C226.22,453.69,225.47,453,224.84,452.8Z"/><path class="cls-34" d="M262.68,410.73s21.34,4-6.28,34.79c-4.41,4.92-28.28,11.32-28.28,11.32s-2.42-2-1.2-3.71c0,0,16.43-11.87,20.05-13.76,1.62-.85,6.31-18.95,9-23.31A11.92,11.92,0,0,1,262.68,410.73Z"/><path class="cls-33" d="M221.56,422.2a11,11,0,0,1-.84-2,10.78,10.78,0,0,0-1.38-3.1c-.14-.15-.62,0-.67.66a3.34,3.34,0,0,0,.34,1.34,14.94,14.94,0,0,1,.45,2.67C219.79,422.81,221.56,422.2,221.56,422.2Z"/><rect class="cls-43" x="-0.92" y="109.44" width="106.94" height="80.24" rx="38.26"/><path class="cls-44" d="M27.38,122.29s2.8-2.28,7.85.83a5.9,5.9,0,0,1,3.22,3.93,5.13,5.13,0,0,0,.89,2,6.82,6.82,0,0,1,1.27,3.51,6.47,6.47,0,0,0,.67,2.41,8.05,8.05,0,0,1,.72,4.33s1.62,1.93.71,6.24a6.7,6.7,0,0,1-.93,5.14s.42,3.11-2,4.15a5.86,5.86,0,0,1-5.07,3.43,4.27,4.27,0,0,0-1.6.39,5.55,5.55,0,0,1-3.89.09c-3-.88-2.73-2.92-2.73-2.92V122.79Z"/><path class="cls-44" d="M25.75,122.29s-2.8-2.28-7.85.83a5.85,5.85,0,0,0-3.25,4.13,3.85,3.85,0,0,1-.75,1.7,6.84,6.84,0,0,0-1.4,4,4.11,4.11,0,0,1-.52,1.88,7.46,7.46,0,0,0-.88,3.6,4.23,4.23,0,0,1-.37,1.65,8.94,8.94,0,0,0-.31,5.55,6.79,6.79,0,0,0,.44,4.26,5.62,5.62,0,0,1,.49,1.86,3.78,3.78,0,0,0,1.34,2.78,5,5,0,0,1,1.12,1.21,5.76,5.76,0,0,0,4.4,2.59,6.86,6.86,0,0,1,1.94.46,5.61,5.61,0,0,0,3.76,0c3-.88,2.73-2.92,2.73-2.92V122.79Z"/><path class="cls-45" d="M23.58,142.86a4.63,4.63,0,0,1-3.49-2.75v0a1.77,1.77,0,0,1,.51-2.23,1.44,1.44,0,0,0,.33-.32,6.28,6.28,0,0,1-3.26-.58,5,5,0,0,1-1.75-1.47,3.62,3.62,0,0,0,1,2,3.36,3.36,0,0,0,1.27.69c.44.1.63.59.79,1a10.76,10.76,0,0,0,.55,1.26,6.7,6.7,0,0,0,1.35,1.84A4.09,4.09,0,0,0,19,144.14a4.14,4.14,0,0,0-.45,1.4A5.76,5.76,0,0,1,19.69,144a3.3,3.3,0,0,1,2.51-1A5.43,5.43,0,0,0,23.58,142.86Z"/><path class="cls-45" d="M18.28,148.7h-.21a3,3,0,0,1-2.34-1.42,3.39,3.39,0,0,1-.37-3.35v0c.14-.32.22.28.2.63a4,4,0,0,0,1.18,2.57,4.53,4.53,0,0,0,3,.75c.36,0,.67,0,.35.28A3.25,3.25,0,0,1,18.28,148.7Z"/><path class="cls-45" d="M22.56,136l-.15-.06a2.55,2.55,0,0,1-1.38-1.7,2.62,2.62,0,0,1,.53-2.56h0c.17-.2.09.26,0,.52a3.15,3.15,0,0,0,.25,2.2,3.76,3.76,0,0,0,2,1.41c.26.11.47.21.18.3A2.52,2.52,0,0,1,22.56,136Z"/><path class="cls-45" d="M16.34,152.72a.67.67,0,0,1-.93-.28,16.6,16.6,0,0,0-2.71-3.53h0a9,9,0,0,1,3.64,3.81Z"/><path class="cls-45" d="M24.09,151.09a2.26,2.26,0,0,1-.59-1.78,9.38,9.38,0,0,1,.23-1.72,3,3,0,0,0-.67,3.22c-.95,0-1.5,1.17-1.5,1.17a3.29,3.29,0,0,1,.67-.29,2.09,2.09,0,0,1,1.34,0,1.81,1.81,0,0,1,1,1.15A1.61,1.61,0,0,0,24.09,151.09Z"/><path class="cls-45" d="M17.09,131.58a1.93,1.93,0,0,1,1.54-.87,7.42,7.42,0,0,1,1.59,0,2.45,2.45,0,0,0-3-.32A2,2,0,0,0,16,128.94a3.83,3.83,0,0,1,.35.69,2.69,2.69,0,0,1,.19,1.45,1.85,1.85,0,0,1-.91,1.24A1.33,1.33,0,0,0,17.09,131.58Z"/><path class="cls-45" d="M13.21,142.33a2,2,0,0,1,1.54-.87,7.18,7.18,0,0,1,1.59,0,2.46,2.46,0,0,0-3-.32,2,2,0,0,0-1.24-1.49,4.29,4.29,0,0,1,.34.69,2.71,2.71,0,0,1,.2,1.46,1.87,1.87,0,0,1-.92,1.23A1.33,1.33,0,0,0,13.21,142.33Z"/><path class="cls-45" d="M21.87,127.16a2.84,2.84,0,0,0,.74-2.23,11.5,11.5,0,0,0-.29-2.14,3.76,3.76,0,0,1,.83,4c1.19,0,1.88,1.46,1.88,1.46a4.63,4.63,0,0,0-.83-.37,2.59,2.59,0,0,0-1.68,0,2.28,2.28,0,0,0-1.26,1.43A2,2,0,0,1,21.87,127.16Z"/><path class="cls-45" d="M18,154.68a2.66,2.66,0,0,0,.69-2.08,9.94,9.94,0,0,0-.27-2,3.52,3.52,0,0,1,.78,3.76c1.11,0,1.76,1.35,1.76,1.35a5.11,5.11,0,0,0-.79-.34,2.42,2.42,0,0,0-1.56,0,2.07,2.07,0,0,0-1.17,1.34A1.87,1.87,0,0,1,18,154.68Z"/><path class="cls-45" d="M29.53,142.86A4.65,4.65,0,0,0,33,140.11v0a1.77,1.77,0,0,0-.51-2.23,1.44,1.44,0,0,1-.33-.32,6.24,6.24,0,0,0,3.25-.58,5,5,0,0,0,1.76-1.47,3.62,3.62,0,0,1-1,2,3.44,3.44,0,0,1-1.27.69c-.44.1-.63.59-.79,1a10.76,10.76,0,0,1-.55,1.26,6.7,6.7,0,0,1-1.35,1.84,4.09,4.09,0,0,1,1.84,1.84,4.14,4.14,0,0,1,.45,1.4A6,6,0,0,0,33.42,144a3.3,3.3,0,0,0-2.51-1A5.43,5.43,0,0,1,29.53,142.86Z"/><path class="cls-45" d="M34.83,148.7H35a3,3,0,0,0,2.34-1.42,3.39,3.39,0,0,0,.37-3.35v0c-.14-.32-.22.28-.2.63a4,4,0,0,1-1.18,2.57,4.55,4.55,0,0,1-3,.75c-.35,0-.66,0-.34.28A3.25,3.25,0,0,0,34.83,148.7Z"/><path class="cls-45" d="M30.55,136l.15-.06a2.55,2.55,0,0,0,1.38-1.7,2.62,2.62,0,0,0-.53-2.56h0c-.17-.2-.09.26,0,.52a3.21,3.21,0,0,1-.25,2.2,3.76,3.76,0,0,1-2,1.41c-.26.11-.47.21-.18.3A2.52,2.52,0,0,0,30.55,136Z"/><path class="cls-45" d="M36.36,151.47a.66.66,0,0,0,1,.07,15.38,15.38,0,0,1,3.6-2.4h0a8.31,8.31,0,0,0-4.56,2.33Z"/><path class="cls-45" d="M29,151.09a2.29,2.29,0,0,0,.59-1.78,9.38,9.38,0,0,0-.23-1.72,3,3,0,0,1,.67,3.22c.95,0,1.5,1.17,1.5,1.17a3.29,3.29,0,0,0-.67-.29,2.09,2.09,0,0,0-1.34,0,1.81,1.81,0,0,0-1,1.15A1.61,1.61,0,0,1,29,151.09Z"/><path class="cls-45" d="M36,131.58a1.93,1.93,0,0,0-1.55-.87,7.35,7.35,0,0,0-1.58,0,2.44,2.44,0,0,1,3-.32,2,2,0,0,1,1.25-1.48,3.83,3.83,0,0,0-.35.69,2.69,2.69,0,0,0-.19,1.45,1.85,1.85,0,0,0,.91,1.24A1.33,1.33,0,0,1,36,131.58Z"/><path class="cls-45" d="M39.9,142.33a2,2,0,0,0-1.54-.87,7.18,7.18,0,0,0-1.59,0,2.46,2.46,0,0,1,3-.32A2,2,0,0,1,41,139.69a3.83,3.83,0,0,0-.35.69,2.82,2.82,0,0,0-.19,1.46,1.84,1.84,0,0,0,.92,1.23A1.33,1.33,0,0,1,39.9,142.33Z"/><path class="cls-45" d="M31.24,127.16a2.84,2.84,0,0,1-.74-2.23,11.5,11.5,0,0,1,.29-2.14,3.78,3.78,0,0,0-.84,4c-1.18,0-1.87,1.46-1.87,1.46a4.63,4.63,0,0,1,.83-.37,2.59,2.59,0,0,1,1.68,0,2.28,2.28,0,0,1,1.26,1.43A2,2,0,0,0,31.24,127.16Z"/><path class="cls-45" d="M35.07,154.68a2.66,2.66,0,0,1-.69-2.08,9.94,9.94,0,0,1,.27-2,3.52,3.52,0,0,0-.78,3.76c-1.11,0-1.76,1.35-1.76,1.35a5.26,5.26,0,0,1,.78-.34,2.46,2.46,0,0,1,1.57,0,2.1,2.1,0,0,1,1.17,1.34A1.87,1.87,0,0,0,35.07,154.68Z"/><rect class="cls-45" x="9.7" y="139.35" width="33.8" height="0.68" transform="translate(-113.16 165.93) rotate(-89.85)"/><rect class="cls-46" x="45.88" y="119.95" width="25.54" height="2.84"/><rect class="cls-47" x="45.88" y="126.81" width="20.44" height="1.42"/><rect class="cls-48" x="45.88" y="130.64" width="13.35" height="1.42"/><rect class="cls-49" x="61.22" y="130.64" width="13.34" height="1.42"/><rect class="cls-50" x="68.4" y="126.81" width="12.33" height="1.42"/><rect class="cls-51" x="72.95" y="119.95" width="11.85" height="2.84"/><rect class="cls-52" x="9.59" y="166.02" width="20.4" height="2.27"/><rect class="cls-52" x="9.59" y="171.5" width="16.33" height="1.14"/><rect class="cls-52" x="9.59" y="174.56" width="10.66" height="1.14"/><rect class="cls-52" x="21.84" y="174.56" width="10.66" height="1.14"/><rect class="cls-52" x="27.58" y="171.5" width="9.85" height="1.14"/><rect class="cls-52" x="31.21" y="166.02" width="9.47" height="2.27"/><path class="cls-53" d="M71.55,140.05a1.8,1.8,0,0,1,0,2.38,1.45,1.45,0,0,1-2.18,0,1.8,1.8,0,0,1,0-2.38A1.46,1.46,0,0,1,71.55,140.05Z"/><path class="cls-53" d="M65.39,147.14a2,2,0,0,1,0,2.65,1.6,1.6,0,0,1-2.42,0,2,2,0,0,1,0-2.65A1.62,1.62,0,0,1,65.39,147.14Z"/><path class="cls-53" d="M57.77,143.42a1.71,1.71,0,0,1,0,2.26,1.38,1.38,0,0,1-2.07,0,1.7,1.7,0,0,1,0-2.26A1.37,1.37,0,0,1,57.77,143.42Z"/><path class="cls-53" d="M50.85,147.75a1.72,1.72,0,0,1,0,2.27,1.38,1.38,0,0,1-2.07,0,1.7,1.7,0,0,1,0-2.26A1.37,1.37,0,0,1,50.85,147.75Z"/><polygon class="cls-53" points="49.76 148.77 56.74 144.39 64.15 148.31 70.38 141.15 70.56 141.35 64.21 148.65 56.75 144.72 49.89 149.01 49.76 148.77"/><path class="cls-53" d="M75.22,151.22a1.49,1.49,0,0,1-.31-1.95,1.2,1.2,0,0,1,1.78-.33,1.47,1.47,0,0,1,.31,1.94A1.21,1.21,0,0,1,75.22,151.22Z"/><path class="cls-53" d="M79.37,144.5a1.66,1.66,0,0,1-.34-2.17,1.34,1.34,0,0,1,2-.37,1.64,1.64,0,0,1,.34,2.16A1.35,1.35,0,0,1,79.37,144.5Z"/><path class="cls-53" d="M86.06,146.41a1.41,1.41,0,0,1-.29-1.85,1.15,1.15,0,0,1,1.69-.32,1.4,1.4,0,0,1,.29,1.85A1.15,1.15,0,0,1,86.06,146.41Z"/><path class="cls-53" d="M91.18,141.83a1.4,1.4,0,0,1-.29-1.85,1.14,1.14,0,0,1,1.68-.32,1.41,1.41,0,0,1,.3,1.85A1.15,1.15,0,0,1,91.18,141.83Z"/><polygon class="cls-53" points="91.94 140.83 86.79 145.45 80.24 143.37 76.05 150.14 75.87 150.01 80.15 143.09 86.74 145.19 91.81 140.65 91.94 140.83"/><path class="cls-53" d="M87.29,176.84H48.22V158.92H87.29Zm-38.82-.27H87V159.19H48.47Z"/><path class="cls-33" d="M134.28,240.37a1.5,1.5,0,0,1,.23,1.52h0a9.29,9.29,0,0,1-2.8,3.29c-.17.14-.32.28-.45.4l-.1.1-.07.07c-1.23,1.22-.77,1.49-3,4-2.52,2.8-4.25,2.85-4.75,2.6s.43-1.71,1.37-3.38l.14-.25c.12-.22.25-.44.37-.67,1.1-2,.82-3,.56-6-.21-2.44-3.54-13.61-3.54-13.61l4.83-.89s1.45,8.9,3.06,10.27c.85.73,1.81.73,2.63,1.28l.18.11A6.76,6.76,0,0,1,134.28,240.37Z"/><path class="cls-54" d="M134.28,240.37a1.5,1.5,0,0,1,.23,1.52h0a10.76,10.76,0,0,1-2.8,3.28c-.17.15-.32.28-.45.41l-.1.1-.07.07c-1.23,1.22-.77,1.49-3,4-2.52,2.8-4.25,2.85-4.75,2.6s.43-1.71,1.37-3.38a10.8,10.8,0,0,0,4.49-3.54c1.46-2,2.46-4.55,3.45-6.11l.29-.06A6.76,6.76,0,0,1,134.28,240.37Z"/><path class="cls-33" d="M95.35,237.14c-.3,1.6-2.42,1.33-4.8.71s-1.81.12-5.19-.28-4.4-1.75-4.5-2.29,1.58-.65,3.37-.87l.68-.08c2-.28,3.5-1.67,5.33-2.82S94.58,226,94.58,226l4.63.39s-2.43,4-3.37,5.67a6.3,6.3,0,0,0-.46,3.38A6.91,6.91,0,0,1,95.35,237.14Z"/><path class="cls-54" d="M90.55,237.85c-2.37-.62-1.81.12-5.19-.28s-4.4-1.75-4.5-2.29,1.58-.65,3.37-.87v0a9.13,9.13,0,0,0,4.84,1.61c2.29.06,4.72-.64,6.3-.62a6.91,6.91,0,0,1,0,1.7C95.05,238.74,92.93,238.47,90.55,237.85Z"/><path class="cls-54" d="M113.1,205.42l4.33,12.48,5.65,16.29a8.62,8.62,0,0,0,3-.29,12.66,12.66,0,0,0,2.9-1.52s-1.57-17.49-4.5-27.53A18.31,18.31,0,0,0,122,199C117.43,193.27,113.1,205.42,113.1,205.42Z"/><path class="cls-55" d="M117.5,185.61c2.47-.85,8.9,0,15.87,1.34a4.64,4.64,0,0,0,4.89-2.36h0l17.56-1.47s7,14.88,1.77,22.44c-3,4.42-13.31,3.79-16.42,3.11-8.56-1.88-18.28-7.32-19.54-7.59-2.06-.44-2.89,4-4.95,8.62s-19.4,20.55-19.4,20.55a14.05,14.05,0,0,1-3.77-.42,3.65,3.65,0,0,1-1.61-1.09S111.1,187.82,117.5,185.61Z"/><path class="cls-56" d="M160.23,196.06c-.08,10.8-2.68,15.76-2.68,15.76-22.6-3.24-27.6-25.5-27.6-25.5a8,8,0,0,0,6.61-3.2l19-13,1.15-.79,1.19-.81s.36,2.06.79,5.38a180.86,180.86,0,0,1,1.47,18C160.22,193.31,160.24,194.68,160.23,196.06Z"/><path class="cls-57" d="M138.36,158.7c6.25,3.68,18.94,11.32,19,11.27s4.66,1.88,7.31,0c4.41-3.13,6.77-11.57-1.29-18.83-4-3.62-6.88-4.5-7.31-10.28-.24-3.15-4.27-13.57-11-12.52a8.83,8.83,0,0,1-1.62.11,5.83,5.83,0,0,0-3.35.93C136.36,131.78,129,157.27,138.36,158.7Z"/><path class="cls-33" d="M143.6,155.56s3.08,1.15,5.15.17,3.44-4.36,3.41-4.37c-.89,0-1.91-1.56-2.62-6.33l-.38.15-6.35,2.45s.46,2.18.75,4.26C143.82,153.64,144,155.31,143.6,155.56Z"/><path class="cls-58" d="M142.81,147.63s.25,1.18.62,3.38a7.45,7.45,0,0,0,5.73-5.83Z"/><path class="cls-33" d="M141.86,149.8s8.7-1.25,7.89-7-.24-9.85-5.82-9.3-6.36,2.94-6.53,4.94S139.58,150,141.86,149.8Z"/><path class="cls-57" d="M137.72,135.23s5.57,5.14,9.36,5.55,5.22-.89,5.22-.89a15.58,15.58,0,0,1-3.58-5.19,2.69,2.69,0,0,0-2.19-1.68C143.82,132.77,138.69,132.66,137.72,135.23Z"/><path class="cls-57" d="M141.2,134.77a14.68,14.68,0,0,0-2.45,3.36,12,12,0,0,0-.29,6s-2.9-6-1.25-9C139,132,141.2,134.77,141.2,134.77Z"/><path class="cls-59" d="M136.28,169.28c.26,18.86.07,14.92,2,16.71.46.43,1.77.68,3.48.8,5.4.39,14.89-.56,15.26-1.63,1.24-3.7.36-4.85,1.4-10.51.11-.6.24-1.25.4-2,.87-3.89,1.71-5.21-1.36-11.46-2.79-5.66-5.63-10.29-5.89-10.12-7.36,4.67-8,.78-8,.78S136.15,160.08,136.28,169.28Z"/><path class="cls-60" d="M117.43,217.9l5.65,16.29a8.62,8.62,0,0,0,3-.29,12.66,12.66,0,0,0,2.9-1.52s-1.57-17.49-4.5-27.53Z"/><path class="cls-61" d="M143.56,151.89s-6.67,1.05-7.62,5c-.85,3.5-3.87,23.34-3.87,23.34s1.36,3.43,3.14,1.53,5.59-19.81,5.59-19.81Z"/><path class="cls-33" d="M141.5,183.94a10.81,10.81,0,0,1-1.48,1.73,1,1,0,0,1-.6.13l.75-1.44Z"/><path class="cls-33" d="M141.76,182.35,138.52,184a.57.57,0,0,0,.54.22,7.56,7.56,0,0,0,1.4-.41Z"/><path class="cls-62" d="M160.19,192c-5-.43-17.69-5-15.52-8.22,1-1.5,7.71-2.16,11.17-6.89.93-1.27-.12-4.75-.25-6.72-.06-.85,0-1.46.25-1.6s.57.23.9.81a30.43,30.43,0,0,1,1.82,4.61l.16,0A180.86,180.86,0,0,1,160.19,192Z"/><path class="cls-33" d="M148,183.12s-5.33-1.27-6.19-.77a12.83,12.83,0,0,0-3.22,3c-.26.65,1.91-.48,2.62-.69a6,6,0,0,1,2.26.53,7.07,7.07,0,0,0,4.06.44Z"/><path class="cls-63" d="M151.57,151.11s7.1.51,9.58,4.2c3.48,5.21,7.22,27.47,3.26,30.43-4.46,3.33-17.14.8-17.14.8s-1.19-3.78.21-3.92c3.77-.39,11.15-2.07,11.08-3.83-.1-2.69-4.75-11.59-4.75-13.36S151.57,151.11,151.57,151.11Z"/><polygon class="cls-64" points="114.05 186.32 147.95 186.32 147.95 187.12 114.35 187.12 114.05 186.32"/><polygon class="cls-64" points="140.02 187.12 114.35 187.12 106.63 166.56 132.26 166.56 140.02 187.12"/><path class="cls-64" d="M120.83,176.84a1,1,0,0,1,.87-1.31,1.79,1.79,0,0,1,1.58,1.31,1,1,0,0,1-.88,1.31A1.79,1.79,0,0,1,120.83,176.84Z"/><rect class="cls-43" x="208.71" y="258.21" width="96.29" height="70.5" rx="33.61"/><rect class="cls-65" x="221.96" y="271.5" width="25.54" height="2.84"/><rect class="cls-66" x="221.96" y="278.37" width="20.44" height="1.42"/><rect class="cls-67" x="221.96" y="282.2" width="13.35" height="1.42"/><rect class="cls-68" x="237.31" y="282.2" width="13.34" height="1.42"/><rect class="cls-69" x="244.49" y="278.37" width="12.33" height="1.42"/><rect class="cls-70" x="249.03" y="271.5" width="11.85" height="2.84"/></svg>